<?xml version="1.0" encoding="utf-8"?>
<!-- Generator: Adobe Illustrator 21.1.0, SVG Export Plug-In . SVG Version: 6.00 Build 0)  -->
<svg version="1.1" id="Слой_1" xmlns="http://www.w3.org/2000/svg" xmlns:xlink="http://www.w3.org/1999/xlink" x="0px" y="0px"
	 viewBox="0 0 800 400" style="enable-background:new 0 0 800 400;" xml:space="preserve">
<style type="text/css">
	.st0{fill:none;stroke:#3AAA35;stroke-width:3;stroke-miterlimit:10;}
	.st1{fill:none;stroke:#EA5B0C;stroke-width:3;stroke-miterlimit:10;}
	.st2{fill:#EA5B0C;stroke:#936037;stroke-miterlimit:10;}
	.st3{enable-background:new    ;}
	.st4{fill:#EDEDED;}
	.st5{fill:#95C11F;stroke:#006633;stroke-miterlimit:10;}
</style>
<line class="st0" x1="530" y1="230" x2="580" y2="310"/>
<line class="st0" x1="370" y1="230" x2="350" y2="310"/>
<line class="st1" x1="400" y1="140" x2="530" y2="230"/>
<line class="st1" x1="400" y1="140" x2="370" y2="230"/>
<path class="st2" d="M415,250h-90c-2.8,0-5-2.2-5-5v-30c0-2.8,2.2-5,5-5h90c2.8,0,5,2.2,5,5v30C420,247.8,417.8,250,415,250z"/>
<g class="st3">
	<path class="st4" d="M359.1,221.7l-5.5,3.3l5.5,3.3l-0.9,1.3l-6.1-3.8v-1.6l6.2-3.8L359.1,221.7z"/>
	<path class="st4" d="M363.6,222.6c0.3-0.4,0.7-0.7,1.2-0.9c0.5-0.2,0.9-0.3,1.4-0.3c0.8,0,1.4,0.2,1.8,0.6c0.4,0.4,0.6,1.1,0.6,1.9
		v6.2h-1.8v-5.9c0-0.5-0.1-0.9-0.3-1.1c-0.2-0.2-0.5-0.3-0.9-0.3c-0.4,0-0.7,0.1-1.1,0.4c-0.3,0.2-0.6,0.5-0.9,0.9v6h-1.8v-11.8
		l1.8-0.2V222.6z"/>
	<path class="st4" d="M378.5,228.6v1.4h-6.7v-1.4h2.7v-7.8l-2.4,1.5l-0.8-1.2l3.4-2.1h1.6v9.6H378.5z"/>
	<path class="st4" d="M387.9,224.2v1.6l-6.1,3.8l-0.9-1.3l5.5-3.3l-5.5-3.3l0.8-1.3L387.9,224.2z"/>
</g>
<path class="st2" d="M575,250h-90c-2.8,0-5-2.2-5-5v-30c0-2.8,2.2-5,5-5h90c2.8,0,5,2.2,5,5v30C580,247.8,577.8,250,575,250z"/>
<g class="st3">
	<path class="st4" d="M523.9,221.7l-5.5,3.3l5.5,3.3l-0.9,1.3l-6.1-3.8v-1.6l6.2-3.8L523.9,221.7z"/>
	<path class="st4" d="M533.8,225.8c0,1.3-0.3,2.4-0.8,3.2c-0.6,0.8-1.4,1.2-2.4,1.2c-0.9,0-1.6-0.3-2.1-0.9v4l-1.8,0.2v-11.9h1.6
		l0.1,1.1c0.3-0.4,0.7-0.8,1.1-1c0.4-0.2,0.9-0.3,1.4-0.3C532.8,221.3,533.8,222.8,533.8,225.8z M529.2,223
		c-0.3,0.2-0.6,0.5-0.8,0.9v4c0.4,0.6,1,0.9,1.7,0.9c0.6,0,1.1-0.2,1.4-0.7s0.5-1.3,0.5-2.3c0-1.1-0.1-1.9-0.4-2.3
		c-0.3-0.5-0.7-0.7-1.3-0.7C529.9,222.7,529.5,222.8,529.2,223z"/>
	<path class="st4" d="M543.1,224.2v1.6l-6.1,3.8l-0.9-1.3l5.5-3.3l-5.5-3.3l0.8-1.3L543.1,224.2z"/>
</g>
<line class="st1" x1="240" y1="140" x2="140" y2="240"/>
<line class="st1" x1="400" y1="50" x2="560" y2="140"/>
<line class="st1" x1="400" y1="50" x2="400" y2="140"/>
<line class="st1" x1="400" y1="50" x2="240" y2="140"/>
<g>
	<path class="st2" d="M445,70h-90c-2.8,0-5-2.2-5-5V35c0-2.8,2.2-5,5-5h90c2.8,0,5,2.2,5,5v30C450,67.8,447.8,70,445,70z"/>
	<g class="st3">
		<path class="st4" d="M374.4,39.6l-6.9,4.1l6.9,4.1l-1.1,1.6l-7.7-4.8v-1.9l7.7-4.8L374.4,39.6z"/>
		<path class="st4" d="M381.3,39.6c0.5-0.3,1-0.4,1.6-0.4c1.3,0,2.3,0.5,3,1.5s1,2.3,1,4.1c0,1.7-0.4,3-1.1,4
			c-0.7,1-1.8,1.5-3.1,1.5c-1.2,0-2.1-0.4-2.8-1.3l-0.1,1h-2V35.2l2.2-0.3v5.8C380.4,40.2,380.8,39.8,381.3,39.6z M383.9,47.6
			c0.4-0.6,0.6-1.6,0.6-2.9c0-1.3-0.2-2.3-0.5-2.9c-0.4-0.6-0.9-0.9-1.6-0.9c-0.5,0-0.9,0.1-1.3,0.4c-0.4,0.3-0.7,0.6-1,1.1v4.9
			c0.5,0.8,1.2,1.2,2.1,1.2C382.9,48.6,383.5,48.2,383.9,47.6z"/>
		<path class="st4" d="M397.5,40.7c0.8,1,1.2,2.3,1.2,4s-0.4,3.1-1.3,4.1s-2,1.5-3.5,1.5c-1.5,0-2.7-0.5-3.5-1.5
			c-0.8-1-1.3-2.3-1.3-4.1c0-1.7,0.4-3,1.3-4c0.8-1,2-1.5,3.5-1.5C395.5,39.2,396.7,39.7,397.5,40.7z M392.2,41.8
			c-0.4,0.6-0.6,1.6-0.6,2.9c0,1.3,0.2,2.3,0.6,2.9c0.4,0.6,1,0.9,1.8,0.9c0.8,0,1.4-0.3,1.8-0.9c0.4-0.6,0.6-1.6,0.6-2.9
			c0-1.3-0.2-2.3-0.6-2.9c-0.4-0.6-1-0.9-1.8-0.9C393.2,40.9,392.6,41.2,392.2,41.8z"/>
		<path class="st4" d="M410.2,35.2V50h-2l-0.2-1.3c-0.3,0.5-0.8,0.9-1.3,1.2s-1.1,0.4-1.7,0.4c-1.3,0-2.3-0.5-3-1.5
			c-0.7-1-1-2.3-1-4.1c0-1.1,0.2-2,0.5-2.9s0.8-1.5,1.4-2s1.4-0.7,2.2-0.7c1.1,0,2,0.4,2.7,1.2v-5.4L410.2,35.2z M404.1,41.8
			c-0.4,0.6-0.6,1.6-0.6,2.9c0,2.6,0.7,3.8,2.2,3.8c0.9,0,1.6-0.5,2.3-1.5v-5c-0.5-0.8-1.2-1.2-2.1-1.2
			C405.1,40.9,404.5,41.2,404.1,41.8z"/>
		<path class="st4" d="M419.4,50c-0.4,1.3-1,2.3-1.8,3s-1.9,1.2-3.3,1.3l-0.3-1.7c0.7-0.1,1.3-0.3,1.7-0.5c0.4-0.2,0.8-0.5,1-0.8
			c0.3-0.3,0.5-0.8,0.7-1.3h-0.8L413,39.4h2.4l2.7,9l2.7-9h2.3L419.4,50z"/>
		<path class="st4" d="M434.4,42.8v1.9l-7.7,4.8l-1.1-1.6l6.8-4.1l-6.8-4.1l1-1.7L434.4,42.8z"/>
	</g>
</g>
<g>
	<path class="st2" d="M285,160h-90c-2.8,0-5-2.2-5-5v-30c0-2.8,2.2-5,5-5h90c2.8,0,5,2.2,5,5v30C290,157.8,287.8,160,285,160z"/>
	<g class="st3">
		<path class="st4" d="M209.9,131.7l-5.5,3.3l5.5,3.3l-0.9,1.3l-6.1-3.8v-1.6l6.2-3.8L209.9,131.7z"/>
		<path class="st4" d="M214.4,132.6c0.3-0.4,0.7-0.7,1.2-0.9c0.5-0.2,0.9-0.3,1.4-0.3c0.8,0,1.4,0.2,1.8,0.6
			c0.4,0.4,0.6,1.1,0.6,1.9v6.2h-1.8v-5.9c0-0.5-0.1-0.9-0.3-1.1c-0.2-0.2-0.5-0.3-0.9-0.3c-0.4,0-0.7,0.1-1.1,0.4
			c-0.3,0.2-0.6,0.5-0.9,0.9v6h-1.8v-11.8l1.8-0.2V132.6z"/>
		<path class="st4" d="M224.4,138.2c0.4,0.4,1,0.6,1.6,0.6c0.4,0,0.8-0.1,1.1-0.2c0.4-0.1,0.7-0.3,1.1-0.6l0.8,1.1
			c-0.4,0.3-0.9,0.6-1.4,0.8c-0.5,0.2-1.1,0.3-1.7,0.3c-1.3,0-2.3-0.4-3-1.2c-0.7-0.8-1.1-1.9-1.1-3.2c0-0.8,0.2-1.6,0.5-2.3
			c0.3-0.7,0.8-1.2,1.3-1.6c0.6-0.4,1.3-0.6,2-0.6c1.1,0,2,0.4,2.7,1.1c0.7,0.8,1,1.8,1,3.1c0,0.3,0,0.6,0,0.8h-5.6
			C223.8,137.2,224,137.8,224.4,138.2z M224.3,133.3c-0.4,0.4-0.6,1-0.6,1.9h3.9c0-0.8-0.2-1.4-0.5-1.8c-0.3-0.4-0.8-0.6-1.4-0.6
			C225.2,132.7,224.7,132.9,224.3,133.3z"/>
		<path class="st4" d="M238.4,138.6c0.1,0.2,0.3,0.3,0.5,0.3l-0.4,1.2c-0.9-0.1-1.5-0.5-1.7-1.2c-0.3,0.4-0.7,0.7-1.2,0.9
			s-1,0.3-1.5,0.3c-0.9,0-1.5-0.2-2-0.7c-0.5-0.5-0.8-1.1-0.8-1.9c0-0.9,0.3-1.6,1-2c0.7-0.5,1.7-0.7,3-0.7h1.2v-0.5
			c0-0.5-0.2-0.9-0.5-1.2c-0.3-0.2-0.8-0.4-1.4-0.4c-0.3,0-0.6,0-1,0.1c-0.4,0.1-0.8,0.2-1.2,0.3l-0.4-1.3c1-0.4,2-0.6,3-0.6
			c1.1,0,2,0.2,2.5,0.7c0.6,0.5,0.8,1.2,0.8,2.1v3.8C238.3,138.3,238.3,138.5,238.4,138.6z M235.7,138.6c0.3-0.2,0.6-0.5,0.8-0.8
			v-1.9h-1c-0.8,0-1.4,0.1-1.8,0.4c-0.4,0.3-0.6,0.7-0.6,1.2c0,0.4,0.1,0.8,0.4,1c0.2,0.2,0.6,0.4,1.1,0.4
			C235,138.9,235.3,138.8,235.7,138.6z"/>
		<path class="st4" d="M248.2,128.2V140h-1.6l-0.1-1c-0.3,0.4-0.6,0.7-1,0.9c-0.4,0.2-0.9,0.3-1.3,0.3c-1.1,0-1.9-0.4-2.4-1.2
			c-0.5-0.8-0.8-1.9-0.8-3.2c0-0.9,0.1-1.6,0.4-2.3s0.7-1.2,1.2-1.6c0.5-0.4,1.1-0.6,1.8-0.6c0.9,0,1.6,0.3,2.1,0.9V128L248.2,128.2
			z M243.3,133.5c-0.3,0.5-0.5,1.3-0.5,2.3c0,2,0.6,3.1,1.8,3.1c0.7,0,1.3-0.4,1.8-1.2v-4c-0.4-0.6-1-0.9-1.7-0.9
			C244.1,132.7,243.6,133,243.3,133.5z"/>
		<path class="st4" d="M253.2,138.2c0.4,0.4,1,0.6,1.6,0.6c0.4,0,0.8-0.1,1.1-0.2c0.4-0.1,0.7-0.3,1.1-0.6l0.8,1.1
			c-0.4,0.3-0.9,0.6-1.4,0.8c-0.5,0.2-1.1,0.3-1.7,0.3c-1.3,0-2.3-0.4-3-1.2c-0.7-0.8-1.1-1.9-1.1-3.2c0-0.8,0.2-1.6,0.5-2.3
			c0.3-0.7,0.8-1.2,1.3-1.6c0.6-0.4,1.3-0.6,2-0.6c1.1,0,2,0.4,2.7,1.1c0.7,0.8,1,1.8,1,3.1c0,0.3,0,0.6,0,0.8h-5.6
			C252.6,137.2,252.8,137.8,253.2,138.2z M253.1,133.3c-0.4,0.4-0.6,1-0.6,1.9h3.9c0-0.8-0.2-1.4-0.5-1.8c-0.3-0.4-0.8-0.6-1.4-0.6
			C254,132.7,253.5,132.9,253.1,133.3z"/>
		<path class="st4" d="M267.9,131.6l-0.3,3.1h-1.3v-1.7c-0.6,0-1.1,0.2-1.5,0.7c-0.4,0.5-0.8,1.1-1,1.9v3.1h1.7v1.3h-4.7v-1.3h1.2
			v-5.9h-1.2v-1.3h2.6l0.3,2c0.3-0.7,0.7-1.3,1.2-1.6c0.5-0.4,1.1-0.5,1.8-0.5C267,131.3,267.5,131.4,267.9,131.6z"/>
		<path class="st4" d="M277.1,134.2v1.6l-6.1,3.8l-0.9-1.3l5.5-3.3l-5.5-3.3l0.8-1.3L277.1,134.2z"/>
	</g>
</g>
<g>
	<path class="st2" d="M445,160h-90c-2.8,0-5-2.2-5-5v-30c0-2.8,2.2-5,5-5h90c2.8,0,5,2.2,5,5v30C450,157.8,447.8,160,445,160z"/>
	<g class="st3">
		<path class="st4" d="M379.5,131.7L374,135l5.5,3.3l-0.9,1.3l-6.1-3.8v-1.6l6.2-3.8L379.5,131.7z"/>
		<path class="st4" d="M389.3,131.9c0.3,0.4,0.4,1,0.4,1.9v6.3h-1.6v-6c0-0.5,0-0.8-0.1-1c-0.1-0.2-0.2-0.3-0.5-0.3
			c-0.4,0-0.9,0.3-1.2,0.8v6.4h-1.5v-6c0-0.5,0-0.8-0.1-1s-0.2-0.3-0.5-0.3c-0.4,0-0.9,0.3-1.2,0.8v6.4h-1.6v-8.4h1.3l0.1,0.9
			c0.3-0.4,0.5-0.7,0.8-0.8c0.3-0.2,0.6-0.3,1-0.3c0.7,0,1.2,0.4,1.4,1.1c0.3-0.3,0.5-0.6,0.8-0.8c0.3-0.2,0.6-0.3,1-0.3
			C388.6,131.3,389,131.5,389.3,131.9z"/>
		<path class="st4" d="M398.4,138.6c0.1,0.2,0.3,0.3,0.5,0.3l-0.4,1.2c-0.9-0.1-1.5-0.5-1.7-1.2c-0.3,0.4-0.7,0.7-1.2,0.9
			s-1,0.3-1.5,0.3c-0.9,0-1.5-0.2-2-0.7c-0.5-0.5-0.8-1.1-0.8-1.9c0-0.9,0.3-1.6,1-2c0.7-0.5,1.7-0.7,3-0.7h1.2v-0.5
			c0-0.5-0.2-0.9-0.5-1.2c-0.3-0.2-0.8-0.4-1.4-0.4c-0.3,0-0.6,0-1,0.1c-0.4,0.1-0.8,0.2-1.2,0.3l-0.4-1.3c1-0.4,2-0.6,3-0.6
			c1.1,0,2,0.2,2.5,0.7c0.6,0.5,0.8,1.2,0.8,2.1v3.8C398.3,138.3,398.3,138.5,398.4,138.6z M395.7,138.6c0.3-0.2,0.6-0.5,0.8-0.8
			v-1.9h-1c-0.8,0-1.4,0.1-1.8,0.4c-0.4,0.3-0.6,0.7-0.6,1.2c0,0.4,0.1,0.8,0.4,1c0.2,0.2,0.6,0.4,1.1,0.4
			C395,138.9,395.3,138.8,395.7,138.6z"/>
		<path class="st4" d="M406,138.7h2.3v1.3h-6.6v-1.3h2.5v-5.8h-2.4v-1.3h4.2V138.7z M405.6,127.7c0.2,0.2,0.3,0.5,0.3,0.8
			s-0.1,0.6-0.3,0.8c-0.2,0.2-0.5,0.3-0.8,0.3c-0.4,0-0.6-0.1-0.8-0.3c-0.2-0.2-0.3-0.5-0.3-0.8c0-0.3,0.1-0.6,0.3-0.8
			c0.2-0.2,0.5-0.3,0.8-0.3S405.4,127.5,405.6,127.7z"/>
		<path class="st4" d="M411,131.6h1.6l0.1,1.1c0.4-0.4,0.8-0.8,1.2-1s1-0.3,1.5-0.3c0.8,0,1.4,0.2,1.8,0.7s0.6,1.1,0.6,1.9v6.2H416
			v-5.3c0-0.5,0-0.9-0.1-1.2c-0.1-0.3-0.2-0.5-0.3-0.6c-0.2-0.1-0.4-0.2-0.8-0.2c-0.4,0-0.7,0.1-1.1,0.4c-0.3,0.2-0.6,0.5-0.9,0.9
			v6.1H411V131.6z"/>
		<path class="st4" d="M427.5,134.2v1.6l-6.1,3.8l-0.9-1.3l5.5-3.3l-5.5-3.3l0.8-1.3L427.5,134.2z"/>
	</g>
</g>
<path class="st2" d="M605,160h-90c-2.8,0-5-2.2-5-5v-30c0-2.8,2.2-5,5-5h90c2.8,0,5,2.2,5,5v30C610,157.8,607.8,160,605,160z"/>
<g class="st3">
	<path class="st4" d="M529.9,131.7l-5.5,3.3l5.5,3.3l-0.9,1.3l-6.1-3.8v-1.6l6.2-3.8L529.9,131.7z"/>
	<path class="st4" d="M540.3,128.4l-0.5,1.2c-0.5-0.2-1.1-0.4-1.8-0.4c-0.6,0-1,0.1-1.2,0.3c-0.3,0.2-0.4,0.5-0.4,1v1.5h2.8
		l-0.2,1.3h-2.6v6.5h-1.8v-6.5h-1.9v-1.3h1.9v-1.5c0-0.5,0.1-1,0.4-1.4c0.3-0.4,0.7-0.7,1.1-0.9c0.5-0.2,1.1-0.3,1.7-0.3
		C538.7,128,539.5,128.1,540.3,128.4z"/>
	<path class="st4" d="M548.4,132.5c0.7,0.8,1,1.9,1,3.2c0,1.4-0.3,2.4-1,3.2s-1.6,1.2-2.8,1.2c-1.2,0-2.2-0.4-2.8-1.2s-1-1.9-1-3.3
		c0-1.3,0.3-2.4,1-3.2c0.7-0.8,1.6-1.2,2.8-1.2C546.8,131.3,547.8,131.7,548.4,132.5z M544.2,133.5c-0.3,0.5-0.5,1.3-0.5,2.3
		c0,1,0.2,1.8,0.5,2.3s0.8,0.7,1.5,0.7c0.7,0,1.1-0.3,1.5-0.8s0.5-1.3,0.5-2.3c0-1-0.2-1.8-0.5-2.3s-0.8-0.7-1.4-0.7
		C545,132.7,544.5,133,544.2,133.5z"/>
	<path class="st4" d="M558,132.5c0.7,0.8,1,1.9,1,3.2c0,1.4-0.3,2.4-1,3.2c-0.7,0.8-1.6,1.2-2.8,1.2c-1.2,0-2.2-0.4-2.8-1.2
		c-0.7-0.8-1-1.9-1-3.3c0-1.3,0.3-2.4,1-3.2s1.6-1.2,2.8-1.2C556.4,131.3,557.4,131.7,558,132.5z M553.8,133.5
		c-0.3,0.5-0.5,1.3-0.5,2.3c0,1,0.2,1.8,0.5,2.3s0.8,0.7,1.5,0.7c0.7,0,1.1-0.3,1.5-0.8s0.5-1.3,0.5-2.3c0-1-0.2-1.8-0.5-2.3
		s-0.8-0.7-1.4-0.7C554.6,132.7,554.1,133,553.8,133.5z"/>
	<path class="st4" d="M567.4,140c-0.4,0.1-0.9,0.2-1.3,0.2c-1,0-1.7-0.2-2.2-0.7s-0.8-1.2-0.8-2v-4.6h-1.9v-1.3h1.9v-1.9l1.8-0.2
		v2.1h2.9l-0.2,1.3h-2.7v4.6c0,0.5,0.1,0.8,0.4,1s0.6,0.3,1.1,0.3c0.6,0,1.1-0.1,1.6-0.4l0.6,1.2C568.2,139.8,567.8,139.9,567.4,140
		z"/>
	<path class="st4" d="M573.2,138.2c0.4,0.4,1,0.6,1.6,0.6c0.4,0,0.8-0.1,1.1-0.2c0.4-0.1,0.7-0.3,1.1-0.6l0.8,1.1
		c-0.4,0.3-0.9,0.6-1.4,0.8c-0.5,0.2-1.1,0.3-1.7,0.3c-1.3,0-2.3-0.4-3-1.2c-0.7-0.8-1.1-1.9-1.1-3.2c0-0.8,0.2-1.6,0.5-2.3
		c0.3-0.7,0.8-1.2,1.3-1.6c0.6-0.4,1.3-0.6,2-0.6c1.1,0,2,0.4,2.7,1.1s1,1.8,1,3.1c0,0.3,0,0.6,0,0.8h-5.6
		C572.6,137.2,572.8,137.8,573.2,138.2z M573.1,133.3c-0.4,0.4-0.6,1-0.6,1.9h3.9c0-0.8-0.2-1.4-0.5-1.8c-0.3-0.4-0.8-0.6-1.4-0.6
		C574,132.7,573.5,132.9,573.1,133.3z"/>
	<path class="st4" d="M587.9,131.6l-0.3,3.1h-1.3v-1.7c-0.6,0-1.1,0.2-1.5,0.7c-0.4,0.5-0.8,1.1-1,1.9v3.1h1.7v1.3h-4.7v-1.3h1.2
		v-5.9h-1.2v-1.3h2.6l0.3,2c0.3-0.7,0.7-1.3,1.2-1.6s1.1-0.5,1.8-0.5C587,131.3,587.5,131.4,587.9,131.6z"/>
	<path class="st4" d="M597.1,134.2v1.6l-6.1,3.8l-0.9-1.3l5.5-3.3l-5.5-3.3l0.8-1.3L597.1,134.2z"/>
</g>
<path class="st2" d="M185,260H95c-2.8,0-5-2.2-5-5v-30c0-2.8,2.2-5,5-5h90c2.8,0,5,2.2,5,5v30C190,257.8,187.8,260,185,260z"/>
<g class="st3">
	<path class="st4" d="M124.3,231.7l-5.5,3.3l5.5,3.3l-0.9,1.3l-6.1-3.8v-1.6l6.2-3.8L124.3,231.7z"/>
	<path class="st4" d="M131.6,238.7h2.3v1.3h-6.6v-1.3h2.5v-5.8h-2.4v-1.3h4.2V238.7z M131.2,227.7c0.2,0.2,0.3,0.5,0.3,0.8
		s-0.1,0.6-0.3,0.8c-0.2,0.2-0.5,0.3-0.8,0.3c-0.4,0-0.6-0.1-0.8-0.3c-0.2-0.2-0.3-0.5-0.3-0.8c0-0.3,0.1-0.6,0.3-0.8
		c0.2-0.2,0.5-0.3,0.8-0.3S131,227.5,131.2,227.7z"/>
	<path class="st4" d="M143.7,231.9c0.3,0.4,0.4,1,0.4,1.9v6.3h-1.6v-6c0-0.5,0-0.8-0.1-1c-0.1-0.2-0.2-0.3-0.5-0.3
		c-0.4,0-0.9,0.3-1.2,0.8v6.4h-1.5v-6c0-0.5,0-0.8-0.1-1s-0.2-0.3-0.5-0.3c-0.4,0-0.9,0.3-1.2,0.8v6.4h-1.6v-8.4h1.3l0.1,0.9
		c0.3-0.4,0.5-0.7,0.8-0.8c0.3-0.2,0.6-0.3,1-0.3c0.7,0,1.2,0.4,1.4,1.1c0.3-0.3,0.5-0.6,0.8-0.8c0.3-0.2,0.6-0.3,1-0.3
		C143,231.3,143.4,231.5,143.7,231.9z"/>
	<path class="st4" d="M153.8,232c-0.3,0.1-0.7,0.2-1,0.2c-0.4,0-0.9,0.1-1.4,0.1c0.5,0.2,0.9,0.5,1.2,0.9c0.3,0.4,0.4,0.8,0.4,1.3
		c0,0.6-0.1,1-0.4,1.5s-0.7,0.8-1.2,1c-0.5,0.2-1.1,0.4-1.8,0.4c-0.5,0-0.9,0-1.2-0.1c-0.1,0.1-0.2,0.2-0.3,0.3
		c-0.1,0.1-0.1,0.3-0.1,0.4c0,0.4,0.3,0.6,1,0.6h1.5c0.6,0,1.1,0.1,1.6,0.3c0.5,0.2,0.8,0.5,1.1,0.8s0.4,0.8,0.4,1.2
		c0,0.8-0.4,1.5-1.1,2c-0.7,0.5-1.8,0.7-3.1,0.7c-0.9,0-1.7-0.1-2.2-0.3s-0.9-0.5-1.2-0.9s-0.3-0.9-0.3-1.5h1.6
		c0,0.3,0.1,0.6,0.2,0.8s0.3,0.3,0.6,0.4c0.3,0.1,0.8,0.1,1.3,0.1c0.9,0,1.5-0.1,1.8-0.3s0.6-0.5,0.6-0.9c0-0.3-0.1-0.6-0.4-0.8
		s-0.7-0.3-1.2-0.3h-1.5c-0.8,0-1.3-0.2-1.7-0.5c-0.4-0.3-0.6-0.7-0.6-1.2c0-0.3,0.1-0.6,0.2-0.8s0.4-0.5,0.7-0.7
		c-0.5-0.3-0.9-0.6-1.1-1c-0.2-0.4-0.3-0.8-0.3-1.4c0-0.6,0.1-1.1,0.4-1.6c0.3-0.5,0.7-0.8,1.2-1.1s1.1-0.4,1.8-0.4
		c0.9,0,1.6-0.1,2.2-0.2c0.5-0.1,1.1-0.4,1.7-0.7L153.8,232z M148.2,233c-0.3,0.3-0.4,0.7-0.4,1.3c0,0.5,0.1,1,0.4,1.3
		s0.7,0.5,1.3,0.5c0.5,0,0.9-0.2,1.2-0.5c0.3-0.3,0.4-0.8,0.4-1.3c0-1.1-0.5-1.7-1.6-1.7C148.9,232.6,148.5,232.7,148.2,233z"/>
	<path class="st4" d="M162.7,234.2v1.6l-6.1,3.8l-0.9-1.3l5.5-3.3l-5.5-3.3l0.8-1.3L162.7,234.2z"/>
</g>
<path class="st5" d="M395,330h-90c-2.8,0-5-2.2-5-5v-30c0-2.8,2.2-5,5-5h90c2.8,0,5,2.2,5,5v30C400,327.8,397.8,330,395,330z"/>
<g class="st3">
	<path class="st4" d="M329.5,308.6c-0.3,0.5-0.8,0.9-1.5,1.2c-0.6,0.3-1.4,0.4-2.3,0.4c-1.7,0-3.1-0.5-4.1-1.5l1-1.1
		c0.8,0.8,1.8,1.2,3,1.2c0.7,0,1.2-0.2,1.6-0.5c0.4-0.3,0.6-0.7,0.6-1.3c0-0.3-0.1-0.6-0.2-0.8c-0.1-0.2-0.4-0.4-0.7-0.6
		c-0.3-0.2-0.8-0.4-1.4-0.5c-1.2-0.4-2.1-0.8-2.7-1.3c-0.6-0.5-0.9-1.2-0.9-2c0-0.6,0.2-1.1,0.5-1.6c0.3-0.5,0.8-0.8,1.4-1.1
		c0.6-0.3,1.2-0.4,2-0.4c1.5,0,2.7,0.4,3.7,1.3l-1,1.1c-0.8-0.7-1.6-1-2.6-1c-0.6,0-1.1,0.1-1.4,0.4c-0.4,0.2-0.6,0.6-0.6,1.1
		c0,0.3,0.1,0.5,0.2,0.7c0.2,0.2,0.4,0.4,0.8,0.6c0.4,0.2,0.9,0.3,1.6,0.6c1.1,0.3,1.9,0.7,2.4,1.2c0.6,0.5,0.8,1.2,0.8,2.2
		C330,307.5,329.8,308.1,329.5,308.6z"/>
	<path class="st4" d="M338.8,308.6c0.1,0.2,0.3,0.3,0.5,0.3l-0.4,1.2c-0.9-0.1-1.5-0.5-1.7-1.2c-0.3,0.4-0.7,0.7-1.2,0.9
		s-1,0.3-1.5,0.3c-0.9,0-1.5-0.2-2-0.7c-0.5-0.5-0.8-1.1-0.8-1.9c0-0.9,0.3-1.6,1-2c0.7-0.5,1.7-0.7,3-0.7h1.2v-0.5
		c0-0.5-0.2-0.9-0.5-1.2c-0.3-0.2-0.8-0.4-1.4-0.4c-0.3,0-0.6,0-1,0.1c-0.4,0.1-0.8,0.2-1.2,0.3l-0.4-1.3c1-0.4,2-0.6,3-0.6
		c1.1,0,2,0.2,2.5,0.7c0.6,0.5,0.8,1.2,0.8,2.1v3.8C338.7,308.3,338.7,308.5,338.8,308.6z M336.1,308.6c0.3-0.2,0.6-0.5,0.8-0.8
		v-1.9h-1c-0.8,0-1.4,0.1-1.8,0.4c-0.4,0.3-0.6,0.7-0.6,1.2c0,0.4,0.1,0.8,0.4,1c0.2,0.2,0.6,0.4,1.1,0.4
		C335.4,308.9,335.7,308.8,336.1,308.6z"/>
	<path class="st4" d="M348.9,301.9c0.3,0.4,0.4,1,0.4,1.9v6.3h-1.6v-6c0-0.5,0-0.8-0.1-1c-0.1-0.2-0.2-0.3-0.5-0.3
		c-0.4,0-0.9,0.3-1.2,0.8v6.4h-1.5v-6c0-0.5,0-0.8-0.1-1s-0.2-0.3-0.5-0.3c-0.4,0-0.9,0.3-1.2,0.8v6.4h-1.6v-8.4h1.3l0.1,0.9
		c0.3-0.4,0.5-0.7,0.8-0.8c0.3-0.2,0.6-0.3,1-0.3c0.7,0,1.2,0.4,1.4,1.1c0.3-0.3,0.5-0.6,0.8-0.8c0.3-0.2,0.6-0.3,1-0.3
		C348.2,301.3,348.6,301.5,348.9,301.9z"/>
	<path class="st4" d="M358.6,305.8c0,1.3-0.3,2.4-0.8,3.2c-0.6,0.8-1.4,1.2-2.4,1.2c-0.9,0-1.6-0.3-2.1-0.9v4l-1.8,0.2v-11.9h1.6
		l0.1,1.1c0.3-0.4,0.7-0.8,1.1-1c0.4-0.2,0.9-0.3,1.4-0.3C357.6,301.3,358.6,302.8,358.6,305.8z M354,303c-0.3,0.2-0.6,0.5-0.8,0.9
		v4c0.4,0.6,1,0.9,1.7,0.9c0.6,0,1.1-0.2,1.4-0.7c0.3-0.5,0.5-1.3,0.5-2.3c0-1.1-0.1-1.9-0.4-2.3c-0.3-0.5-0.7-0.7-1.3-0.7
		C354.7,302.7,354.3,302.8,354,303z"/>
	<path class="st4" d="M364.7,307.7c0,0.7,0.4,1.1,1.3,1.1c0.4,0,0.9-0.1,1.3-0.3l0.4,1.2c-0.6,0.3-1.3,0.5-2.2,0.5
		c-0.8,0-1.5-0.2-2-0.7c-0.5-0.5-0.7-1.1-0.7-2v-8.1h-2.5v-1.3h4.3V307.7z"/>
	<path class="st4" d="M372.8,308.2c0.4,0.4,1,0.6,1.6,0.6c0.4,0,0.8-0.1,1.1-0.2c0.4-0.1,0.7-0.3,1.1-0.6l0.8,1.1
		c-0.4,0.3-0.9,0.6-1.4,0.8c-0.5,0.2-1.1,0.3-1.7,0.3c-1.3,0-2.3-0.4-3-1.2c-0.7-0.8-1.1-1.9-1.1-3.2c0-0.8,0.2-1.6,0.5-2.3
		c0.3-0.7,0.8-1.2,1.3-1.6c0.6-0.4,1.3-0.6,2-0.6c1.1,0,2,0.4,2.7,1.1c0.7,0.8,1,1.8,1,3.1c0,0.3,0,0.6,0,0.8h-5.6
		C372.2,307.2,372.4,307.8,372.8,308.2z M372.7,303.3c-0.4,0.4-0.6,1-0.6,1.9h3.9c0-0.8-0.2-1.4-0.5-1.8c-0.3-0.4-0.8-0.6-1.4-0.6
		C373.6,302.7,373.1,302.9,372.7,303.3z"/>
</g>
<path class="st5" d="M625,350h-90c-2.8,0-5-2.2-5-5v-40c0-2.8,2.2-5,5-5h90c2.8,0,5,2.2,5,5v40C630,347.8,627.8,350,625,350z"/>
<g class="st3">
	<path class="st4" d="M557.8,315h-3.6v5h-1.9v-11h1.9v4.5h3.6V309h1.9v11h-1.9V315z"/>
	<path class="st4" d="M564.4,318.2c0.4,0.4,1,0.6,1.6,0.6c0.4,0,0.8-0.1,1.1-0.2c0.4-0.1,0.7-0.3,1.1-0.6l0.8,1.1
		c-0.4,0.3-0.9,0.6-1.4,0.8c-0.5,0.2-1.1,0.3-1.7,0.3c-1.3,0-2.3-0.4-3-1.2s-1.1-1.9-1.1-3.2c0-0.8,0.2-1.6,0.5-2.3
		c0.3-0.7,0.8-1.2,1.3-1.6c0.6-0.4,1.3-0.6,2-0.6c1.1,0,2,0.4,2.7,1.1c0.7,0.8,1,1.8,1,3.1c0,0.3,0,0.6,0,0.8h-5.6
		C563.8,317.2,564,317.8,564.4,318.2z M564.3,313.3c-0.4,0.4-0.6,1-0.6,1.9h3.9c0-0.8-0.2-1.4-0.5-1.8s-0.8-0.6-1.4-0.6
		C565.2,312.7,564.7,312.9,564.3,313.3z"/>
	<path class="st4" d="M575.5,317.7c0,0.7,0.4,1.1,1.3,1.1c0.4,0,0.9-0.1,1.3-0.3l0.4,1.2c-0.6,0.3-1.3,0.5-2.2,0.5
		c-0.8,0-1.5-0.2-2-0.7c-0.5-0.5-0.7-1.1-0.7-2v-8.1h-2.5v-1.3h4.3V317.7z"/>
	<path class="st4" d="M585.1,317.7c0,0.7,0.4,1.1,1.3,1.1c0.4,0,0.9-0.1,1.3-0.3l0.4,1.2c-0.6,0.3-1.3,0.5-2.2,0.5
		c-0.8,0-1.5-0.2-2-0.7c-0.5-0.5-0.7-1.1-0.7-2v-8.1h-2.5v-1.3h4.3V317.7z"/>
	<path class="st4" d="M597.2,312.5c0.7,0.8,1,1.9,1,3.2c0,1.4-0.3,2.4-1,3.2c-0.7,0.8-1.6,1.2-2.8,1.2c-1.2,0-2.2-0.4-2.8-1.2
		c-0.7-0.8-1-1.9-1-3.3c0-1.3,0.3-2.4,1-3.2s1.6-1.2,2.8-1.2C595.6,311.3,596.6,311.7,597.2,312.5z M593,313.5
		c-0.3,0.5-0.5,1.3-0.5,2.3c0,1,0.2,1.8,0.5,2.3s0.8,0.7,1.5,0.7c0.7,0,1.1-0.3,1.5-0.8s0.5-1.3,0.5-2.3c0-1-0.2-1.8-0.5-2.3
		s-0.8-0.7-1.4-0.7C593.8,312.7,593.3,313,593,313.5z"/>
	<path class="st4" d="M605,317.5c0.3,0.3,0.4,0.6,0.4,1c0,0.2,0,0.5-0.1,0.7c-0.1,0.2-0.2,0.5-0.4,0.9l-1.2,2.8h-1.4l0.8-3.2
		c-0.2-0.1-0.3-0.3-0.4-0.5c-0.1-0.2-0.2-0.4-0.2-0.7c0-0.4,0.1-0.7,0.4-1c0.3-0.3,0.6-0.4,1-0.4C604.4,317.1,604.8,317.3,605,317.5
		z"/>
</g>
<g class="st3">
	<path class="st4" d="M557,339.2l-1-6l-1,6h-2.2l-1.4-8.4h1.7l0.9,7.3l1.2-6.3h1.8l1.1,6.3l0.9-7.3h1.7l-1.4,8.4H557z"/>
	<path class="st4" d="M568.4,331.7c0.7,0.8,1,1.9,1,3.2c0,1.4-0.3,2.4-1,3.2s-1.6,1.2-2.8,1.2c-1.2,0-2.2-0.4-2.8-1.2
		c-0.7-0.8-1-1.9-1-3.3c0-1.3,0.3-2.4,1-3.2c0.7-0.8,1.6-1.2,2.8-1.2C566.8,330.5,567.8,330.9,568.4,331.7z M564.2,332.7
		c-0.3,0.5-0.5,1.3-0.5,2.3c0,1,0.2,1.8,0.5,2.3c0.3,0.5,0.8,0.7,1.5,0.7s1.1-0.3,1.5-0.8c0.3-0.5,0.5-1.3,0.5-2.3
		c0-1-0.2-1.8-0.5-2.3c-0.3-0.5-0.8-0.7-1.4-0.7C565,331.9,564.5,332.2,564.2,332.7z"/>
	<path class="st4" d="M579.1,330.8l-0.3,3.1h-1.3v-1.7c-0.6,0-1.1,0.2-1.5,0.7c-0.4,0.5-0.8,1.1-1,1.9v3.1h1.7v1.3h-4.7v-1.3h1.2
		V332h-1.2v-1.3h2.6l0.3,2c0.3-0.7,0.7-1.3,1.2-1.6c0.5-0.4,1.1-0.5,1.8-0.5C578.2,330.5,578.7,330.6,579.1,330.8z"/>
	<path class="st4" d="M585.1,336.9c0,0.7,0.4,1.1,1.3,1.1c0.4,0,0.9-0.1,1.3-0.3l0.4,1.2c-0.6,0.3-1.3,0.5-2.2,0.5
		c-0.8,0-1.5-0.2-2-0.7c-0.5-0.5-0.7-1.1-0.7-2v-8.1h-2.5v-1.3h4.3V336.9z"/>
	<path class="st4" d="M597.8,327.4v11.8h-1.6l-0.1-1c-0.3,0.4-0.6,0.7-1,0.9c-0.4,0.2-0.9,0.3-1.3,0.3c-1.1,0-1.9-0.4-2.4-1.2
		c-0.5-0.8-0.8-1.9-0.8-3.2c0-0.9,0.1-1.6,0.4-2.3c0.3-0.7,0.7-1.2,1.2-1.6c0.5-0.4,1.1-0.6,1.8-0.6c0.9,0,1.6,0.3,2.1,0.9v-4.3
		L597.8,327.4z M592.9,332.7c-0.3,0.5-0.5,1.3-0.5,2.3c0,2,0.6,3.1,1.8,3.1c0.7,0,1.3-0.4,1.8-1.2v-4c-0.4-0.6-1-0.9-1.7-0.9
		C593.7,331.9,593.2,332.2,592.9,332.7z"/>
	<path class="st4" d="M604.9,337.3c0.2,0.2,0.3,0.5,0.3,0.8c0,0.3-0.1,0.6-0.3,0.9c-0.2,0.2-0.5,0.4-0.9,0.4c-0.3,0-0.6-0.1-0.9-0.4
		c-0.2-0.2-0.3-0.5-0.3-0.9c0-0.3,0.1-0.6,0.4-0.8c0.2-0.2,0.5-0.4,0.8-0.4C604.3,337,604.6,337.1,604.9,337.3z M604.8,335.4h-1.5
		l-0.2-7.2h2L604.8,335.4z"/>
</g>
</svg>
