<?xml version="1.0" encoding="utf-8"?>
<!-- Generator: Adobe Illustrator 21.1.0, SVG Export Plug-In . SVG Version: 6.00 Build 0)  -->
<svg version="1.1" id="Слой_1" xmlns="http://www.w3.org/2000/svg" xmlns:xlink="http://www.w3.org/1999/xlink" x="0px" y="0px"
	 viewBox="0 0 800 480" style="enable-background:new 0 0 800 480;" xml:space="preserve">
<style type="text/css">
	.st0{fill:#FFE12E;}
	.st1{fill:#72008B;}
	.st2{fill:#FFFFFF;}
</style>
<rect class="st0" width="400" height="480"/>
<rect x="400" class="st1" width="400" height="480"/>
<g>
	<path d="M158.8,67.7V33.5h9.4c3.6,0,6.6,1.4,8.9,4.1s3.4,6.3,3.4,10.5V53c0,4.3-1.1,7.8-3.4,10.5s-5.2,4.1-8.9,4.1H158.8z
		 M163.6,37.2v26.9h4.5c2.4,0,4.3-1,5.7-3.1c1.4-2.1,2.1-4.7,2.1-8v-4.9c0-3.2-0.7-5.9-2.1-7.9c-1.4-2-3.3-3.1-5.7-3.1H163.6z"/>
	<path d="M207.6,55.3c0,4-1,7.2-3.1,9.5s-4.9,3.4-8.4,3.4c-3.5,0-6.2-1.1-8.3-3.4s-3.1-5.4-3.1-9.5v-9.4c0-4,1-7.2,3.1-9.5
		s4.8-3.4,8.3-3.4c3.5,0,6.3,1.1,8.4,3.4s3.2,5.4,3.2,9.5V55.3z M202.8,45.9c0-3-0.6-5.2-1.8-6.8s-2.9-2.3-5-2.3
		c-2.1,0-3.8,0.8-4.9,2.3s-1.7,3.8-1.7,6.8v9.4c0,3,0.6,5.3,1.7,6.8s2.8,2.3,4.9,2.3c2.2,0,3.9-0.8,5.1-2.3s1.8-3.8,1.8-6.8V45.9z"
		/>
	<path d="M219,33.5l8,27.8h0.1l8-27.8h6.1v34.1h-4.7V54.6l0.4-13.1l-0.1,0l-8.2,26.3h-3.1l-8.2-26.2l-0.1,0l0.4,13.1v13.1h-4.7V33.5
		H219z"/>
</g>
<g>
	<path class="st2" d="M496.6,52.9v14.7h-4.8V33.6h10.6c3.2,0,5.7,0.8,7.5,2.5s2.6,4.1,2.6,7.2c0,1.8-0.4,3.3-1.2,4.7s-2,2.4-3.6,3.1
		c1.7,0.6,2.9,1.6,3.7,2.9s1.1,3.1,1.1,5.1v3c0,1,0.1,2,0.3,2.9s0.6,1.6,1.1,2.1v0.5h-4.9c-0.5-0.5-0.9-1.3-1-2.3
		c-0.1-1-0.2-2.1-0.2-3.3v-2.9c0-1.9-0.4-3.4-1.3-4.5c-0.9-1.1-2.1-1.7-3.6-1.7H496.6z M496.6,49.3h5.6c1.9,0,3.3-0.5,4.3-1.6
		s1.4-2.5,1.4-4.4c0-2-0.4-3.5-1.3-4.6c-0.9-1.1-2.2-1.6-4.1-1.6h-5.9V49.3z"/>
	<path class="st2" d="M527.7,68.2c-3,0-5.4-1-7.2-3.1s-2.7-4.8-2.7-8v-3.7c0-3.3,0.9-6,2.7-8.2s4-3.2,6.8-3.2c2.9,0,5.1,1,6.6,2.9
		s2.3,4.6,2.3,7.9V56h-13.6v1c0,2.2,0.5,4,1.4,5.4s2.3,2.1,4.1,2.1c1.3,0,2.4-0.2,3.4-0.6s1.8-1,2.7-1.8l1.5,3
		c-0.8,0.9-1.9,1.6-3.2,2.2S529.4,68.2,527.7,68.2z M527.2,45.4c-1.4,0-2.5,0.7-3.3,2s-1.3,3-1.4,5.1h8.9v-1c0-1.8-0.4-3.3-1.1-4.4
		C529.6,46,528.5,45.4,527.2,45.4z"/>
	<path class="st2" d="M544.6,42.3l0.3,3.8c0.7-1.3,1.6-2.4,2.7-3.1s2.3-1.1,3.7-1.1c2.2,0,3.9,0.8,5.2,2.5s1.9,4.2,1.9,7.6v15.7
		h-4.8V52c0-2.4-0.3-4-1-5s-1.7-1.5-3-1.5c-1,0-1.8,0.3-2.6,0.9s-1.4,1.4-1.8,2.4v18.8h-4.8V42.3H544.6z"/>
	<path class="st2" d="M562.8,55.3c0-4,0.7-7.3,2.2-9.8s3.5-3.7,6.2-3.7c1.2,0,2.2,0.3,3.2,0.8s1.7,1.3,2.4,2.3V31.1h4.7v36.6h-4.1
		l-0.4-2.9c-0.7,1.1-1.5,2-2.5,2.5s-2.1,0.9-3.4,0.9c-2.6,0-4.7-1.1-6.2-3.4s-2.2-5.3-2.2-9V55.3z M567.5,55.8
		c0,2.7,0.4,4.8,1.1,6.4s2,2.3,3.6,2.3c1,0,1.9-0.3,2.6-0.8s1.3-1.4,1.8-2.4V48.9c-0.5-1-1-1.9-1.8-2.5s-1.6-0.9-2.6-0.9
		c-1.7,0-2.9,0.9-3.7,2.7s-1.2,4.1-1.2,7.1V55.8z"/>
	<path class="st2" d="M596.1,68.2c-3,0-5.4-1-7.2-3.1s-2.7-4.8-2.7-8v-3.7c0-3.3,0.9-6,2.7-8.2s4-3.2,6.8-3.2c2.9,0,5.1,1,6.6,2.9
		s2.3,4.6,2.3,7.9V56h-13.6v1c0,2.2,0.5,4,1.4,5.4s2.3,2.1,4.1,2.1c1.3,0,2.4-0.2,3.4-0.6s1.8-1,2.7-1.8l1.5,3
		c-0.8,0.9-1.9,1.6-3.2,2.2S597.9,68.2,596.1,68.2z M595.6,45.4c-1.4,0-2.5,0.7-3.3,2s-1.3,3-1.4,5.1h8.9v-1c0-1.8-0.4-3.3-1.1-4.4
		C598,46,597,45.4,595.6,45.4z"/>
	<path class="st2" d="M619.7,46.3l-2.2-0.1c-1,0-1.8,0.3-2.4,0.9s-1.1,1.4-1.5,2.5v18.1h-4.8V42.3h4.3l0.4,3.8
		c0.5-1.3,1.2-2.4,2.1-3.2s1.9-1.1,3-1.1c0.3,0,0.6,0,1,0.1s0.6,0.1,0.8,0.2L619.7,46.3z"/>
	<path class="st2" d="M654.4,37.2h-8.8v30.5h-4.8V37.2h-8.7v-3.6h22.2V37.2z"/>
	<path class="st2" d="M667.1,46.3l-2.2-0.1c-1,0-1.8,0.3-2.4,0.9s-1.1,1.4-1.5,2.5v18.1h-4.8V42.3h4.3l0.4,3.8
		c0.5-1.3,1.2-2.4,2.1-3.2s1.9-1.1,3-1.1c0.3,0,0.6,0,1,0.1s0.6,0.1,0.8,0.2L667.1,46.3z"/>
	<path class="st2" d="M679.7,68.2c-3,0-5.4-1-7.2-3.1s-2.7-4.8-2.7-8v-3.7c0-3.3,0.9-6,2.7-8.2s4-3.2,6.8-3.2c2.9,0,5.1,1,6.6,2.9
		s2.3,4.6,2.3,7.9V56h-13.6v1c0,2.2,0.5,4,1.4,5.4s2.3,2.1,4.1,2.1c1.3,0,2.4-0.2,3.4-0.6s1.8-1,2.7-1.8l1.5,3
		c-0.8,0.9-1.9,1.6-3.2,2.2S681.5,68.2,679.7,68.2z M679.2,45.4c-1.4,0-2.5,0.7-3.3,2s-1.3,3-1.4,5.1h8.9v-1c0-1.8-0.4-3.3-1.1-4.4
		C681.6,46,680.6,45.4,679.2,45.4z"/>
	<path class="st2" d="M701.5,68.2c-3,0-5.4-1-7.2-3.1s-2.7-4.8-2.7-8v-3.7c0-3.3,0.9-6,2.7-8.2s4-3.2,6.8-3.2c2.9,0,5.1,1,6.6,2.9
		s2.3,4.6,2.3,7.9V56h-13.6v1c0,2.2,0.5,4,1.4,5.4s2.3,2.1,4.1,2.1c1.3,0,2.4-0.2,3.4-0.6s1.8-1,2.7-1.8l1.5,3
		c-0.8,0.9-1.9,1.6-3.2,2.2S703.3,68.2,701.5,68.2z M701,45.4c-1.4,0-2.5,0.7-3.3,2s-1.3,3-1.4,5.1h8.9v-1c0-1.8-0.4-3.3-1.1-4.4
		C703.4,46,702.4,45.4,701,45.4z"/>
</g>
<g>
	<path class="st2" d="M444,101.6c1.2,0,2.1,0.4,2.7,1.3c0.6,0.9,0.9,2.1,0.9,3.6c0,1.5-0.3,2.7-1,3.6c-0.7,0.9-1.6,1.4-2.8,1.4
		c-1.1,0-2-0.4-2.6-1.2l-0.1,1h-1.3V98l1.5-0.2v5.2C442,102.1,443,101.6,444,101.6z M445.3,109.4c0.4-0.6,0.6-1.6,0.6-2.8
		c0-1.2-0.2-2.1-0.6-2.8s-0.9-0.9-1.7-0.9c-0.5,0-0.9,0.1-1.3,0.4c-0.4,0.3-0.8,0.6-1.1,1.1v4.7c0.3,0.4,0.6,0.7,0.9,0.9
		c0.4,0.2,0.8,0.3,1.2,0.3C444.3,110.3,444.9,110,445.3,109.4z"/>
	<path class="st2" d="M457.2,103c0.7,0.9,1.1,2.1,1.1,3.6c0,1.5-0.4,2.7-1.1,3.6c-0.7,0.9-1.7,1.4-3,1.4c-1.3,0-2.3-0.4-3-1.3
		s-1.1-2.1-1.1-3.6c0-1.5,0.4-2.7,1.1-3.6s1.7-1.4,3-1.4S456.5,102.1,457.2,103z M452.4,103.8c-0.4,0.6-0.6,1.5-0.6,2.8
		s0.2,2.2,0.6,2.8c0.4,0.6,1,0.9,1.8,0.9s1.4-0.3,1.8-0.9c0.4-0.6,0.6-1.5,0.6-2.8c0-1.2-0.2-2.2-0.6-2.8c-0.4-0.6-1-0.9-1.8-0.9
		C453.4,102.9,452.8,103.2,452.4,103.8z"/>
	<path class="st2" d="M468.6,98v13.3h-1.3l-0.1-1.2c-0.3,0.5-0.8,0.8-1.2,1.1c-0.5,0.2-0.9,0.4-1.5,0.4c-1.2,0-2.1-0.4-2.7-1.3
		c-0.6-0.9-0.9-2.1-0.9-3.6c0-0.9,0.1-1.8,0.4-2.5s0.7-1.3,1.3-1.8c0.6-0.4,1.2-0.6,2-0.6c1,0,1.9,0.4,2.6,1.1v-4.9L468.6,98z
		 M463.1,103.8c-0.4,0.6-0.6,1.6-0.6,2.8c0,1.2,0.2,2.2,0.6,2.8s1,0.9,1.7,0.9c0.9,0,1.7-0.5,2.3-1.5v-4.7c-0.3-0.4-0.6-0.7-1-0.9
		s-0.8-0.3-1.2-0.3C464.1,102.9,463.5,103.2,463.1,103.8z"/>
	<path class="st2" d="M476.8,111.4c-0.4,1.1-0.9,2-1.5,2.6c-0.6,0.6-1.6,1-2.7,1.2l-0.2-1.2c0.6-0.1,1.1-0.3,1.5-0.5
		c0.4-0.2,0.7-0.5,0.9-0.8c0.2-0.3,0.4-0.8,0.6-1.3h-0.5l-3.3-9.5h1.6l2.7,8.3l2.7-8.3h1.6L476.8,111.4z"/>
	<path class="st2" d="M462.9,124.8c0.4-0.5,0.8-0.9,1.4-1.1c0.5-0.3,1.1-0.4,1.7-0.4c1.8,0,2.7,0.9,2.7,2.8v6.9h-1.5v-6.9
		c0-0.6-0.1-1-0.4-1.2c-0.3-0.3-0.7-0.4-1.3-0.4c-0.5,0-1,0.2-1.4,0.5c-0.5,0.3-0.8,0.7-1.1,1.1v6.9h-1.5v-13.3l1.5-0.2V124.8z"/>
	<path class="st2" d="M474.2,131.1c0.5,0.5,1.2,0.8,1.9,0.8c0.5,0,0.9-0.1,1.3-0.2c0.4-0.1,0.8-0.4,1.3-0.6l0.7,1
		c-0.4,0.3-1,0.6-1.5,0.8c-0.6,0.2-1.1,0.3-1.7,0.3c-1.4,0-2.4-0.4-3.2-1.3c-0.8-0.9-1.1-2.1-1.1-3.6c0-0.9,0.2-1.8,0.5-2.5
		s0.8-1.3,1.4-1.8s1.3-0.6,2.2-0.6c1.2,0,2.1,0.4,2.8,1.3c0.7,0.8,1,2,1,3.4c0,0.3,0,0.5,0,0.8h-6.4
		C473.4,129.8,473.7,130.6,474.2,131.1z M474.2,125.3c-0.5,0.5-0.7,1.3-0.8,2.3h4.9c0-1-0.2-1.8-0.6-2.3c-0.4-0.5-1-0.8-1.7-0.8
		C475.2,124.5,474.6,124.8,474.2,125.3z"/>
	<path class="st2" d="M490,131.7c0.1,0.2,0.3,0.3,0.6,0.4l-0.4,1.1c-0.9-0.1-1.5-0.6-1.7-1.3c-0.3,0.4-0.8,0.8-1.3,1
		c-0.5,0.2-1.1,0.3-1.7,0.3c-0.9,0-1.7-0.3-2.2-0.8c-0.5-0.5-0.8-1.2-0.8-2.1c0-1,0.4-1.7,1.1-2.3c0.8-0.5,1.9-0.8,3.3-0.8h1.4v-0.8
		c0-0.7-0.2-1.2-0.6-1.4s-0.9-0.4-1.7-0.4c-0.7,0-1.5,0.2-2.5,0.5l-0.4-1.2c1.1-0.4,2.2-0.6,3.1-0.6c1.2,0,2,0.3,2.6,0.8
		c0.6,0.5,0.9,1.3,0.9,2.3v4.6C489.8,131.2,489.9,131.5,490,131.7z M487.2,131.6c0.4-0.2,0.8-0.6,1.1-1v-2.4h-1.4
		c-1,0-1.7,0.2-2.2,0.5c-0.4,0.3-0.7,0.8-0.7,1.5c0,1.2,0.6,1.8,1.8,1.8C486.3,132,486.8,131.9,487.2,131.6z"/>
	<path class="st2" d="M501,119.6v13.3h-1.3l-0.1-1.2c-0.3,0.5-0.8,0.8-1.2,1.1c-0.5,0.2-0.9,0.4-1.5,0.4c-1.2,0-2.1-0.4-2.7-1.3
		c-0.6-0.9-0.9-2.1-0.9-3.6c0-0.9,0.1-1.8,0.4-2.5s0.7-1.3,1.3-1.8c0.6-0.4,1.2-0.6,2-0.6c1,0,1.9,0.4,2.6,1.1v-4.9L501,119.6z
		 M495.5,125.4c-0.4,0.6-0.6,1.6-0.6,2.8c0,1.2,0.2,2.2,0.6,2.8s1,0.9,1.7,0.9c0.9,0,1.7-0.5,2.3-1.5v-4.7c-0.3-0.4-0.6-0.7-1-0.9
		s-0.8-0.3-1.2-0.3C496.5,124.5,495.9,124.8,495.5,125.4z"/>
	<path class="st2" d="M506.6,131.1c0.5,0.5,1.2,0.8,1.9,0.8c0.5,0,0.9-0.1,1.3-0.2c0.4-0.1,0.8-0.4,1.3-0.6l0.7,1
		c-0.4,0.3-1,0.6-1.5,0.8c-0.6,0.2-1.1,0.3-1.7,0.3c-1.4,0-2.4-0.4-3.2-1.3c-0.8-0.9-1.1-2.1-1.1-3.6c0-0.9,0.2-1.8,0.5-2.5
		s0.8-1.3,1.4-1.8s1.3-0.6,2.2-0.6c1.2,0,2.1,0.4,2.8,1.3c0.7,0.8,1,2,1,3.4c0,0.3,0,0.5,0,0.8h-6.4
		C505.8,129.8,506.1,130.6,506.6,131.1z M506.6,125.3c-0.5,0.5-0.7,1.3-0.8,2.3h4.9c0-1-0.2-1.8-0.6-2.3c-0.4-0.5-1-0.8-1.7-0.8
		C507.6,124.5,507,124.8,506.6,125.3z"/>
	<path class="st2" d="M523.1,123.4l-0.2,3.2h-1.2v-2h-0.1c-1.5,0-2.5,1-3.1,3.1v4h1.9v1.2h-4.9v-1.2h1.5v-7.1h-1.5v-1.2h2.6l0.3,2.3
		c0.4-0.8,0.8-1.4,1.4-1.8c0.5-0.4,1.2-0.6,2-0.6C522.2,123.2,522.6,123.3,523.1,123.4z"/>
	<path class="st2" d="M466.4,153.1c0.4-0.3,0.6-0.6,0.6-1.1c0-0.3-0.1-0.6-0.2-0.8c-0.1-0.2-0.3-0.4-0.6-0.5
		c-0.3-0.2-0.8-0.3-1.5-0.5c-1.1-0.3-1.9-0.6-2.4-1c-0.5-0.4-0.8-1-0.8-1.7c0-0.8,0.3-1.4,1-1.9c0.7-0.5,1.5-0.7,2.6-0.7
		c1.3,0,2.5,0.3,3.5,1l-0.7,1c-0.4-0.3-0.8-0.5-1.2-0.6c-0.4-0.1-0.9-0.2-1.5-0.2c-1.4,0-2.1,0.4-2.1,1.2c0,0.3,0.1,0.5,0.2,0.7
		c0.2,0.2,0.4,0.3,0.7,0.5c0.3,0.1,0.9,0.3,1.5,0.5c1,0.3,1.8,0.6,2.3,1.1c0.5,0.4,0.8,1,0.8,1.9c0,0.9-0.4,1.7-1.2,2.1
		c-0.8,0.5-1.7,0.7-2.8,0.7c-1.5,0-2.7-0.4-3.7-1.3l0.8-1c0.4,0.3,0.8,0.6,1.3,0.7c0.5,0.2,1,0.3,1.5,0.3
		C465.4,153.5,465.9,153.4,466.4,153.1z"/>
	<path class="st2" d="M474.2,152.7c0.5,0.5,1.2,0.8,1.9,0.8c0.5,0,0.9-0.1,1.3-0.2c0.4-0.1,0.8-0.4,1.3-0.6l0.7,1
		c-0.4,0.3-1,0.6-1.5,0.8c-0.6,0.2-1.1,0.3-1.7,0.3c-1.4,0-2.4-0.4-3.2-1.3c-0.8-0.9-1.1-2.1-1.1-3.6c0-0.9,0.2-1.8,0.5-2.5
		s0.8-1.3,1.4-1.8s1.3-0.6,2.2-0.6c1.2,0,2.1,0.4,2.8,1.3c0.7,0.8,1,2,1,3.4c0,0.3,0,0.5,0,0.8h-6.4
		C473.4,151.4,473.7,152.2,474.2,152.7z M474.2,146.9c-0.5,0.5-0.7,1.3-0.8,2.3h4.9c0-1-0.2-1.8-0.6-2.3c-0.4-0.5-1-0.8-1.7-0.8
		C475.2,146.1,474.6,146.4,474.2,146.9z"/>
	<path class="st2" d="M489.8,152.6l0.7,1c-0.4,0.3-0.9,0.6-1.5,0.8c-0.6,0.2-1.2,0.3-1.7,0.3c-1.4,0-2.5-0.4-3.3-1.3
		s-1.2-2.1-1.2-3.6c0-0.9,0.2-1.8,0.5-2.6c0.4-0.8,0.9-1.4,1.5-1.8c0.7-0.4,1.5-0.6,2.4-0.6c1.2,0,2.3,0.4,3.2,1.1l-0.7,1
		c-0.8-0.6-1.6-0.8-2.4-0.8c-0.9,0-1.5,0.3-2,0.9s-0.8,1.6-0.8,2.8c0,1.2,0.3,2.1,0.8,2.7c0.5,0.6,1.2,0.9,2.1,0.9
		C488.1,153.4,489,153.2,489.8,152.6z"/>
	<path class="st2" d="M500.2,154.6c-0.5,0.1-0.9,0.2-1.4,0.2c-1,0-1.8-0.3-2.3-0.8c-0.6-0.5-0.8-1.2-0.8-2.1v-5.7h-2.2V145h2.2v-2.1
		l1.5-0.2v2.3h3.3l-0.2,1.2h-3.1v5.6c0,0.5,0.1,0.9,0.4,1.2c0.3,0.3,0.8,0.4,1.4,0.4c0.6,0,1.3-0.1,1.8-0.5l0.6,1
		C501,154.3,500.6,154.4,500.2,154.6z"/>
	<path class="st2" d="M509.4,153.3h2.7v1.2H505v-1.2h2.9v-7.1h-2.8V145h4.3V153.3z M509,140.9c0.2,0.2,0.3,0.5,0.3,0.8
		s-0.1,0.6-0.3,0.8c-0.2,0.2-0.5,0.3-0.8,0.3c-0.3,0-0.6-0.1-0.8-0.3c-0.2-0.2-0.3-0.5-0.3-0.8s0.1-0.6,0.3-0.8
		c0.2-0.2,0.5-0.3,0.8-0.3C508.5,140.6,508.8,140.7,509,140.9z"/>
	<path class="st2" d="M522,146.2c0.7,0.9,1.1,2.1,1.1,3.6c0,1.5-0.4,2.7-1.1,3.6c-0.7,0.9-1.7,1.4-3,1.4c-1.3,0-2.3-0.4-3-1.3
		s-1.1-2.1-1.1-3.6c0-1.5,0.4-2.7,1.1-3.6s1.7-1.4,3-1.4S521.3,145.3,522,146.2z M517.2,147c-0.4,0.6-0.6,1.5-0.6,2.8
		s0.2,2.2,0.6,2.8c0.4,0.6,1,0.9,1.8,0.9s1.4-0.3,1.8-0.9c0.4-0.6,0.6-1.5,0.6-2.8c0-1.2-0.2-2.2-0.6-2.8c-0.4-0.6-1-0.9-1.8-0.9
		C518.2,146.1,517.6,146.4,517.2,147z"/>
	<path class="st2" d="M526.2,145h1.3l0.1,1.3c0.4-0.5,0.8-0.9,1.4-1.1c0.6-0.3,1.1-0.4,1.7-0.4c1.8,0,2.7,0.9,2.7,2.8v6.9h-1.5v-5.8
		c0-0.7,0-1.2-0.1-1.6s-0.2-0.6-0.5-0.8s-0.6-0.3-1-0.3c-0.5,0-1,0.2-1.5,0.5s-0.8,0.7-1.1,1.1v6.9h-1.5V145z"/>
	<path class="st2" d="M490,174.9c0.1,0.2,0.3,0.3,0.6,0.4l-0.4,1.1c-0.9-0.1-1.5-0.6-1.7-1.3c-0.3,0.4-0.8,0.8-1.3,1
		c-0.5,0.2-1.1,0.3-1.7,0.3c-0.9,0-1.7-0.3-2.2-0.8c-0.5-0.5-0.8-1.2-0.8-2.1c0-1,0.4-1.7,1.1-2.3c0.8-0.5,1.9-0.8,3.3-0.8h1.4v-0.8
		c0-0.7-0.2-1.2-0.6-1.4s-0.9-0.4-1.7-0.4c-0.7,0-1.5,0.2-2.5,0.5l-0.4-1.2c1.1-0.4,2.2-0.6,3.1-0.6c1.2,0,2,0.3,2.6,0.8
		c0.6,0.5,0.9,1.3,0.9,2.3v4.6C489.8,174.4,489.9,174.7,490,174.9z M487.2,174.8c0.4-0.2,0.8-0.6,1.1-1v-2.4h-1.4
		c-1,0-1.7,0.2-2.2,0.5c-0.4,0.3-0.7,0.8-0.7,1.5c0,1.2,0.6,1.8,1.8,1.8C486.3,175.2,486.8,175.1,487.2,174.8z"/>
	<path class="st2" d="M501.5,166.6l-0.2,3.2h-1.2v-2H500c-1.5,0-2.5,1-3.1,3.1v4h1.9v1.2h-4.9V175h1.5v-7.1h-1.5v-1.2h2.6l0.3,2.3
		c0.4-0.8,0.8-1.4,1.4-1.8c0.5-0.4,1.2-0.6,2-0.6C500.6,166.4,501,166.5,501.5,166.6z"/>
	<path class="st2" d="M511,176.2c-0.5,0.1-0.9,0.2-1.4,0.2c-1,0-1.8-0.3-2.3-0.8c-0.6-0.5-0.8-1.2-0.8-2.1v-5.7h-2.2v-1.2h2.2v-2.1
		l1.5-0.2v2.3h3.3l-0.2,1.2h-3.1v5.6c0,0.5,0.1,0.9,0.4,1.2c0.3,0.3,0.8,0.4,1.4,0.4c0.6,0,1.3-0.1,1.8-0.5l0.6,1
		C511.8,175.9,511.4,176,511,176.2z"/>
	<path class="st2" d="M520.2,174.9h2.7v1.2h-7.1v-1.2h2.9v-7.1h-2.8v-1.2h4.3V174.9z M519.8,162.5c0.2,0.2,0.3,0.5,0.3,0.8
		s-0.1,0.6-0.3,0.8c-0.2,0.2-0.5,0.3-0.8,0.3c-0.3,0-0.6-0.1-0.8-0.3c-0.2-0.2-0.3-0.5-0.3-0.8s0.1-0.6,0.3-0.8
		c0.2-0.2,0.5-0.3,0.8-0.3C519.3,162.2,519.6,162.3,519.8,162.5z"/>
	<path class="st2" d="M533,174.2l0.7,1c-0.4,0.3-0.9,0.6-1.5,0.8c-0.6,0.2-1.2,0.3-1.7,0.3c-1.4,0-2.5-0.4-3.3-1.3s-1.2-2.1-1.2-3.6
		c0-0.9,0.2-1.8,0.5-2.6c0.4-0.8,0.9-1.4,1.5-1.8c0.7-0.4,1.5-0.6,2.4-0.6c1.2,0,2.3,0.4,3.2,1.1l-0.7,1c-0.8-0.6-1.6-0.8-2.4-0.8
		c-0.9,0-1.5,0.3-2,0.9c-0.5,0.6-0.8,1.6-0.8,2.8c0,1.2,0.3,2.1,0.8,2.7c0.5,0.6,1.2,0.9,2.1,0.9C531.3,175,532.2,174.8,533,174.2z"
		/>
	<path class="st2" d="M540.7,173.8c0,0.9,0.5,1.3,1.6,1.3c0.5,0,1-0.1,1.6-0.3l0.4,1.1c-0.6,0.3-1.3,0.5-2.3,0.5
		c-0.9,0-1.5-0.2-2-0.7c-0.5-0.5-0.8-1.1-0.8-1.9V164h-2.9v-1.2h4.4V173.8z"/>
	<path class="st2" d="M549.8,174.3c0.5,0.5,1.2,0.8,1.9,0.8c0.5,0,0.9-0.1,1.3-0.2c0.4-0.1,0.8-0.4,1.3-0.6l0.7,1
		c-0.4,0.3-1,0.6-1.5,0.8s-1.1,0.3-1.7,0.3c-1.4,0-2.4-0.4-3.2-1.3c-0.8-0.9-1.1-2.1-1.1-3.6c0-0.9,0.2-1.8,0.5-2.5s0.8-1.3,1.4-1.8
		c0.6-0.4,1.3-0.6,2.2-0.6c1.2,0,2.1,0.4,2.8,1.3c0.7,0.8,1,2,1,3.4c0,0.3,0,0.5,0,0.8H549C549,173,549.3,173.8,549.8,174.3z
		 M549.8,168.5c-0.5,0.5-0.7,1.3-0.8,2.3h4.9c0-1-0.2-1.8-0.6-2.3c-0.4-0.5-1-0.8-1.7-0.8C550.8,167.7,550.2,168,549.8,168.5z"/>
	<path class="st2" d="M561.1,173.6c0.3-0.3,0.7-0.5,1.1-0.5c0.5,0,0.8,0.2,1.1,0.5c0.3,0.3,0.5,0.7,0.5,1.1c0,0.5-0.2,0.8-0.5,1.1
		s-0.7,0.5-1.1,0.5c-0.4,0-0.8-0.2-1.1-0.5c-0.3-0.3-0.5-0.7-0.5-1.1C560.6,174.3,560.8,173.9,561.1,173.6z"/>
	<path class="st2" d="M570.9,168c0.4-0.5,0.8-0.9,1.4-1.1c0.5-0.3,1.1-0.4,1.7-0.4c1.8,0,2.7,0.9,2.7,2.8v6.9h-1.5v-6.9
		c0-0.6-0.1-1-0.4-1.2c-0.3-0.3-0.7-0.4-1.3-0.4c-0.5,0-1,0.2-1.4,0.5s-0.8,0.7-1.1,1.1v6.9h-1.5v-13.3l1.5-0.2V168z"/>
	<path class="st2" d="M585,174.9h2.7v1.2h-7.1v-1.2h2.9v-7.1h-2.8v-1.2h4.3V174.9z M584.6,162.5c0.2,0.2,0.3,0.5,0.3,0.8
		s-0.1,0.6-0.3,0.8c-0.2,0.2-0.5,0.3-0.8,0.3c-0.3,0-0.6-0.1-0.8-0.3c-0.2-0.2-0.3-0.5-0.3-0.8s0.1-0.6,0.3-0.8
		c0.2-0.2,0.5-0.3,0.8-0.3C584.1,162.2,584.4,162.3,584.6,162.5z"/>
	<path class="st2" d="M598.2,162.8v13.3h-1.3l-0.1-1.2c-0.3,0.5-0.8,0.8-1.2,1.1c-0.5,0.2-0.9,0.4-1.5,0.4c-1.2,0-2.1-0.4-2.7-1.3
		c-0.6-0.9-0.9-2.1-0.9-3.6c0-0.9,0.2-1.8,0.5-2.5s0.7-1.3,1.3-1.8c0.6-0.4,1.2-0.6,2-0.6c1,0,1.9,0.4,2.6,1.1v-4.9L598.2,162.8z
		 M592.7,168.6c-0.4,0.6-0.6,1.6-0.6,2.8c0,1.2,0.2,2.2,0.6,2.8c0.4,0.6,1,0.9,1.7,0.9c0.9,0,1.7-0.5,2.3-1.5v-4.7
		c-0.3-0.4-0.6-0.7-1-0.9c-0.4-0.2-0.8-0.3-1.2-0.3C593.7,167.7,593.1,168,592.7,168.6z"/>
	<path class="st2" d="M609,162.8v13.3h-1.3l-0.1-1.2c-0.3,0.5-0.8,0.8-1.2,1.1c-0.5,0.2-0.9,0.4-1.5,0.4c-1.2,0-2.1-0.4-2.7-1.3
		c-0.6-0.9-0.9-2.1-0.9-3.6c0-0.9,0.2-1.8,0.5-2.5s0.7-1.3,1.3-1.8c0.6-0.4,1.2-0.6,2-0.6c1,0,1.9,0.4,2.6,1.1v-4.9L609,162.8z
		 M603.5,168.6c-0.4,0.6-0.6,1.6-0.6,2.8c0,1.2,0.2,2.2,0.6,2.8c0.4,0.6,1,0.9,1.7,0.9c0.9,0,1.7-0.5,2.3-1.5v-4.7
		c-0.3-0.4-0.6-0.7-1-0.9c-0.4-0.2-0.8-0.3-1.2-0.3C604.5,167.7,603.9,168,603.5,168.6z"/>
	<path class="st2" d="M614.6,174.3c0.5,0.5,1.2,0.8,1.9,0.8c0.5,0,0.9-0.1,1.3-0.2c0.4-0.1,0.8-0.4,1.3-0.6l0.7,1
		c-0.4,0.3-1,0.6-1.5,0.8s-1.1,0.3-1.7,0.3c-1.4,0-2.4-0.4-3.2-1.3c-0.8-0.9-1.1-2.1-1.1-3.6c0-0.9,0.2-1.8,0.5-2.5s0.8-1.3,1.4-1.8
		c0.6-0.4,1.3-0.6,2.2-0.6c1.2,0,2.1,0.4,2.8,1.3c0.7,0.8,1,2,1,3.4c0,0.3,0,0.5,0,0.8h-6.4C613.8,173,614.1,173.8,614.6,174.3z
		 M614.6,168.5c-0.5,0.5-0.7,1.3-0.8,2.3h4.9c0-1-0.2-1.8-0.6-2.3c-0.4-0.5-1-0.8-1.7-0.8C615.6,167.7,615,168,614.6,168.5z"/>
	<path class="st2" d="M623.4,166.6h1.3l0.1,1.3c0.4-0.5,0.8-0.9,1.4-1.1c0.6-0.3,1.1-0.4,1.7-0.4c1.8,0,2.7,0.9,2.7,2.8v6.9h-1.5
		v-5.8c0-0.7,0-1.2-0.1-1.6s-0.2-0.6-0.5-0.8s-0.6-0.3-1-0.3c-0.5,0-1,0.2-1.5,0.5s-0.8,0.7-1.1,1.1v6.9h-1.5V166.6z"/>
</g>
<g>
	<path d="M41.3,109.8c0.4-0.5,0.8-0.9,1.4-1.1c0.5-0.3,1.1-0.4,1.7-0.4c1.8,0,2.7,0.9,2.7,2.8v6.9h-1.5v-6.9c0-0.6-0.1-1-0.4-1.2
		c-0.3-0.3-0.7-0.4-1.3-0.4c-0.5,0-1,0.2-1.4,0.5c-0.5,0.3-0.8,0.7-1.1,1.1v6.9h-1.5v-13.3l1.5-0.2V109.8z"/>
	<path d="M52.6,116.1c0.5,0.5,1.2,0.8,1.9,0.8c0.5,0,0.9-0.1,1.3-0.2c0.4-0.1,0.8-0.4,1.3-0.6l0.7,1c-0.4,0.3-1,0.6-1.5,0.8
		c-0.6,0.2-1.1,0.3-1.7,0.3c-1.4,0-2.4-0.4-3.2-1.3c-0.8-0.9-1.1-2.1-1.1-3.6c0-0.9,0.2-1.8,0.5-2.5s0.8-1.3,1.4-1.8
		c0.6-0.4,1.3-0.6,2.2-0.6c1.2,0,2.1,0.4,2.8,1.3c0.7,0.8,1,2,1,3.4c0,0.3,0,0.5,0,0.8h-6.4C51.8,114.8,52.1,115.6,52.6,116.1z
		 M52.6,110.3c-0.5,0.5-0.7,1.3-0.8,2.3h4.9c0-1-0.2-1.8-0.6-2.3c-0.4-0.5-1-0.8-1.7-0.8S53,109.8,52.6,110.3z"/>
	<path d="M68.4,116.7c0.1,0.2,0.3,0.3,0.6,0.4l-0.4,1.1c-0.9-0.1-1.5-0.6-1.7-1.3c-0.3,0.4-0.8,0.8-1.3,1c-0.5,0.2-1.1,0.3-1.7,0.3
		c-0.9,0-1.7-0.3-2.2-0.8c-0.5-0.5-0.8-1.2-0.8-2.1c0-1,0.4-1.7,1.1-2.3c0.8-0.5,1.9-0.8,3.3-0.8h1.4v-0.8c0-0.7-0.2-1.2-0.6-1.4
		c-0.4-0.3-0.9-0.4-1.7-0.4c-0.7,0-1.5,0.2-2.5,0.5l-0.4-1.2c1.1-0.4,2.2-0.6,3.1-0.6c1.2,0,2,0.3,2.6,0.8s0.9,1.3,0.9,2.3v4.6
		C68.2,116.3,68.3,116.6,68.4,116.7z M65.6,116.7c0.4-0.2,0.8-0.6,1.1-1v-2.4h-1.4c-1,0-1.7,0.2-2.2,0.5s-0.7,0.8-0.7,1.5
		c0,1.2,0.6,1.8,1.8,1.8C64.8,117.1,65.2,116.9,65.6,116.7z"/>
	<path d="M79.4,104.7V118h-1.3l-0.1-1.2c-0.3,0.5-0.8,0.8-1.2,1.1c-0.5,0.2-0.9,0.4-1.5,0.4c-1.2,0-2.1-0.4-2.7-1.3
		c-0.6-0.9-0.9-2.1-0.9-3.6c0-0.9,0.1-1.8,0.4-2.5s0.7-1.3,1.3-1.8s1.2-0.6,2-0.6c1,0,1.9,0.4,2.6,1.1v-4.9L79.4,104.7z M73.9,110.5
		c-0.4,0.6-0.6,1.6-0.6,2.8c0,1.2,0.2,2.2,0.6,2.8c0.4,0.6,1,0.9,1.7,0.9c0.9,0,1.7-0.5,2.3-1.5v-4.7c-0.3-0.4-0.6-0.7-1-0.9
		c-0.4-0.2-0.8-0.3-1.2-0.3C74.9,109.5,74.3,109.9,73.9,110.5z"/>
	<path d="M44,129.9c1.2,0,2.1,0.4,2.7,1.3c0.6,0.9,0.9,2.1,0.9,3.6c0,1.5-0.3,2.7-1,3.6c-0.7,0.9-1.6,1.4-2.8,1.4
		c-1.1,0-2-0.4-2.6-1.2l-0.1,1h-1.3v-13.3l1.5-0.2v5.2C42,130.4,43,129.9,44,129.9z M45.3,137.6c0.4-0.6,0.6-1.6,0.6-2.8
		c0-1.2-0.2-2.1-0.6-2.8s-0.9-0.9-1.7-0.9c-0.5,0-0.9,0.1-1.3,0.4c-0.4,0.3-0.8,0.6-1.1,1.1v4.7c0.3,0.4,0.6,0.7,0.9,0.9
		c0.4,0.2,0.8,0.3,1.2,0.3C44.3,138.6,44.9,138.3,45.3,137.6z"/>
	<path d="M57.2,131.2c0.7,0.9,1.1,2.1,1.1,3.6c0,1.5-0.4,2.7-1.1,3.6c-0.7,0.9-1.7,1.4-3,1.4c-1.3,0-2.3-0.4-3-1.3s-1.1-2.1-1.1-3.6
		c0-1.5,0.4-2.7,1.1-3.6s1.7-1.4,3-1.4C55.5,129.9,56.5,130.4,57.2,131.2z M52.4,132.1c-0.4,0.6-0.6,1.5-0.6,2.8s0.2,2.2,0.6,2.8
		c0.4,0.6,1,0.9,1.8,0.9s1.4-0.3,1.8-0.9c0.4-0.6,0.6-1.5,0.6-2.8c0-1.2-0.2-2.2-0.6-2.8c-0.4-0.6-1-0.9-1.8-0.9
		C53.4,131.2,52.8,131.5,52.4,132.1z"/>
	<path d="M68.6,126.3v13.3h-1.3l-0.1-1.2c-0.3,0.5-0.8,0.8-1.2,1.1c-0.5,0.2-0.9,0.4-1.5,0.4c-1.2,0-2.1-0.4-2.7-1.3
		c-0.6-0.9-0.9-2.1-0.9-3.6c0-0.9,0.1-1.8,0.4-2.5s0.7-1.3,1.3-1.8s1.2-0.6,2-0.6c1,0,1.9,0.4,2.6,1.1v-4.9L68.6,126.3z M63.1,132.1
		c-0.4,0.6-0.6,1.6-0.6,2.8c0,1.2,0.2,2.2,0.6,2.8c0.4,0.6,1,0.9,1.7,0.9c0.9,0,1.7-0.5,2.3-1.5v-4.7c-0.3-0.4-0.6-0.7-1-0.9
		c-0.4-0.2-0.8-0.3-1.2-0.3C64.1,131.1,63.5,131.5,63.1,132.1z"/>
	<path d="M76.8,139.7c-0.4,1.1-0.9,2-1.5,2.6c-0.6,0.6-1.6,1-2.7,1.2l-0.2-1.2c0.6-0.1,1.1-0.3,1.5-0.5c0.4-0.2,0.7-0.5,0.9-0.8
		c0.2-0.3,0.4-0.8,0.6-1.3h-0.5l-3.3-9.5h1.6l2.7,8.3l2.7-8.3h1.6L76.8,139.7z"/>
	<path d="M62.9,153c0.4-0.5,0.8-0.9,1.4-1.1c0.5-0.3,1.1-0.4,1.7-0.4c1.8,0,2.7,0.9,2.7,2.8v6.9h-1.5v-6.9c0-0.6-0.1-1-0.4-1.2
		c-0.3-0.3-0.7-0.4-1.3-0.4c-0.5,0-1,0.2-1.4,0.5c-0.5,0.3-0.8,0.7-1.1,1.1v6.9h-1.5v-13.3l1.5-0.2V153z"/>
	<path d="M74.2,159.3c0.5,0.5,1.2,0.8,1.9,0.8c0.5,0,0.9-0.1,1.3-0.2c0.4-0.1,0.8-0.4,1.3-0.6l0.7,1c-0.4,0.3-1,0.6-1.5,0.8
		c-0.6,0.2-1.1,0.3-1.7,0.3c-1.4,0-2.4-0.4-3.2-1.3c-0.8-0.9-1.1-2.1-1.1-3.6c0-0.9,0.2-1.8,0.5-2.5s0.8-1.3,1.4-1.8
		c0.6-0.4,1.3-0.6,2.2-0.6c1.2,0,2.1,0.4,2.8,1.3c0.7,0.8,1,2,1,3.4c0,0.3,0,0.5,0,0.8h-6.4C73.4,158,73.7,158.8,74.2,159.3z
		 M74.2,153.5c-0.5,0.5-0.7,1.3-0.8,2.3h4.9c0-1-0.2-1.8-0.6-2.3c-0.4-0.5-1-0.8-1.7-0.8S74.6,153,74.2,153.5z"/>
	<path d="M90,159.9c0.1,0.2,0.3,0.3,0.6,0.4l-0.4,1.1c-0.9-0.1-1.5-0.6-1.7-1.3c-0.3,0.4-0.8,0.8-1.3,1c-0.5,0.2-1.1,0.3-1.7,0.3
		c-0.9,0-1.7-0.3-2.2-0.8c-0.5-0.5-0.8-1.2-0.8-2.1c0-1,0.4-1.7,1.1-2.3c0.8-0.5,1.9-0.8,3.3-0.8h1.4v-0.8c0-0.7-0.2-1.2-0.6-1.4
		c-0.4-0.3-0.9-0.4-1.7-0.4c-0.7,0-1.5,0.2-2.5,0.5l-0.4-1.2c1.1-0.4,2.2-0.6,3.1-0.6c1.2,0,2,0.3,2.6,0.8s0.9,1.3,0.9,2.3v4.6
		C89.8,159.5,89.9,159.8,90,159.9z M87.2,159.9c0.4-0.2,0.8-0.6,1.1-1v-2.4h-1.4c-1,0-1.7,0.2-2.2,0.5s-0.7,0.8-0.7,1.5
		c0,1.2,0.6,1.8,1.8,1.8C86.3,160.3,86.8,160.1,87.2,159.9z"/>
	<path d="M101,147.9v13.3h-1.3l-0.1-1.2c-0.3,0.5-0.8,0.8-1.2,1.1c-0.5,0.2-0.9,0.4-1.5,0.4c-1.2,0-2.1-0.4-2.7-1.3
		c-0.6-0.9-0.9-2.1-0.9-3.6c0-0.9,0.1-1.8,0.4-2.5s0.7-1.3,1.3-1.8s1.2-0.6,2-0.6c1,0,1.9,0.4,2.6,1.1v-4.9L101,147.9z M95.5,153.7
		c-0.4,0.6-0.6,1.6-0.6,2.8c0,1.2,0.2,2.2,0.6,2.8c0.4,0.6,1,0.9,1.7,0.9c0.9,0,1.7-0.5,2.3-1.5V154c-0.3-0.4-0.6-0.7-1-0.9
		c-0.4-0.2-0.8-0.3-1.2-0.3C96.5,152.7,95.9,153.1,95.5,153.7z"/>
	<path d="M106.6,159.3c0.5,0.5,1.2,0.8,1.9,0.8c0.5,0,0.9-0.1,1.3-0.2c0.4-0.1,0.8-0.4,1.3-0.6l0.7,1c-0.4,0.3-1,0.6-1.5,0.8
		c-0.6,0.2-1.1,0.3-1.7,0.3c-1.4,0-2.4-0.4-3.2-1.3c-0.8-0.9-1.1-2.1-1.1-3.6c0-0.9,0.2-1.8,0.5-2.5s0.8-1.3,1.4-1.8
		c0.6-0.4,1.3-0.6,2.2-0.6c1.2,0,2.1,0.4,2.8,1.3c0.7,0.8,1,2,1,3.4c0,0.3,0,0.5,0,0.8h-6.4C105.8,158,106.1,158.8,106.6,159.3z
		 M106.6,153.5c-0.5,0.5-0.7,1.3-0.8,2.3h4.9c0-1-0.2-1.8-0.6-2.3c-0.4-0.5-1-0.8-1.7-0.8S107,153,106.6,153.5z"/>
	<path d="M123.1,151.7l-0.2,3.2h-1.2v-2h-0.1c-1.5,0-2.5,1-3.1,3.1v4h1.9v1.2h-4.9V160h1.5v-7.1h-1.5v-1.2h2.6l0.3,2.3
		c0.4-0.8,0.8-1.4,1.4-1.8c0.5-0.4,1.2-0.6,2-0.6C122.2,151.5,122.6,151.6,123.1,151.7z"/>
	<path d="M66.4,181.3c0.4-0.3,0.6-0.6,0.6-1.1c0-0.3-0.1-0.6-0.2-0.8c-0.1-0.2-0.3-0.4-0.6-0.5c-0.3-0.2-0.8-0.3-1.5-0.5
		c-1.1-0.3-1.9-0.6-2.4-1c-0.5-0.4-0.8-1-0.8-1.7c0-0.8,0.3-1.4,1-1.9c0.7-0.5,1.5-0.7,2.6-0.7c1.3,0,2.5,0.3,3.5,1l-0.7,1
		c-0.4-0.3-0.8-0.5-1.2-0.6s-0.9-0.2-1.5-0.2c-1.4,0-2.1,0.4-2.1,1.2c0,0.3,0.1,0.5,0.2,0.7c0.1,0.2,0.4,0.3,0.7,0.5
		c0.3,0.1,0.9,0.3,1.5,0.5c1,0.3,1.8,0.6,2.3,1.1c0.5,0.4,0.8,1,0.8,1.9c0,0.9-0.4,1.7-1.2,2.1c-0.8,0.5-1.7,0.7-2.8,0.7
		c-1.5,0-2.7-0.4-3.7-1.3l0.8-1c0.4,0.3,0.8,0.6,1.3,0.7c0.5,0.2,1,0.3,1.5,0.3C65.4,181.8,65.9,181.6,66.4,181.3z"/>
	<path d="M74.2,180.9c0.5,0.5,1.2,0.8,1.9,0.8c0.5,0,0.9-0.1,1.3-0.2c0.4-0.1,0.8-0.4,1.3-0.6l0.7,1c-0.4,0.3-1,0.6-1.5,0.8
		c-0.6,0.2-1.1,0.3-1.7,0.3c-1.4,0-2.4-0.4-3.2-1.3c-0.8-0.9-1.1-2.1-1.1-3.6c0-0.9,0.2-1.8,0.5-2.5s0.8-1.3,1.4-1.8
		c0.6-0.4,1.3-0.6,2.2-0.6c1.2,0,2.1,0.4,2.8,1.3c0.7,0.8,1,2,1,3.4c0,0.3,0,0.5,0,0.8h-6.4C73.4,179.6,73.7,180.4,74.2,180.9z
		 M74.2,175.1c-0.5,0.5-0.7,1.3-0.8,2.3h4.9c0-1-0.2-1.8-0.6-2.3c-0.4-0.5-1-0.8-1.7-0.8S74.6,174.6,74.2,175.1z"/>
	<path d="M89.8,180.9l0.7,1c-0.4,0.3-0.9,0.6-1.5,0.8c-0.6,0.2-1.2,0.3-1.7,0.3c-1.4,0-2.5-0.4-3.3-1.3s-1.2-2.1-1.2-3.6
		c0-0.9,0.2-1.8,0.5-2.6s0.9-1.4,1.5-1.8c0.7-0.4,1.5-0.6,2.4-0.6c1.2,0,2.3,0.4,3.2,1.1l-0.7,1c-0.8-0.6-1.6-0.8-2.4-0.8
		c-0.9,0-1.5,0.3-2,0.9c-0.5,0.6-0.8,1.6-0.8,2.8c0,1.2,0.3,2.1,0.8,2.7c0.5,0.6,1.2,0.9,2.1,0.9C88.1,181.7,89,181.4,89.8,180.9z"
		/>
	<path d="M100.2,182.8c-0.5,0.1-0.9,0.2-1.4,0.2c-1,0-1.8-0.3-2.3-0.8s-0.8-1.2-0.8-2.1v-5.7h-2.2v-1.2h2.2v-2.1l1.5-0.2v2.3h3.3
		l-0.2,1.2h-3.1v5.6c0,0.5,0.1,0.9,0.4,1.2c0.3,0.3,0.8,0.4,1.4,0.4c0.6,0,1.3-0.1,1.8-0.5l0.6,1C101,182.5,100.6,182.7,100.2,182.8
		z"/>
	<path d="M109.4,181.6h2.7v1.2H105v-1.2h2.9v-7.1h-2.8v-1.2h4.3V181.6z M109,169.2c0.2,0.2,0.3,0.5,0.3,0.8s-0.1,0.6-0.3,0.8
		c-0.2,0.2-0.5,0.3-0.8,0.3c-0.3,0-0.6-0.1-0.8-0.3c-0.2-0.2-0.3-0.5-0.3-0.8s0.1-0.6,0.3-0.8c0.2-0.2,0.5-0.3,0.8-0.3
		C108.5,168.9,108.8,169,109,169.2z"/>
	<path d="M122,174.4c0.7,0.9,1.1,2.1,1.1,3.6c0,1.5-0.4,2.7-1.1,3.6c-0.7,0.9-1.7,1.4-3,1.4c-1.3,0-2.3-0.4-3-1.3s-1.1-2.1-1.1-3.6
		c0-1.5,0.4-2.7,1.1-3.6s1.7-1.4,3-1.4C120.3,173.1,121.3,173.6,122,174.4z M117.2,175.3c-0.4,0.6-0.6,1.5-0.6,2.8s0.2,2.2,0.6,2.8
		c0.4,0.6,1,0.9,1.8,0.9s1.4-0.3,1.8-0.9c0.4-0.6,0.6-1.5,0.6-2.8c0-1.2-0.2-2.2-0.6-2.8c-0.4-0.6-1-0.9-1.8-0.9
		C118.2,174.4,117.6,174.7,117.2,175.3z"/>
	<path d="M126.2,173.3h1.3l0.1,1.3c0.4-0.5,0.8-0.9,1.4-1.1s1.1-0.4,1.7-0.4c1.8,0,2.7,0.9,2.7,2.8v6.9h-1.5V177
		c0-0.7,0-1.2-0.1-1.6c-0.1-0.4-0.2-0.6-0.5-0.8c-0.2-0.2-0.6-0.3-1-0.3c-0.5,0-1,0.2-1.5,0.5c-0.5,0.3-0.8,0.7-1.1,1.1v6.9h-1.5
		V173.3z"/>
	<path d="M90,203.1c0.1,0.2,0.3,0.3,0.6,0.4l-0.4,1.1c-0.9-0.1-1.5-0.6-1.7-1.3c-0.3,0.4-0.8,0.8-1.3,1c-0.5,0.2-1.1,0.3-1.7,0.3
		c-0.9,0-1.7-0.3-2.2-0.8c-0.5-0.5-0.8-1.2-0.8-2.1c0-1,0.4-1.7,1.1-2.3c0.8-0.5,1.9-0.8,3.3-0.8h1.4v-0.8c0-0.7-0.2-1.2-0.6-1.4
		c-0.4-0.3-0.9-0.4-1.7-0.4c-0.7,0-1.5,0.2-2.5,0.5l-0.4-1.2c1.1-0.4,2.2-0.6,3.1-0.6c1.2,0,2,0.3,2.6,0.8s0.9,1.3,0.9,2.3v4.6
		C89.8,202.7,89.9,203,90,203.1z M87.2,203.1c0.4-0.2,0.8-0.6,1.1-1v-2.4h-1.4c-1,0-1.7,0.2-2.2,0.5s-0.7,0.8-0.7,1.5
		c0,1.2,0.6,1.8,1.8,1.8C86.3,203.5,86.8,203.3,87.2,203.1z"/>
	<path d="M101.5,194.9l-0.2,3.2h-1.2v-2H100c-1.5,0-2.5,1-3.1,3.1v4h1.9v1.2h-4.9v-1.2h1.5v-7.1h-1.5v-1.2h2.6l0.3,2.3
		c0.4-0.8,0.8-1.4,1.4-1.8c0.5-0.4,1.2-0.6,2-0.6C100.6,194.7,101,194.8,101.5,194.9z"/>
	<path d="M111,204.4c-0.5,0.1-0.9,0.2-1.4,0.2c-1,0-1.8-0.3-2.3-0.8s-0.8-1.2-0.8-2.1v-5.7h-2.2v-1.2h2.2v-2.1l1.5-0.2v2.3h3.3
		l-0.2,1.2h-3.1v5.6c0,0.5,0.1,0.9,0.4,1.2c0.3,0.3,0.8,0.4,1.4,0.4c0.6,0,1.3-0.1,1.8-0.5l0.6,1C111.8,204.1,111.4,204.3,111,204.4
		z"/>
	<path d="M120.2,203.2h2.7v1.2h-7.1v-1.2h2.9v-7.1h-2.8v-1.2h4.3V203.2z M119.8,190.8c0.2,0.2,0.3,0.5,0.3,0.8s-0.1,0.6-0.3,0.8
		c-0.2,0.2-0.5,0.3-0.8,0.3c-0.3,0-0.6-0.1-0.8-0.3c-0.2-0.2-0.3-0.5-0.3-0.8s0.1-0.6,0.3-0.8c0.2-0.2,0.5-0.3,0.8-0.3
		C119.3,190.5,119.6,190.6,119.8,190.8z"/>
	<path d="M133,202.5l0.7,1c-0.4,0.3-0.9,0.6-1.5,0.8c-0.6,0.2-1.2,0.3-1.7,0.3c-1.4,0-2.5-0.4-3.3-1.3s-1.2-2.1-1.2-3.6
		c0-0.9,0.2-1.8,0.5-2.6s0.9-1.4,1.5-1.8c0.7-0.4,1.5-0.6,2.4-0.6c1.2,0,2.3,0.4,3.2,1.1l-0.7,1c-0.8-0.6-1.6-0.8-2.4-0.8
		c-0.9,0-1.5,0.3-2,0.9c-0.5,0.6-0.8,1.6-0.8,2.8c0,1.2,0.3,2.1,0.8,2.7c0.5,0.6,1.2,0.9,2.1,0.9C131.3,203.3,132.2,203,133,202.5z"
		/>
	<path d="M140.7,202.1c0,0.9,0.5,1.3,1.6,1.3c0.5,0,1-0.1,1.6-0.3l0.4,1.1c-0.6,0.3-1.4,0.5-2.3,0.5c-0.9,0-1.5-0.2-2-0.7
		c-0.5-0.5-0.8-1.1-0.8-1.9v-9.7h-2.9v-1.2h4.4V202.1z"/>
	<path d="M149.8,202.5c0.5,0.5,1.2,0.8,1.9,0.8c0.5,0,0.9-0.1,1.3-0.2c0.4-0.1,0.8-0.4,1.3-0.6l0.7,1c-0.4,0.3-1,0.6-1.5,0.8
		c-0.6,0.2-1.1,0.3-1.7,0.3c-1.4,0-2.4-0.4-3.2-1.3c-0.8-0.9-1.1-2.1-1.1-3.6c0-0.9,0.2-1.8,0.5-2.5s0.8-1.3,1.4-1.8
		c0.6-0.4,1.3-0.6,2.2-0.6c1.2,0,2.1,0.4,2.8,1.3c0.7,0.8,1,2,1,3.4c0,0.3,0,0.5,0,0.8H149C149,201.2,149.3,202,149.8,202.5z
		 M149.8,196.7c-0.5,0.5-0.7,1.3-0.8,2.3h4.9c0-1-0.2-1.8-0.6-2.3c-0.4-0.5-1-0.8-1.7-0.8S150.2,196.2,149.8,196.7z"/>
	<path d="M161.1,201.9c0.3-0.3,0.7-0.5,1.1-0.5c0.5,0,0.8,0.2,1.1,0.5c0.3,0.3,0.4,0.7,0.4,1.1c0,0.5-0.1,0.8-0.4,1.1
		c-0.3,0.3-0.7,0.5-1.1,0.5c-0.4,0-0.8-0.2-1.1-0.5c-0.3-0.3-0.5-0.7-0.5-1.1C160.6,202.6,160.8,202.2,161.1,201.9z"/>
	<path d="M177.1,194.9l-0.2,3.2h-1.2v-2h-0.1c-1.5,0-2.5,1-3.1,3.1v4h1.9v1.2h-4.9v-1.2h1.5v-7.1h-1.5v-1.2h2.6l0.3,2.3
		c0.4-0.8,0.8-1.4,1.4-1.8c0.5-0.4,1.2-0.6,2-0.6C176.2,194.7,176.6,194.8,177.1,194.9z"/>
	<path d="M182.2,202.5c0.5,0.5,1.2,0.8,1.9,0.8c0.5,0,0.9-0.1,1.3-0.2c0.4-0.1,0.8-0.4,1.3-0.6l0.7,1c-0.4,0.3-1,0.6-1.5,0.8
		c-0.6,0.2-1.1,0.3-1.7,0.3c-1.4,0-2.4-0.4-3.2-1.3c-0.8-0.9-1.1-2.1-1.1-3.6c0-0.9,0.2-1.8,0.5-2.5s0.8-1.3,1.4-1.8
		c0.6-0.4,1.3-0.6,2.2-0.6c1.2,0,2.1,0.4,2.8,1.3c0.7,0.8,1,2,1,3.4c0,0.3,0,0.5,0,0.8h-6.4C181.4,201.2,181.7,202,182.2,202.5z
		 M182.2,196.7c-0.5,0.5-0.7,1.3-0.8,2.3h4.9c0-1-0.2-1.8-0.6-2.3c-0.4-0.5-1-0.8-1.7-0.8S182.6,196.2,182.2,196.7z"/>
	<path d="M198.6,195.3c0.3,0.4,0.5,1.1,0.5,2.1v7.1h-1.4v-6.8c0-0.7,0-1.1-0.1-1.3c-0.1-0.2-0.3-0.4-0.6-0.4c-0.6,0-1.2,0.4-1.7,1.1
		v7.4h-1.4v-6.8c0-0.7,0-1.1-0.1-1.3s-0.3-0.4-0.6-0.4c-0.6,0-1.2,0.4-1.7,1.1v7.4h-1.4v-9.5h1.2l0.1,1.1c0.3-0.4,0.6-0.7,0.9-1
		s0.7-0.3,1.1-0.3c0.9,0,1.5,0.4,1.7,1.3c0.3-0.4,0.6-0.7,0.9-0.9c0.3-0.2,0.7-0.3,1.2-0.3C197.8,194.7,198.2,194.9,198.6,195.3z"/>
	<path d="M208.4,196c0.7,0.9,1.1,2.1,1.1,3.6c0,1.5-0.4,2.7-1.1,3.6c-0.7,0.9-1.7,1.4-3,1.4c-1.3,0-2.3-0.4-3-1.3s-1.1-2.1-1.1-3.6
		c0-1.5,0.4-2.7,1.1-3.6s1.7-1.4,3-1.4C206.7,194.7,207.7,195.2,208.4,196z M203.6,196.9c-0.4,0.6-0.6,1.5-0.6,2.8s0.2,2.2,0.6,2.8
		c0.4,0.6,1,0.9,1.8,0.9s1.4-0.3,1.8-0.9c0.4-0.6,0.6-1.5,0.6-2.8c0-1.2-0.2-2.2-0.6-2.8c-0.4-0.6-1-0.9-1.8-0.9
		C204.6,196,204,196.3,203.6,196.9z"/>
	<path d="M217.1,204.4h-1.7l-3.4-9.5h1.6l2.7,8.1l2.7-8.1h1.6L217.1,204.4z"/>
	<path d="M225.4,202.5c0.5,0.5,1.2,0.8,1.9,0.8c0.5,0,0.9-0.1,1.3-0.2c0.4-0.1,0.8-0.4,1.3-0.6l0.7,1c-0.4,0.3-1,0.6-1.5,0.8
		c-0.6,0.2-1.1,0.3-1.7,0.3c-1.4,0-2.4-0.4-3.2-1.3c-0.8-0.9-1.1-2.1-1.1-3.6c0-0.9,0.2-1.8,0.5-2.5s0.8-1.3,1.4-1.8
		c0.6-0.4,1.3-0.6,2.2-0.6c1.2,0,2.1,0.4,2.8,1.3c0.7,0.8,1,2,1,3.4c0,0.3,0,0.5,0,0.8h-6.4C224.6,201.2,224.9,202,225.4,202.5z
		 M225.4,196.7c-0.5,0.5-0.7,1.3-0.8,2.3h4.9c0-1-0.2-1.8-0.6-2.3c-0.4-0.5-1-0.8-1.7-0.8S225.8,196.2,225.4,196.7z"/>
	<path d="M241.4,191.1v13.3h-1.3l-0.1-1.2c-0.3,0.5-0.8,0.8-1.2,1.1c-0.5,0.2-0.9,0.4-1.5,0.4c-1.2,0-2.1-0.4-2.7-1.3
		c-0.6-0.9-0.9-2.1-0.9-3.6c0-0.9,0.1-1.8,0.4-2.5s0.7-1.3,1.3-1.8s1.2-0.6,2-0.6c1,0,1.9,0.4,2.6,1.1v-4.9L241.4,191.1z
		 M235.9,196.9c-0.4,0.6-0.6,1.6-0.6,2.8c0,1.2,0.2,2.2,0.6,2.8c0.4,0.6,1,0.9,1.7,0.9c0.9,0,1.7-0.5,2.3-1.5v-4.7
		c-0.3-0.4-0.6-0.7-1-0.9c-0.4-0.2-0.8-0.3-1.2-0.3C236.9,195.9,236.3,196.3,235.9,196.9z"/>
	<path d="M90,224.7c0.1,0.2,0.3,0.3,0.6,0.4l-0.4,1.1c-0.9-0.1-1.5-0.6-1.7-1.3c-0.3,0.4-0.8,0.8-1.3,1c-0.5,0.2-1.1,0.3-1.7,0.3
		c-0.9,0-1.7-0.3-2.2-0.8c-0.5-0.5-0.8-1.2-0.8-2.1c0-1,0.4-1.7,1.1-2.3c0.8-0.5,1.9-0.8,3.3-0.8h1.4v-0.8c0-0.7-0.2-1.2-0.6-1.4
		c-0.4-0.3-0.9-0.4-1.7-0.4c-0.7,0-1.5,0.2-2.5,0.5l-0.4-1.2c1.1-0.4,2.2-0.6,3.1-0.6c1.2,0,2,0.3,2.6,0.8s0.9,1.3,0.9,2.3v4.6
		C89.8,224.3,89.9,224.6,90,224.7z M87.2,224.7c0.4-0.2,0.8-0.6,1.1-1v-2.4h-1.4c-1,0-1.7,0.2-2.2,0.5s-0.7,0.8-0.7,1.5
		c0,1.2,0.6,1.8,1.8,1.8C86.3,225.1,86.8,224.9,87.2,224.7z"/>
	<path d="M101.5,216.5l-0.2,3.2h-1.2v-2H100c-1.5,0-2.5,1-3.1,3.1v4h1.9v1.2h-4.9v-1.2h1.5v-7.1h-1.5v-1.2h2.6l0.3,2.3
		c0.4-0.8,0.8-1.4,1.4-1.8c0.5-0.4,1.2-0.6,2-0.6C100.6,216.3,101,216.4,101.5,216.5z"/>
	<path d="M111,226c-0.5,0.1-0.9,0.2-1.4,0.2c-1,0-1.8-0.3-2.3-0.8s-0.8-1.2-0.8-2.1v-5.7h-2.2v-1.2h2.2v-2.1l1.5-0.2v2.3h3.3
		l-0.2,1.2h-3.1v5.6c0,0.5,0.1,0.9,0.4,1.2c0.3,0.3,0.8,0.4,1.4,0.4c0.6,0,1.3-0.1,1.8-0.5l0.6,1C111.8,225.7,111.4,225.9,111,226z"
		/>
	<path d="M120.2,224.8h2.7v1.2h-7.1v-1.2h2.9v-7.1h-2.8v-1.2h4.3V224.8z M119.8,212.4c0.2,0.2,0.3,0.5,0.3,0.8s-0.1,0.6-0.3,0.8
		c-0.2,0.2-0.5,0.3-0.8,0.3c-0.3,0-0.6-0.1-0.8-0.3c-0.2-0.2-0.3-0.5-0.3-0.8s0.1-0.6,0.3-0.8c0.2-0.2,0.5-0.3,0.8-0.3
		C119.3,212.1,119.6,212.2,119.8,212.4z"/>
	<path d="M133,224.1l0.7,1c-0.4,0.3-0.9,0.6-1.5,0.8c-0.6,0.2-1.2,0.3-1.7,0.3c-1.4,0-2.5-0.4-3.3-1.3s-1.2-2.1-1.2-3.6
		c0-0.9,0.2-1.8,0.5-2.6s0.9-1.4,1.5-1.8c0.7-0.4,1.5-0.6,2.4-0.6c1.2,0,2.3,0.4,3.2,1.1l-0.7,1c-0.8-0.6-1.6-0.8-2.4-0.8
		c-0.9,0-1.5,0.3-2,0.9c-0.5,0.6-0.8,1.6-0.8,2.8c0,1.2,0.3,2.1,0.8,2.7c0.5,0.6,1.2,0.9,2.1,0.9C131.3,224.9,132.2,224.6,133,224.1
		z"/>
	<path d="M140.7,223.7c0,0.9,0.5,1.3,1.6,1.3c0.5,0,1-0.1,1.6-0.3l0.4,1.1c-0.6,0.3-1.4,0.5-2.3,0.5c-0.9,0-1.5-0.2-2-0.7
		c-0.5-0.5-0.8-1.1-0.8-1.9v-9.7h-2.9v-1.2h4.4V223.7z"/>
	<path d="M149.8,224.1c0.5,0.5,1.2,0.8,1.9,0.8c0.5,0,0.9-0.1,1.3-0.2c0.4-0.1,0.8-0.4,1.3-0.6l0.7,1c-0.4,0.3-1,0.6-1.5,0.8
		c-0.6,0.2-1.1,0.3-1.7,0.3c-1.4,0-2.4-0.4-3.2-1.3c-0.8-0.9-1.1-2.1-1.1-3.6c0-0.9,0.2-1.8,0.5-2.5s0.8-1.3,1.4-1.8
		c0.6-0.4,1.3-0.6,2.2-0.6c1.2,0,2.1,0.4,2.8,1.3c0.7,0.8,1,2,1,3.4c0,0.3,0,0.5,0,0.8H149C149,222.8,149.3,223.6,149.8,224.1z
		 M149.8,218.3c-0.5,0.5-0.7,1.3-0.8,2.3h4.9c0-1-0.2-1.8-0.6-2.3c-0.4-0.5-1-0.8-1.7-0.8S150.2,217.8,149.8,218.3z"/>
	<path d="M161.1,223.5c0.3-0.3,0.7-0.5,1.1-0.5c0.5,0,0.8,0.2,1.1,0.5c0.3,0.3,0.4,0.7,0.4,1.1c0,0.5-0.1,0.8-0.4,1.1
		c-0.3,0.3-0.7,0.5-1.1,0.5c-0.4,0-0.8-0.2-1.1-0.5c-0.3-0.3-0.5-0.7-0.5-1.1C160.6,224.2,160.8,223.8,161.1,223.5z"/>
	<path d="M170.9,217.8c0.4-0.5,0.8-0.9,1.4-1.1c0.5-0.3,1.1-0.4,1.7-0.4c1.8,0,2.7,0.9,2.7,2.8v6.9h-1.5v-6.9c0-0.6-0.1-1-0.4-1.2
		c-0.3-0.3-0.7-0.4-1.3-0.4c-0.5,0-1,0.2-1.4,0.5c-0.5,0.3-0.8,0.7-1.1,1.1v6.9h-1.5v-13.3l1.5-0.2V217.8z"/>
	<path d="M185,224.8h2.7v1.2h-7.1v-1.2h2.9v-7.1h-2.8v-1.2h4.3V224.8z M184.6,212.4c0.2,0.2,0.3,0.5,0.3,0.8s-0.1,0.6-0.3,0.8
		c-0.2,0.2-0.5,0.3-0.8,0.3c-0.3,0-0.6-0.1-0.8-0.3c-0.2-0.2-0.3-0.5-0.3-0.8s0.1-0.6,0.3-0.8c0.2-0.2,0.5-0.3,0.8-0.3
		C184.1,212.1,184.4,212.2,184.6,212.4z"/>
	<path d="M198.2,212.7V226h-1.3l-0.1-1.2c-0.3,0.5-0.8,0.8-1.2,1.1c-0.5,0.2-0.9,0.4-1.5,0.4c-1.2,0-2.1-0.4-2.7-1.3
		c-0.6-0.9-0.9-2.1-0.9-3.6c0-0.9,0.1-1.8,0.4-2.5s0.7-1.3,1.3-1.8s1.2-0.6,2-0.6c1,0,1.9,0.4,2.6,1.1v-4.9L198.2,212.7z
		 M192.7,218.5c-0.4,0.6-0.6,1.6-0.6,2.8c0,1.2,0.2,2.2,0.6,2.8c0.4,0.6,1,0.9,1.7,0.9c0.9,0,1.7-0.5,2.3-1.5v-4.7
		c-0.3-0.4-0.6-0.7-1-0.9c-0.4-0.2-0.8-0.3-1.2-0.3C193.7,217.5,193.1,217.9,192.7,218.5z"/>
	<path d="M209,212.7V226h-1.3l-0.1-1.2c-0.3,0.5-0.8,0.8-1.2,1.1c-0.5,0.2-0.9,0.4-1.5,0.4c-1.2,0-2.1-0.4-2.7-1.3
		c-0.6-0.9-0.9-2.1-0.9-3.6c0-0.9,0.1-1.8,0.4-2.5s0.7-1.3,1.3-1.8s1.2-0.6,2-0.6c1,0,1.9,0.4,2.6,1.1v-4.9L209,212.7z M203.5,218.5
		c-0.4,0.6-0.6,1.6-0.6,2.8c0,1.2,0.2,2.2,0.6,2.8c0.4,0.6,1,0.9,1.7,0.9c0.9,0,1.7-0.5,2.3-1.5v-4.7c-0.3-0.4-0.6-0.7-1-0.9
		c-0.4-0.2-0.8-0.3-1.2-0.3C204.5,217.5,203.9,217.9,203.5,218.5z"/>
	<path d="M214.6,224.1c0.5,0.5,1.2,0.8,1.9,0.8c0.5,0,0.9-0.1,1.3-0.2c0.4-0.1,0.8-0.4,1.3-0.6l0.7,1c-0.4,0.3-1,0.6-1.5,0.8
		c-0.6,0.2-1.1,0.3-1.7,0.3c-1.4,0-2.4-0.4-3.2-1.3c-0.8-0.9-1.1-2.1-1.1-3.6c0-0.9,0.2-1.8,0.5-2.5s0.8-1.3,1.4-1.8
		c0.6-0.4,1.3-0.6,2.2-0.6c1.2,0,2.1,0.4,2.8,1.3c0.7,0.8,1,2,1,3.4c0,0.3,0,0.5,0,0.8h-6.4C213.8,222.8,214.1,223.6,214.6,224.1z
		 M214.6,218.3c-0.5,0.5-0.7,1.3-0.8,2.3h4.9c0-1-0.2-1.8-0.6-2.3c-0.4-0.5-1-0.8-1.7-0.8S215,217.8,214.6,218.3z"/>
	<path d="M223.4,216.5h1.3l0.1,1.3c0.4-0.5,0.8-0.9,1.4-1.1s1.1-0.4,1.7-0.4c1.8,0,2.7,0.9,2.7,2.8v6.9h-1.5v-5.8
		c0-0.7,0-1.2-0.1-1.6c-0.1-0.4-0.2-0.6-0.5-0.8c-0.2-0.2-0.6-0.3-1-0.3c-0.5,0-1,0.2-1.5,0.5c-0.5,0.3-0.8,0.7-1.1,1.1v6.9h-1.5
		V216.5z"/>
</g>
<g>
	<path d="M42.3,328.2c0.3-0.3,0.7-0.5,1.1-0.5c0.5,0,0.8,0.2,1.1,0.5c0.3,0.3,0.4,0.7,0.4,1.1c0,0.5-0.1,0.8-0.4,1.1
		c-0.3,0.3-0.7,0.5-1.1,0.5c-0.4,0-0.8-0.2-1.1-0.5c-0.3-0.3-0.5-0.7-0.5-1.1C41.8,328.8,42,328.5,42.3,328.2z"/>
	<path d="M58.3,321.2l-0.2,3.2h-1.2v-2h-0.1c-1.5,0-2.5,1-3.1,3.1v4h1.9v1.2h-4.9v-1.2h1.5v-7.1h-1.5v-1.2h2.6l0.3,2.3
		c0.4-0.8,0.8-1.4,1.4-1.8c0.5-0.4,1.2-0.6,2-0.6C57.4,321,57.8,321,58.3,321.2z"/>
	<path d="M63.4,328.8c0.5,0.5,1.2,0.8,1.9,0.8c0.5,0,0.9-0.1,1.3-0.2c0.4-0.1,0.8-0.4,1.3-0.6l0.7,1c-0.4,0.3-1,0.6-1.5,0.8
		c-0.6,0.2-1.1,0.3-1.7,0.3c-1.4,0-2.4-0.4-3.2-1.3c-0.8-0.9-1.1-2.1-1.1-3.6c0-0.9,0.2-1.8,0.5-2.5s0.8-1.3,1.4-1.8
		c0.6-0.4,1.3-0.6,2.2-0.6c1.2,0,2.1,0.4,2.8,1.3c0.7,0.8,1,2,1,3.4c0,0.3,0,0.5,0,0.8h-6.4C62.6,327.5,62.9,328.3,63.4,328.8z
		 M63.4,323c-0.5,0.5-0.7,1.3-0.8,2.3h4.9c0-1-0.2-1.8-0.6-2.3c-0.4-0.5-1-0.8-1.7-0.8S63.8,322.5,63.4,323z"/>
	<path d="M79.8,321.5c0.3,0.4,0.5,1.1,0.5,2.1v7.1h-1.4v-6.8c0-0.7,0-1.1-0.1-1.3c-0.1-0.2-0.3-0.4-0.6-0.4c-0.6,0-1.2,0.4-1.7,1.1
		v7.4h-1.4v-6.8c0-0.7,0-1.1-0.1-1.3c-0.1-0.2-0.3-0.4-0.6-0.4c-0.6,0-1.2,0.4-1.7,1.1v7.4h-1.4v-9.5h1.2l0.1,1.1
		c0.3-0.4,0.6-0.7,0.9-1c0.3-0.2,0.7-0.3,1.1-0.3c0.9,0,1.5,0.4,1.7,1.3c0.3-0.4,0.6-0.7,0.9-0.9s0.7-0.3,1.2-0.3
		C79,321,79.4,321.2,79.8,321.5z"/>
	<path d="M89.6,322.3c0.7,0.9,1.1,2.1,1.1,3.6c0,1.5-0.4,2.7-1.1,3.6c-0.7,0.9-1.7,1.4-3,1.4c-1.3,0-2.3-0.4-3-1.3s-1.1-2.1-1.1-3.6
		c0-1.5,0.4-2.7,1.1-3.6c0.7-0.9,1.7-1.4,3-1.4C87.9,321,88.9,321.4,89.6,322.3z M84.8,323.1c-0.4,0.6-0.6,1.5-0.6,2.8
		s0.2,2.2,0.6,2.8c0.4,0.6,1,0.9,1.8,0.9s1.4-0.3,1.8-0.9c0.4-0.6,0.6-1.5,0.6-2.8c0-1.2-0.2-2.2-0.6-2.8c-0.4-0.6-1-0.9-1.8-0.9
		C85.8,322.2,85.2,322.5,84.8,323.1z"/>
	<path d="M98.3,330.7h-1.7l-3.4-9.5h1.6l2.7,8.1l2.7-8.1h1.6L98.3,330.7z"/>
	<path d="M106.6,328.8c0.5,0.5,1.2,0.8,1.9,0.8c0.5,0,0.9-0.1,1.3-0.2c0.4-0.1,0.8-0.4,1.3-0.6l0.7,1c-0.4,0.3-1,0.6-1.5,0.8
		c-0.6,0.2-1.1,0.3-1.7,0.3c-1.4,0-2.4-0.4-3.2-1.3c-0.8-0.9-1.1-2.1-1.1-3.6c0-0.9,0.2-1.8,0.5-2.5s0.8-1.3,1.4-1.8
		c0.6-0.4,1.3-0.6,2.2-0.6c1.2,0,2.1,0.4,2.8,1.3c0.7,0.8,1,2,1,3.4c0,0.3,0,0.5,0,0.8h-6.4C105.8,327.5,106.1,328.3,106.6,328.8z
		 M106.6,323c-0.5,0.5-0.7,1.3-0.8,2.3h4.9c0-1-0.2-1.8-0.6-2.3c-0.4-0.5-1-0.8-1.7-0.8S107,322.5,106.6,323z"/>
	<path d="M122.6,317.4v13.3h-1.3l-0.1-1.2c-0.3,0.5-0.8,0.8-1.2,1.1s-0.9,0.4-1.5,0.4c-1.2,0-2.1-0.4-2.7-1.3s-0.9-2.1-0.9-3.6
		c0-0.9,0.1-1.8,0.4-2.5s0.7-1.3,1.3-1.8s1.2-0.6,2-0.6c1,0,1.9,0.4,2.6,1.1v-4.9L122.6,317.4z M117.1,323.1
		c-0.4,0.6-0.6,1.6-0.6,2.8c0,1.2,0.2,2.2,0.6,2.8c0.4,0.6,1,0.9,1.7,0.9c0.9,0,1.7-0.5,2.3-1.5v-4.7c-0.3-0.4-0.6-0.7-1-0.9
		c-0.4-0.2-0.8-0.3-1.2-0.3C118.1,322.2,117.5,322.5,117.1,323.1z"/>
	<path d="M143.3,316.8c-1.6,0-2.3,0.5-2.3,1.4l0.4,3.7c0,0.1,0,0.3,0,0.5c0,0.6-0.1,1-0.4,1.3c-0.3,0.3-0.7,0.5-1.3,0.6
		c0.6,0.1,1,0.3,1.3,0.6s0.4,0.7,0.4,1.3c0,0.2,0,0.4,0,0.5l-0.4,3.7c0,0.5,0.1,0.9,0.5,1.1c0.4,0.2,1,0.3,1.7,0.3v1.2
		c-1.1,0-2-0.2-2.6-0.6c-0.7-0.4-1-1-1-1.9c0-0.2,0-0.3,0-0.4l0.4-3.4c0-0.1,0-0.2,0-0.4c0-0.5-0.2-0.9-0.6-1.2s-1.1-0.4-2.2-0.4
		v-1.2c1,0,1.8-0.1,2.2-0.4s0.6-0.6,0.6-1.2c0-0.1,0-0.3,0-0.3l-0.4-3.5c0-0.1,0-0.2,0-0.4c0-0.9,0.3-1.5,1-1.9
		c0.7-0.4,1.6-0.6,2.6-0.6V316.8z"/>
	<path d="M68.6,339v13.3h-1.3l-0.1-1.2c-0.3,0.5-0.8,0.8-1.2,1.1c-0.5,0.2-0.9,0.4-1.5,0.4c-1.2,0-2.1-0.4-2.7-1.3
		c-0.6-0.9-0.9-2.1-0.9-3.6c0-0.9,0.1-1.8,0.4-2.5s0.7-1.3,1.3-1.8s1.2-0.6,2-0.6c1,0,1.9,0.4,2.6,1.1v-4.9L68.6,339z M63.1,344.7
		c-0.4,0.6-0.6,1.6-0.6,2.8c0,1.2,0.2,2.2,0.6,2.8c0.4,0.6,1,0.9,1.7,0.9c0.9,0,1.7-0.5,2.3-1.5V345c-0.3-0.4-0.6-0.7-1-0.9
		c-0.4-0.2-0.8-0.3-1.2-0.3C64.1,343.8,63.5,344.1,63.1,344.7z"/>
	<path d="M77,351.1h2.7v1.2h-7.1v-1.2h2.9V344h-2.8v-1.2H77V351.1z M76.6,338.6c0.2,0.2,0.3,0.5,0.3,0.8c0,0.3-0.1,0.6-0.3,0.8
		s-0.5,0.3-0.8,0.3c-0.3,0-0.6-0.1-0.8-0.3c-0.2-0.2-0.3-0.5-0.3-0.8c0-0.3,0.1-0.6,0.3-0.8c0.2-0.2,0.5-0.3,0.8-0.3
		C76.1,338.4,76.4,338.5,76.6,338.6z"/>
	<path d="M88,350.8c0.4-0.3,0.6-0.6,0.6-1.1c0-0.3-0.1-0.6-0.2-0.8c-0.1-0.2-0.3-0.4-0.6-0.5c-0.3-0.2-0.8-0.3-1.5-0.5
		c-1.1-0.3-1.9-0.6-2.4-1c-0.5-0.4-0.8-1-0.8-1.7c0-0.8,0.3-1.4,1-1.9c0.7-0.5,1.5-0.7,2.6-0.7c1.3,0,2.5,0.3,3.5,1l-0.7,1
		c-0.4-0.3-0.8-0.5-1.2-0.6c-0.4-0.2-0.9-0.2-1.5-0.2c-1.4,0-2.1,0.4-2.1,1.2c0,0.3,0.1,0.5,0.2,0.7c0.1,0.2,0.4,0.3,0.7,0.5
		c0.3,0.1,0.9,0.3,1.5,0.5c1,0.3,1.8,0.6,2.3,1.1c0.5,0.4,0.8,1,0.8,1.9c0,0.9-0.4,1.7-1.2,2.1c-0.8,0.5-1.7,0.7-2.8,0.7
		c-1.5,0-2.7-0.4-3.7-1.3l0.8-1c0.4,0.3,0.8,0.6,1.3,0.7c0.5,0.2,1,0.3,1.5,0.3C87,351.2,87.5,351.1,88,350.8z"/>
	<path d="M101.5,347.5c0,1.5-0.3,2.7-0.9,3.6c-0.6,0.9-1.5,1.3-2.7,1.3c-1,0-1.9-0.4-2.5-1.1v4.5l-1.5,0.2v-13.3h1.3l0.1,1.3
		c0.3-0.5,0.8-0.9,1.3-1.1c0.5-0.3,1-0.4,1.6-0.4C100.3,342.6,101.5,344.2,101.5,347.5z M96.4,344.2c-0.4,0.3-0.8,0.6-1.1,1.1v4.7
		c0.3,0.4,0.6,0.7,0.9,0.9s0.8,0.3,1.2,0.3c0.8,0,1.4-0.3,1.8-0.9c0.4-0.6,0.6-1.5,0.6-2.8s-0.2-2.2-0.5-2.8
		c-0.3-0.6-0.9-0.9-1.6-0.9C97.2,343.8,96.8,344,96.4,344.2z"/>
	<path d="M108.3,349.9c0,0.9,0.5,1.3,1.6,1.3c0.5,0,1-0.1,1.6-0.3l0.4,1.1c-0.6,0.3-1.4,0.5-2.3,0.5c-0.9,0-1.5-0.2-2-0.7
		c-0.5-0.5-0.8-1.1-0.8-1.9v-9.7h-2.9V339h4.4V349.9z"/>
	<path d="M122.4,351c0.1,0.2,0.3,0.3,0.6,0.4l-0.4,1.1c-0.9-0.1-1.5-0.6-1.7-1.3c-0.3,0.4-0.8,0.8-1.3,1c-0.5,0.2-1.1,0.3-1.7,0.3
		c-0.9,0-1.7-0.3-2.2-0.8c-0.5-0.5-0.8-1.2-0.8-2.1c0-1,0.4-1.7,1.1-2.3c0.8-0.5,1.9-0.8,3.3-0.8h1.4v-0.8c0-0.7-0.2-1.2-0.6-1.4
		c-0.4-0.3-0.9-0.4-1.7-0.4c-0.7,0-1.5,0.2-2.5,0.5l-0.4-1.2c1.1-0.4,2.2-0.6,3.1-0.6c1.2,0,2,0.3,2.6,0.8s0.9,1.3,0.9,2.3v4.6
		C122.2,350.6,122.3,350.8,122.4,351z M119.6,351c0.4-0.2,0.8-0.6,1.1-1v-2.4h-1.4c-1,0-1.7,0.2-2.2,0.5s-0.7,0.8-0.7,1.5
		c0,1.2,0.6,1.8,1.8,1.8C118.7,351.3,119.2,351.2,119.6,351z"/>
	<path d="M130.8,352.3c-0.4,1.1-0.9,2-1.5,2.6c-0.6,0.6-1.6,1-2.7,1.2l-0.2-1.2c0.6-0.1,1.1-0.3,1.5-0.5c0.4-0.2,0.7-0.5,0.9-0.8
		c0.2-0.3,0.4-0.8,0.6-1.3h-0.5l-3.3-9.5h1.6l2.7,8.3l2.7-8.3h1.6L130.8,352.3z"/>
	<path d="M139.6,343.5c0.3-0.3,0.6-0.4,1-0.4c0.4,0,0.8,0.1,1,0.4c0.3,0.3,0.4,0.6,0.4,1c0,0.4-0.1,0.8-0.4,1
		c-0.3,0.3-0.6,0.4-1,0.4c-0.4,0-0.8-0.1-1-0.4c-0.3-0.3-0.4-0.6-0.4-1C139.1,344.1,139.3,343.8,139.6,343.5z M139.6,350
		c0.3-0.3,0.6-0.4,1-0.4c0.4,0,0.8,0.1,1,0.4c0.3,0.3,0.4,0.6,0.4,1c0,0.4-0.1,0.8-0.4,1c-0.3,0.3-0.6,0.4-1,0.4
		c-0.4,0-0.8-0.1-1-0.4c-0.3-0.3-0.4-0.6-0.4-1C139.1,350.6,139.3,350.3,139.6,350z"/>
	<path d="M158.6,342.8h1.3l0.1,1.3c0.4-0.5,0.8-0.9,1.4-1.1c0.6-0.3,1.1-0.4,1.7-0.4c1.8,0,2.7,0.9,2.7,2.8v6.9h-1.5v-5.8
		c0-0.7,0-1.2-0.1-1.6c-0.1-0.4-0.2-0.6-0.5-0.8c-0.2-0.2-0.6-0.3-1-0.3c-0.5,0-1,0.2-1.5,0.5c-0.5,0.3-0.8,0.7-1.1,1.1v6.9h-1.5
		V342.8z"/>
	<path d="M176,343.9c0.7,0.9,1.1,2.1,1.1,3.6c0,1.5-0.4,2.7-1.1,3.6c-0.7,0.9-1.7,1.4-3,1.4c-1.3,0-2.3-0.4-3-1.3s-1.1-2.1-1.1-3.6
		c0-1.5,0.4-2.7,1.1-3.6c0.7-0.9,1.7-1.3,3-1.3C174.3,342.6,175.3,343,176,343.9z M171.2,344.7c-0.4,0.6-0.6,1.5-0.6,2.8
		s0.2,2.2,0.6,2.8c0.4,0.6,1,0.9,1.8,0.9s1.4-0.3,1.8-0.9c0.4-0.6,0.6-1.5,0.6-2.8c0-1.2-0.2-2.2-0.6-2.8c-0.4-0.6-1-0.9-1.8-0.9
		C172.2,343.8,171.6,344.1,171.2,344.7z"/>
	<path d="M180.2,342.8h1.3l0.1,1.3c0.4-0.5,0.8-0.9,1.4-1.1c0.6-0.3,1.1-0.4,1.7-0.4c1.8,0,2.7,0.9,2.7,2.8v6.9h-1.5v-5.8
		c0-0.7,0-1.2-0.1-1.6c-0.1-0.4-0.2-0.6-0.5-0.8c-0.2-0.2-0.6-0.3-1-0.3c-0.5,0-1,0.2-1.5,0.5c-0.5,0.3-0.8,0.7-1.1,1.1v6.9h-1.5
		V342.8z"/>
	<path d="M193,350.4c0.5,0.5,1.2,0.8,1.9,0.8c0.5,0,0.9-0.1,1.3-0.2s0.8-0.4,1.3-0.6l0.7,1c-0.4,0.3-1,0.6-1.5,0.8
		c-0.6,0.2-1.1,0.3-1.7,0.3c-1.4,0-2.4-0.4-3.2-1.3s-1.1-2.1-1.1-3.6c0-0.9,0.2-1.8,0.5-2.5s0.8-1.3,1.4-1.8
		c0.6-0.4,1.3-0.6,2.2-0.6c1.2,0,2.1,0.4,2.8,1.3s1,2,1,3.4c0,0.3,0,0.5,0,0.8h-6.4C192.2,349.1,192.5,349.9,193,350.4z M193,344.6
		c-0.5,0.5-0.7,1.3-0.8,2.3h4.9c0-1-0.2-1.8-0.6-2.3c-0.4-0.5-1-0.8-1.7-0.8S193.4,344.1,193,344.6z"/>
	<path d="M206.4,349.7c0.3,0.3,0.4,0.6,0.4,1c0,0.4-0.1,0.9-0.3,1.4l-1.5,3.3h-1.4l0.9-3.6c-0.2-0.1-0.3-0.3-0.4-0.5
		c-0.1-0.2-0.2-0.4-0.2-0.7c0-0.4,0.1-0.8,0.4-1c0.3-0.3,0.6-0.4,1-0.4C205.8,349.3,206.1,349.4,206.4,349.7z M206.4,343.5
		c0.3,0.3,0.4,0.6,0.4,1c0,0.4-0.1,0.8-0.4,1c-0.3,0.3-0.6,0.4-1,0.4c-0.4,0-0.8-0.1-1-0.4c-0.3-0.3-0.4-0.6-0.4-1
		c0-0.4,0.1-0.7,0.4-1c0.3-0.3,0.6-0.4,1-0.4C205.8,343.1,206.1,343.2,206.4,343.5z"/>
	<path d="M43.3,359.4c0.7,0.4,1,1,1,1.9c0,0.2,0,0.3,0,0.4l-0.4,3.5c0,0.1,0,0.2,0,0.3c0,0.5,0.2,0.9,0.6,1.2
		c0.4,0.3,1.1,0.4,2.1,0.4v1.2c-1,0-1.7,0.1-2.1,0.4s-0.6,0.7-0.6,1.2c0,0.1,0,0.2,0,0.3l0.4,3.4c0,0.1,0,0.2,0,0.4
		c0,0.9-0.3,1.5-1,1.9s-1.6,0.6-2.6,0.6v-1.2c0.7,0,1.3-0.1,1.7-0.3c0.4-0.2,0.6-0.6,0.5-1.1l-0.4-3.7c0-0.2,0-0.4,0-0.5
		c0-0.6,0.1-1,0.4-1.3s0.8-0.5,1.5-0.6c-0.6-0.1-1.1-0.3-1.4-0.6c-0.3-0.3-0.5-0.8-0.5-1.3c0-0.2,0-0.3,0-0.4l0.4-3.7
		c0.1-1-0.7-1.4-2.3-1.4v-1.2C41.8,358.8,42.6,359,43.3,359.4z"/>
	<path d="M42.3,414.6c0.3-0.3,0.7-0.5,1.1-0.5c0.5,0,0.8,0.2,1.1,0.5c0.3,0.3,0.4,0.7,0.4,1.1c0,0.5-0.1,0.8-0.4,1.1
		c-0.3,0.3-0.7,0.5-1.1,0.5c-0.4,0-0.8-0.2-1.1-0.5c-0.3-0.3-0.5-0.7-0.5-1.1C41.8,415.2,42,414.9,42.3,414.6z"/>
	<path d="M52.1,408.9c0.4-0.5,0.8-0.9,1.4-1.1c0.5-0.3,1.1-0.4,1.7-0.4c1.8,0,2.7,0.9,2.7,2.8v6.9h-1.5v-6.9c0-0.6-0.1-1-0.4-1.2
		s-0.7-0.4-1.3-0.4c-0.5,0-1,0.2-1.4,0.5c-0.5,0.3-0.8,0.7-1.1,1.1v6.9h-1.5v-13.3l1.5-0.2V408.9z"/>
	<path d="M66.2,415.9h2.7v1.2h-7.1v-1.2h2.9v-7.1h-2.8v-1.2h4.3V415.9z M65.8,403.4c0.2,0.2,0.3,0.5,0.3,0.8c0,0.3-0.1,0.6-0.3,0.8
		s-0.5,0.3-0.8,0.3c-0.3,0-0.6-0.1-0.8-0.3c-0.2-0.2-0.3-0.5-0.3-0.8c0-0.3,0.1-0.6,0.3-0.8c0.2-0.2,0.5-0.3,0.8-0.3
		C65.3,403.2,65.6,403.3,65.8,403.4z"/>
	<path d="M79.4,403.8v13.3h-1.3l-0.1-1.2c-0.3,0.5-0.8,0.8-1.2,1.1c-0.5,0.2-0.9,0.4-1.5,0.4c-1.2,0-2.1-0.4-2.7-1.3
		c-0.6-0.9-0.9-2.1-0.9-3.6c0-0.9,0.1-1.8,0.4-2.5s0.7-1.3,1.3-1.8s1.2-0.6,2-0.6c1,0,1.9,0.4,2.6,1.1v-4.9L79.4,403.8z M73.9,409.5
		c-0.4,0.6-0.6,1.6-0.6,2.8c0,1.2,0.2,2.2,0.6,2.8c0.4,0.6,1,0.9,1.7,0.9c0.9,0,1.7-0.5,2.3-1.5v-4.7c-0.3-0.4-0.6-0.7-1-0.9
		c-0.4-0.2-0.8-0.3-1.2-0.3C74.9,408.6,74.3,408.9,73.9,409.5z"/>
	<path d="M90.2,403.8v13.3h-1.3l-0.1-1.2c-0.3,0.5-0.8,0.8-1.2,1.1c-0.5,0.2-0.9,0.4-1.5,0.4c-1.2,0-2.1-0.4-2.7-1.3
		c-0.6-0.9-0.9-2.1-0.9-3.6c0-0.9,0.1-1.8,0.4-2.5s0.7-1.3,1.3-1.8s1.2-0.6,2-0.6c1,0,1.9,0.4,2.6,1.1v-4.9L90.2,403.8z M84.7,409.5
		c-0.4,0.6-0.6,1.6-0.6,2.8c0,1.2,0.2,2.2,0.6,2.8c0.4,0.6,1,0.9,1.7,0.9c0.9,0,1.7-0.5,2.3-1.5v-4.7c-0.3-0.4-0.6-0.7-1-0.9
		c-0.4-0.2-0.8-0.3-1.2-0.3C85.7,408.6,85.1,408.9,84.7,409.5z"/>
	<path d="M95.8,415.2c0.5,0.5,1.2,0.8,1.9,0.8c0.5,0,0.9-0.1,1.3-0.2s0.8-0.4,1.3-0.6l0.7,1c-0.4,0.3-1,0.6-1.5,0.8
		c-0.6,0.2-1.1,0.3-1.7,0.3c-1.4,0-2.4-0.4-3.2-1.3s-1.1-2.1-1.1-3.6c0-0.9,0.2-1.8,0.5-2.5s0.8-1.3,1.4-1.8
		c0.6-0.4,1.3-0.6,2.2-0.6c1.2,0,2.1,0.4,2.8,1.3s1,2,1,3.4c0,0.3,0,0.5,0,0.8H95C95,413.9,95.3,414.7,95.8,415.2z M95.8,409.4
		c-0.5,0.5-0.7,1.3-0.8,2.3h4.9c0-1-0.2-1.8-0.6-2.3c-0.4-0.5-1-0.8-1.7-0.8S96.2,408.9,95.8,409.4z"/>
	<path d="M104.6,407.6h1.3l0.1,1.3c0.4-0.5,0.8-0.9,1.4-1.1c0.6-0.3,1.1-0.4,1.7-0.4c1.8,0,2.7,0.9,2.7,2.8v6.9h-1.5v-5.8
		c0-0.7,0-1.2-0.1-1.6c-0.1-0.4-0.2-0.6-0.5-0.8c-0.2-0.2-0.6-0.3-1-0.3c-0.5,0-1,0.2-1.5,0.5c-0.5,0.3-0.8,0.7-1.1,1.1v6.9h-1.5
		V407.6z"/>
	<path d="M132.5,403.2c-1.6,0-2.3,0.5-2.3,1.4l0.4,3.7c0,0.1,0,0.3,0,0.5c0,0.6-0.1,1-0.4,1.3c-0.3,0.3-0.7,0.5-1.3,0.6
		c0.6,0.1,1,0.3,1.3,0.6s0.4,0.7,0.4,1.3c0,0.2,0,0.4,0,0.5l-0.4,3.7c0,0.5,0.1,0.9,0.5,1.1c0.4,0.2,1,0.3,1.7,0.3v1.2
		c-1.1,0-2-0.2-2.6-0.6c-0.7-0.4-1-1-1-1.9c0-0.2,0-0.3,0-0.4l0.4-3.4c0-0.1,0-0.2,0-0.4c0-0.5-0.2-0.9-0.6-1.2s-1.1-0.4-2.2-0.4
		v-1.2c1,0,1.8-0.1,2.2-0.4s0.6-0.6,0.6-1.2c0-0.1,0-0.3,0-0.3l-0.4-3.5c0-0.1,0-0.2,0-0.4c0-0.9,0.3-1.5,1-1.9
		c0.7-0.4,1.6-0.6,2.6-0.6V403.2z"/>
	<path d="M65.9,438.7h-1.7l-3.4-9.5h1.6l2.7,8.1l2.7-8.1h1.6L65.9,438.7z"/>
	<path d="M77,437.5h2.7v1.2h-7.1v-1.2h2.9v-7.1h-2.8v-1.2H77V437.5z M76.6,425c0.2,0.2,0.3,0.5,0.3,0.8c0,0.3-0.1,0.6-0.3,0.8
		c-0.2,0.2-0.5,0.3-0.8,0.3c-0.3,0-0.6-0.1-0.8-0.3c-0.2-0.2-0.3-0.5-0.3-0.8c0-0.3,0.1-0.6,0.3-0.8c0.2-0.2,0.5-0.3,0.8-0.3
		C76.1,424.8,76.4,424.9,76.6,425z"/>
	<path d="M88,437.2c0.4-0.3,0.6-0.6,0.6-1.1c0-0.3-0.1-0.6-0.2-0.8c-0.1-0.2-0.3-0.4-0.6-0.5c-0.3-0.2-0.8-0.3-1.5-0.5
		c-1.1-0.3-1.9-0.6-2.4-1c-0.5-0.4-0.8-1-0.8-1.7c0-0.8,0.3-1.4,1-1.9c0.7-0.5,1.5-0.7,2.6-0.7c1.3,0,2.5,0.3,3.5,1l-0.7,1
		c-0.4-0.3-0.8-0.5-1.2-0.6c-0.4-0.1-0.9-0.2-1.5-0.2c-1.4,0-2.1,0.4-2.1,1.2c0,0.3,0.1,0.5,0.2,0.7c0.1,0.2,0.4,0.3,0.7,0.5
		c0.3,0.1,0.9,0.3,1.5,0.5c1,0.3,1.8,0.6,2.3,1.1c0.5,0.4,0.8,1,0.8,1.9c0,0.9-0.4,1.7-1.2,2.1c-0.8,0.5-1.7,0.7-2.8,0.7
		c-1.5,0-2.7-0.4-3.7-1.3l0.8-1c0.4,0.3,0.8,0.6,1.3,0.7c0.5,0.2,1,0.3,1.5,0.3C87,437.6,87.5,437.5,88,437.2z"/>
	<path d="M98.6,437.5h2.7v1.2h-7.1v-1.2h2.9v-7.1h-2.8v-1.2h4.3V437.5z M98.2,425c0.2,0.2,0.3,0.5,0.3,0.8c0,0.3-0.1,0.6-0.3,0.8
		c-0.2,0.2-0.5,0.3-0.8,0.3c-0.3,0-0.6-0.1-0.8-0.3c-0.2-0.2-0.3-0.5-0.3-0.8c0-0.3,0.1-0.6,0.3-0.8c0.2-0.2,0.5-0.3,0.8-0.3
		C97.7,424.8,98,424.9,98.2,425z"/>
	<path d="M108.8,429c1.2,0,2.1,0.4,2.7,1.3c0.6,0.9,0.9,2.1,0.9,3.6c0,1.5-0.3,2.7-1,3.6c-0.7,0.9-1.6,1.4-2.8,1.4
		c-1.1,0-2-0.4-2.6-1.2l-0.1,1h-1.3v-13.3l1.5-0.2v5.2C106.8,429.5,107.8,429,108.8,429z M110.1,436.7c0.4-0.6,0.6-1.6,0.6-2.8
		c0-1.2-0.2-2.1-0.6-2.8s-0.9-0.9-1.7-0.9c-0.5,0-0.9,0.1-1.3,0.4c-0.4,0.3-0.8,0.6-1.1,1.1v4.7c0.3,0.4,0.6,0.7,0.9,0.9
		c0.4,0.2,0.8,0.3,1.2,0.3C109.1,437.6,109.7,437.3,110.1,436.7z"/>
	<path d="M120.2,437.5h2.7v1.2h-7.1v-1.2h2.9v-7.1h-2.8v-1.2h4.3V437.5z M119.8,425c0.2,0.2,0.3,0.5,0.3,0.8c0,0.3-0.1,0.6-0.3,0.8
		c-0.2,0.2-0.5,0.3-0.8,0.3c-0.3,0-0.6-0.1-0.8-0.3c-0.2-0.2-0.3-0.5-0.3-0.8c0-0.3,0.1-0.6,0.3-0.8c0.2-0.2,0.5-0.3,0.8-0.3
		C119.3,424.8,119.6,424.9,119.8,425z"/>
	<path d="M129.9,436.3c0,0.9,0.5,1.3,1.6,1.3c0.5,0,1-0.1,1.6-0.3l0.4,1.1c-0.6,0.3-1.4,0.5-2.3,0.5c-0.9,0-1.5-0.2-2-0.7
		c-0.5-0.5-0.8-1.1-0.8-1.9v-9.7h-2.9v-1.2h4.4V436.3z"/>
	<path d="M141.8,437.5h2.7v1.2h-7.1v-1.2h2.9v-7.1h-2.8v-1.2h4.3V437.5z M141.4,425c0.2,0.2,0.3,0.5,0.3,0.8c0,0.3-0.1,0.6-0.3,0.8
		c-0.2,0.2-0.5,0.3-0.8,0.3c-0.3,0-0.6-0.1-0.8-0.3c-0.2-0.2-0.3-0.5-0.3-0.8c0-0.3,0.1-0.6,0.3-0.8c0.2-0.2,0.5-0.3,0.8-0.3
		C140.9,424.8,141.2,424.9,141.4,425z"/>
	<path d="M154.2,438.7c-0.5,0.1-0.9,0.2-1.4,0.2c-1,0-1.8-0.3-2.3-0.8c-0.6-0.5-0.8-1.2-0.8-2.1v-5.7h-2.2v-1.2h2.2V427l1.5-0.2v2.3
		h3.3l-0.2,1.2h-3.1v5.6c0,0.5,0.1,0.9,0.4,1.2s0.8,0.4,1.4,0.4c0.6,0,1.3-0.1,1.8-0.5l0.6,1C155,438.4,154.6,438.6,154.2,438.7z"/>
	<path d="M163.2,438.7c-0.4,1.1-0.9,2-1.5,2.6c-0.6,0.6-1.6,1-2.7,1.2l-0.2-1.2c0.6-0.1,1.1-0.3,1.5-0.5c0.4-0.2,0.7-0.5,0.9-0.8
		c0.2-0.3,0.4-0.8,0.6-1.3h-0.5l-3.3-9.5h1.6l2.7,8.3l2.7-8.3h1.6L163.2,438.7z"/>
	<path d="M172,429.9c0.3-0.3,0.6-0.4,1-0.4c0.4,0,0.8,0.1,1,0.4c0.3,0.3,0.4,0.6,0.4,1c0,0.4-0.1,0.8-0.4,1c-0.3,0.3-0.6,0.4-1,0.4
		c-0.4,0-0.8-0.1-1-0.4c-0.3-0.3-0.4-0.6-0.4-1C171.5,430.5,171.7,430.2,172,429.9z M172,436.4c0.3-0.3,0.6-0.4,1-0.4
		c0.4,0,0.8,0.1,1,0.4c0.3,0.3,0.4,0.6,0.4,1c0,0.4-0.1,0.8-0.4,1c-0.3,0.3-0.6,0.4-1,0.4c-0.4,0-0.8-0.1-1-0.4
		c-0.3-0.3-0.4-0.6-0.4-1C171.5,437,171.7,436.7,172,436.4z"/>
	<path d="M192.5,430.5c0.4-0.5,0.8-0.9,1.4-1.1s1.1-0.4,1.7-0.4c1.8,0,2.7,0.9,2.7,2.8v6.9h-1.5v-6.9c0-0.6-0.1-1-0.4-1.2
		c-0.3-0.3-0.7-0.4-1.3-0.4c-0.5,0-1,0.2-1.4,0.5c-0.5,0.3-0.8,0.7-1.1,1.1v6.9H191v-13.3l1.5-0.2V430.5z"/>
	<path d="M206.6,437.5h2.7v1.2h-7.1v-1.2h2.9v-7.1h-2.8v-1.2h4.3V437.5z M206.2,425c0.2,0.2,0.3,0.5,0.3,0.8c0,0.3-0.1,0.6-0.3,0.8
		c-0.2,0.2-0.5,0.3-0.8,0.3c-0.3,0-0.6-0.1-0.8-0.3c-0.2-0.2-0.3-0.5-0.3-0.8c0-0.3,0.1-0.6,0.3-0.8c0.2-0.2,0.5-0.3,0.8-0.3
		C205.7,424.8,206,424.9,206.2,425z"/>
	<path d="M219.8,425.4v13.3h-1.3l-0.1-1.2c-0.3,0.5-0.8,0.8-1.2,1.1s-0.9,0.4-1.5,0.4c-1.2,0-2.1-0.4-2.7-1.3s-0.9-2.1-0.9-3.6
		c0-0.9,0.1-1.8,0.4-2.5s0.7-1.3,1.3-1.8s1.2-0.6,2-0.6c1,0,1.9,0.4,2.6,1.1v-4.9L219.8,425.4z M214.3,431.1
		c-0.4,0.6-0.6,1.6-0.6,2.8c0,1.2,0.2,2.2,0.6,2.8c0.4,0.6,1,0.9,1.7,0.9c0.9,0,1.7-0.5,2.3-1.5v-4.7c-0.3-0.4-0.6-0.7-1-0.9
		c-0.4-0.2-0.8-0.3-1.2-0.3C215.3,430.2,214.7,430.5,214.3,431.1z"/>
	<path d="M230.6,425.4v13.3h-1.3l-0.1-1.2c-0.3,0.5-0.8,0.8-1.2,1.1s-0.9,0.4-1.5,0.4c-1.2,0-2.1-0.4-2.7-1.3s-0.9-2.1-0.9-3.6
		c0-0.9,0.1-1.8,0.4-2.5s0.7-1.3,1.3-1.8s1.2-0.6,2-0.6c1,0,1.9,0.4,2.6,1.1v-4.9L230.6,425.4z M225.1,431.1
		c-0.4,0.6-0.6,1.6-0.6,2.8c0,1.2,0.2,2.2,0.6,2.8c0.4,0.6,1,0.9,1.7,0.9c0.9,0,1.7-0.5,2.3-1.5v-4.7c-0.3-0.4-0.6-0.7-1-0.9
		c-0.4-0.2-0.8-0.3-1.2-0.3C226.1,430.2,225.5,430.5,225.1,431.1z"/>
	<path d="M236.2,436.8c0.5,0.5,1.2,0.8,1.9,0.8c0.5,0,0.9-0.1,1.3-0.2c0.4-0.1,0.8-0.4,1.3-0.6l0.7,1c-0.4,0.3-1,0.6-1.5,0.8
		c-0.6,0.2-1.1,0.3-1.7,0.3c-1.4,0-2.4-0.4-3.2-1.3c-0.8-0.9-1.1-2.1-1.1-3.6c0-0.9,0.2-1.8,0.5-2.5s0.8-1.3,1.4-1.8
		c0.6-0.4,1.3-0.6,2.2-0.6c1.2,0,2.1,0.4,2.8,1.3c0.7,0.8,1,2,1,3.4c0,0.3,0,0.5,0,0.8h-6.4C235.4,435.5,235.7,436.3,236.2,436.8z
		 M236.2,431c-0.5,0.5-0.7,1.3-0.8,2.3h4.9c0-1-0.2-1.8-0.6-2.3c-0.4-0.5-1-0.8-1.7-0.8S236.6,430.5,236.2,431z"/>
	<path d="M245,429.2h1.3l0.1,1.3c0.4-0.5,0.8-0.9,1.4-1.1c0.6-0.3,1.1-0.4,1.7-0.4c1.8,0,2.7,0.9,2.7,2.8v6.9h-1.5v-5.8
		c0-0.7,0-1.2-0.1-1.6c-0.1-0.4-0.2-0.6-0.5-0.8c-0.2-0.2-0.6-0.3-1-0.3c-0.5,0-1,0.2-1.5,0.5c-0.5,0.3-0.8,0.7-1.1,1.1v6.9H245
		V429.2z"/>
	<path d="M260.4,436.1c0.3,0.3,0.4,0.6,0.4,1c0,0.4-0.1,0.9-0.3,1.4l-1.5,3.3h-1.4l0.9-3.6c-0.2-0.1-0.3-0.3-0.4-0.5
		c-0.1-0.2-0.2-0.4-0.2-0.7c0-0.4,0.1-0.8,0.4-1c0.3-0.3,0.6-0.4,1-0.4C259.8,435.7,260.1,435.8,260.4,436.1z M260.4,429.9
		c0.3,0.3,0.4,0.6,0.4,1c0,0.4-0.1,0.8-0.4,1c-0.3,0.3-0.6,0.4-1,0.4c-0.4,0-0.8-0.1-1-0.4c-0.3-0.3-0.4-0.6-0.4-1
		c0-0.4,0.1-0.7,0.4-1c0.3-0.3,0.6-0.4,1-0.4C259.8,429.5,260.1,429.6,260.4,429.9z"/>
	<path d="M43.3,445.8c0.7,0.4,1,1,1,1.9c0,0.2,0,0.3,0,0.4l-0.4,3.5c0,0.1,0,0.2,0,0.3c0,0.5,0.2,0.9,0.6,1.2
		c0.4,0.3,1.1,0.4,2.1,0.4v1.2c-1,0-1.7,0.1-2.1,0.4s-0.6,0.7-0.6,1.2c0,0.1,0,0.2,0,0.3l0.4,3.4c0,0.1,0,0.2,0,0.4
		c0,0.9-0.3,1.5-1,1.9s-1.6,0.6-2.6,0.6v-1.2c0.7,0,1.3-0.1,1.7-0.3c0.4-0.2,0.6-0.6,0.5-1.1l-0.4-3.7c0-0.2,0-0.4,0-0.5
		c0-0.6,0.1-1,0.4-1.3s0.8-0.5,1.5-0.6c-0.6-0.1-1.1-0.3-1.4-0.6c-0.3-0.3-0.5-0.8-0.5-1.3c0-0.2,0-0.3,0-0.4l0.4-3.7
		c0.1-1-0.7-1.4-2.3-1.4v-1.2C41.8,445.2,42.6,445.4,43.3,445.8z"/>
</g>
<g>
	<path d="M185,284l0.1,0.1c0,3.4-0.9,6-2.7,7.9s-4.3,2.8-7.6,2.8c-3.3,0-6-1.1-8-3.4s-3-5.4-3-9.4v-9.5c0-4,1-7.2,3-9.4
		s4.6-3.4,7.9-3.4c3.3,0,5.9,0.9,7.7,2.7s2.7,4.5,2.8,8l-0.1,0.1h-4.5c0-2.5-0.5-4.3-1.5-5.5s-2.4-1.8-4.4-1.8c-2,0-3.5,0.8-4.5,2.4
		c-1.1,1.6-1.6,3.8-1.6,6.8v9.6c0,3,0.6,5.3,1.7,6.8c1.1,1.6,2.7,2.4,4.7,2.4c2,0,3.4-0.6,4.3-1.7s1.4-3,1.4-5.5H185z"/>
	<path d="M205.8,285.7c0-1.6-0.5-2.9-1.4-4s-2.5-1.9-4.8-2.7c-3.3-1-5.7-2.3-7.5-3.9s-2.6-3.7-2.6-6.3c0-2.7,1-4.9,2.9-6.6
		s4.4-2.6,7.4-2.6c3.2,0,5.7,1,7.6,3s2.9,4.4,2.8,7.2l0,0.1h-4.6c0-2-0.5-3.6-1.5-4.9c-1-1.2-2.5-1.9-4.3-1.9
		c-1.8,0-3.1,0.5-4.1,1.6s-1.4,2.4-1.4,4c0,1.5,0.5,2.7,1.5,3.7s2.7,1.9,5.1,2.7c3.1,1,5.5,2.3,7.1,4s2.4,3.8,2.4,6.5
		c0,2.8-1,5-2.9,6.7s-4.4,2.5-7.6,2.5c-3,0-5.7-0.9-8-2.7s-3.4-4.3-3.3-7.6l0-0.1h4.6c0,2.3,0.6,4.1,1.8,5.2s2.8,1.7,4.8,1.7
		c1.8,0,3.2-0.5,4.2-1.5S205.8,287.4,205.8,285.7z"/>
	<path d="M231.3,285.7c0-1.6-0.5-2.9-1.4-4s-2.5-1.9-4.8-2.7c-3.3-1-5.7-2.3-7.5-3.9s-2.6-3.7-2.6-6.3c0-2.7,1-4.9,2.9-6.6
		s4.4-2.6,7.4-2.6c3.2,0,5.7,1,7.6,3s2.9,4.4,2.8,7.2l0,0.1h-4.6c0-2-0.5-3.6-1.5-4.9c-1-1.2-2.5-1.9-4.3-1.9
		c-1.8,0-3.1,0.5-4.1,1.6s-1.4,2.4-1.4,4c0,1.5,0.5,2.7,1.5,3.7s2.7,1.9,5.1,2.7c3.1,1,5.5,2.3,7.1,4s2.4,3.8,2.4,6.5
		c0,2.8-1,5-2.9,6.7s-4.4,2.5-7.6,2.5c-3,0-5.7-0.9-8-2.7s-3.4-4.3-3.3-7.6l0-0.1h4.6c0,2.3,0.6,4.1,1.8,5.2s2.8,1.7,4.8,1.7
		c1.8,0,3.2-0.5,4.2-1.5S231.3,287.4,231.3,285.7z"/>
</g>
</svg>
