<?xml version="1.0" encoding="utf-8"?>
<!-- Generator: Adobe Illustrator 21.1.0, SVG Export Plug-In . SVG Version: 6.00 Build 0)  -->
<svg version="1.1" id="Слой_1" xmlns="http://www.w3.org/2000/svg" xmlns:xlink="http://www.w3.org/1999/xlink" x="0px" y="0px"
	 viewBox="0 0 800 480" style="enable-background:new 0 0 800 480;" xml:space="preserve">
<style type="text/css">
	.st0{fill:#72008B;}
	.st1{fill:#FFFFFF;}
	.st2{fill:none;stroke:#000000;stroke-width:2;stroke-miterlimit:10;}
	.st3{fill:none;stroke:#CCCCCC;stroke-width:2;stroke-miterlimit:10;}
	.st4{fill:#CECCCC;}
</style>
<rect class="st0" width="400" height="480"/>
<g>
	<path class="st1" d="M96.6,52.9v14.7h-4.8V33.6h10.6c3.2,0,5.7,0.8,7.5,2.5s2.6,4.1,2.6,7.2c0,1.8-0.4,3.3-1.2,4.7s-2,2.4-3.6,3.1
		c1.7,0.6,2.9,1.6,3.7,2.9s1.1,3.1,1.1,5.1v3c0,1,0.1,2,0.3,2.9s0.6,1.6,1.1,2.1v0.5h-4.9c-0.5-0.5-0.9-1.3-1-2.3
		c-0.1-1-0.2-2.1-0.2-3.3v-2.9c0-1.9-0.4-3.4-1.3-4.5c-0.9-1.1-2.1-1.7-3.6-1.7H96.6z M96.6,49.3h5.6c1.9,0,3.3-0.5,4.3-1.6
		s1.4-2.5,1.4-4.4c0-2-0.4-3.5-1.3-4.6c-0.9-1.1-2.2-1.6-4.1-1.6h-5.9V49.3z"/>
	<path class="st1" d="M127.7,68.2c-3,0-5.4-1-7.2-3.1s-2.7-4.8-2.7-8v-3.7c0-3.3,0.9-6,2.7-8.2s4-3.2,6.8-3.2c2.9,0,5.1,1,6.6,2.9
		s2.3,4.6,2.3,7.9V56h-13.6v1c0,2.2,0.5,4,1.4,5.4s2.3,2.1,4.1,2.1c1.3,0,2.4-0.2,3.4-0.6s1.8-1,2.7-1.8l1.5,3
		c-0.8,0.9-1.9,1.6-3.2,2.2S129.4,68.2,127.7,68.2z M127.2,45.4c-1.4,0-2.5,0.7-3.3,2s-1.3,3-1.4,5.1h8.9v-1c0-1.8-0.4-3.3-1.1-4.4
		C129.6,46,128.5,45.4,127.2,45.4z"/>
	<path class="st1" d="M144.6,42.3l0.3,3.8c0.7-1.3,1.6-2.4,2.7-3.1s2.3-1.1,3.7-1.1c2.2,0,3.9,0.8,5.2,2.5s1.9,4.2,1.9,7.6v15.7
		h-4.8V52c0-2.4-0.3-4-1-5s-1.7-1.5-3-1.5c-1,0-1.8,0.3-2.6,0.9s-1.4,1.4-1.8,2.4v18.8h-4.8V42.3H144.6z"/>
	<path class="st1" d="M162.8,55.3c0-4,0.7-7.3,2.2-9.8s3.5-3.7,6.2-3.7c1.2,0,2.2,0.3,3.2,0.8s1.7,1.3,2.4,2.3V31.1h4.7v36.6h-4.1
		l-0.4-2.9c-0.7,1.1-1.5,2-2.5,2.5s-2.1,0.9-3.4,0.9c-2.6,0-4.7-1.1-6.2-3.4s-2.2-5.3-2.2-9V55.3z M167.5,55.8
		c0,2.7,0.4,4.8,1.1,6.4s2,2.3,3.6,2.3c1,0,1.9-0.3,2.6-0.8s1.3-1.4,1.8-2.4V48.9c-0.5-1-1-1.9-1.8-2.5s-1.6-0.9-2.6-0.9
		c-1.7,0-2.9,0.9-3.7,2.7s-1.2,4.1-1.2,7.1V55.8z"/>
	<path class="st1" d="M196.1,68.2c-3,0-5.4-1-7.2-3.1s-2.7-4.8-2.7-8v-3.7c0-3.3,0.9-6,2.7-8.2s4-3.2,6.8-3.2c2.9,0,5.1,1,6.6,2.9
		s2.3,4.6,2.3,7.9V56h-13.6v1c0,2.2,0.5,4,1.4,5.4s2.3,2.1,4.1,2.1c1.3,0,2.4-0.2,3.4-0.6s1.8-1,2.7-1.8l1.5,3
		c-0.8,0.9-1.9,1.6-3.2,2.2S197.9,68.2,196.1,68.2z M195.6,45.4c-1.4,0-2.5,0.7-3.3,2s-1.3,3-1.4,5.1h8.9v-1c0-1.8-0.4-3.3-1.1-4.4
		C198,46,197,45.4,195.6,45.4z"/>
	<path class="st1" d="M219.7,46.3l-2.2-0.1c-1,0-1.8,0.3-2.4,0.9s-1.1,1.4-1.5,2.5v18.1h-4.8V42.3h4.3l0.4,3.8
		c0.5-1.3,1.2-2.4,2.1-3.2s1.9-1.1,3-1.1c0.3,0,0.6,0,1,0.1s0.6,0.1,0.8,0.2L219.7,46.3z"/>
	<path class="st1" d="M254.4,37.2h-8.8v30.5h-4.8V37.2h-8.7v-3.6h22.2V37.2z"/>
	<path class="st1" d="M267.1,46.3l-2.2-0.1c-1,0-1.8,0.3-2.4,0.9s-1.1,1.4-1.5,2.5v18.1h-4.8V42.3h4.3l0.4,3.8
		c0.5-1.3,1.2-2.4,2.1-3.2s1.9-1.1,3-1.1c0.3,0,0.6,0,1,0.1s0.6,0.1,0.8,0.2L267.1,46.3z"/>
	<path class="st1" d="M279.7,68.2c-3,0-5.4-1-7.2-3.1s-2.7-4.8-2.7-8v-3.7c0-3.3,0.9-6,2.7-8.2s4-3.2,6.8-3.2c2.9,0,5.1,1,6.6,2.9
		s2.3,4.6,2.3,7.9V56h-13.6v1c0,2.2,0.5,4,1.4,5.4s2.3,2.1,4.1,2.1c1.3,0,2.4-0.2,3.4-0.6s1.8-1,2.7-1.8l1.5,3
		c-0.8,0.9-1.9,1.6-3.2,2.2S281.5,68.2,279.7,68.2z M279.2,45.4c-1.4,0-2.5,0.7-3.3,2s-1.3,3-1.4,5.1h8.9v-1c0-1.8-0.4-3.3-1.1-4.4
		C281.6,46,280.6,45.4,279.2,45.4z"/>
	<path class="st1" d="M301.5,68.2c-3,0-5.4-1-7.2-3.1s-2.7-4.8-2.7-8v-3.7c0-3.3,0.9-6,2.7-8.2s4-3.2,6.8-3.2c2.9,0,5.1,1,6.6,2.9
		s2.3,4.6,2.3,7.9V56h-13.6v1c0,2.2,0.5,4,1.4,5.4s2.3,2.1,4.1,2.1c1.3,0,2.4-0.2,3.4-0.6s1.8-1,2.7-1.8l1.5,3
		c-0.8,0.9-1.9,1.6-3.2,2.2S303.3,68.2,301.5,68.2z M301,45.4c-1.4,0-2.5,0.7-3.3,2s-1.3,3-1.4,5.1h8.9v-1c0-1.8-0.4-3.3-1.1-4.4
		C303.4,46,302.4,45.4,301,45.4z"/>
</g>
<g>
	<path class="st1" d="M44,101.6c1.2,0,2.1,0.4,2.7,1.3c0.6,0.9,0.9,2.1,0.9,3.6c0,1.5-0.3,2.7-1,3.6c-0.7,0.9-1.6,1.4-2.8,1.4
		c-1.1,0-2-0.4-2.6-1.2l-0.1,1h-1.3V98l1.5-0.2v5.2C42,102.1,43,101.6,44,101.6z M45.3,109.4c0.4-0.6,0.6-1.6,0.6-2.8
		c0-1.2-0.2-2.1-0.6-2.8s-0.9-0.9-1.7-0.9c-0.5,0-0.9,0.1-1.3,0.4c-0.4,0.3-0.8,0.6-1.1,1.1v4.7c0.3,0.4,0.6,0.7,0.9,0.9
		c0.4,0.2,0.8,0.3,1.2,0.3C44.3,110.3,44.9,110,45.3,109.4z"/>
	<path class="st1" d="M57.2,103c0.7,0.9,1.1,2.1,1.1,3.6c0,1.5-0.4,2.7-1.1,3.6c-0.7,0.9-1.7,1.4-3,1.4c-1.3,0-2.3-0.4-3-1.3
		s-1.1-2.1-1.1-3.6c0-1.5,0.4-2.7,1.1-3.6s1.7-1.4,3-1.4C55.5,101.6,56.5,102.1,57.2,103z M52.4,103.8c-0.4,0.6-0.6,1.5-0.6,2.8
		s0.2,2.2,0.6,2.8c0.4,0.6,1,0.9,1.8,0.9s1.4-0.3,1.8-0.9c0.4-0.6,0.6-1.5,0.6-2.8c0-1.2-0.2-2.2-0.6-2.8c-0.4-0.6-1-0.9-1.8-0.9
		C53.4,102.9,52.8,103.2,52.4,103.8z"/>
	<path class="st1" d="M68.6,98v13.3h-1.3l-0.1-1.2c-0.3,0.5-0.8,0.8-1.2,1.1c-0.5,0.2-0.9,0.4-1.5,0.4c-1.2,0-2.1-0.4-2.7-1.3
		c-0.6-0.9-0.9-2.1-0.9-3.6c0-0.9,0.1-1.8,0.4-2.5s0.7-1.3,1.3-1.8s1.2-0.6,2-0.6c1,0,1.9,0.4,2.6,1.1v-4.9L68.6,98z M63.1,103.8
		c-0.4,0.6-0.6,1.6-0.6,2.8c0,1.2,0.2,2.2,0.6,2.8c0.4,0.6,1,0.9,1.7,0.9c0.9,0,1.7-0.5,2.3-1.5v-4.7c-0.3-0.4-0.6-0.7-1-0.9
		c-0.4-0.2-0.8-0.3-1.2-0.3C64.1,102.9,63.5,103.2,63.1,103.8z"/>
	<path class="st1" d="M76.8,111.4c-0.4,1.1-0.9,2-1.5,2.6c-0.6,0.6-1.6,1-2.7,1.2l-0.2-1.2c0.6-0.1,1.1-0.3,1.5-0.5
		c0.4-0.2,0.7-0.5,0.9-0.8c0.2-0.3,0.4-0.8,0.6-1.3h-0.5l-3.3-9.5h1.6l2.7,8.3l2.7-8.3h1.6L76.8,111.4z"/>
	<path class="st1" d="M62.9,124.8c0.4-0.5,0.8-0.9,1.4-1.1c0.5-0.3,1.1-0.4,1.7-0.4c1.8,0,2.7,0.9,2.7,2.8v6.9h-1.5v-6.9
		c0-0.6-0.1-1-0.4-1.2c-0.3-0.3-0.7-0.4-1.3-0.4c-0.5,0-1,0.2-1.4,0.5c-0.5,0.3-0.8,0.7-1.1,1.1v6.9h-1.5v-13.3l1.5-0.2V124.8z"/>
	<path class="st1" d="M74.2,131.1c0.5,0.5,1.2,0.8,1.9,0.8c0.5,0,0.9-0.1,1.3-0.2c0.4-0.1,0.8-0.4,1.3-0.6l0.7,1
		c-0.4,0.3-1,0.6-1.5,0.8c-0.6,0.2-1.1,0.3-1.7,0.3c-1.4,0-2.4-0.4-3.2-1.3c-0.8-0.9-1.1-2.1-1.1-3.6c0-0.9,0.2-1.8,0.5-2.5
		s0.8-1.3,1.4-1.8c0.6-0.4,1.3-0.6,2.2-0.6c1.2,0,2.1,0.4,2.8,1.3c0.7,0.8,1,2,1,3.4c0,0.3,0,0.5,0,0.8h-6.4
		C73.4,129.8,73.7,130.6,74.2,131.1z M74.2,125.3c-0.5,0.5-0.7,1.3-0.8,2.3h4.9c0-1-0.2-1.8-0.6-2.3c-0.4-0.5-1-0.8-1.7-0.8
		S74.6,124.8,74.2,125.3z"/>
	<path class="st1" d="M90,131.7c0.1,0.2,0.3,0.3,0.6,0.4l-0.4,1.1c-0.9-0.1-1.5-0.6-1.7-1.3c-0.3,0.4-0.8,0.8-1.3,1
		c-0.5,0.2-1.1,0.3-1.7,0.3c-0.9,0-1.7-0.3-2.2-0.8c-0.5-0.5-0.8-1.2-0.8-2.1c0-1,0.4-1.7,1.1-2.3c0.8-0.5,1.9-0.8,3.3-0.8h1.4v-0.8
		c0-0.7-0.2-1.2-0.6-1.4c-0.4-0.3-0.9-0.4-1.7-0.4c-0.7,0-1.5,0.2-2.5,0.5l-0.4-1.2c1.1-0.4,2.2-0.6,3.1-0.6c1.2,0,2,0.3,2.6,0.8
		s0.9,1.3,0.9,2.3v4.6C89.8,131.2,89.9,131.5,90,131.7z M87.2,131.6c0.4-0.2,0.8-0.6,1.1-1v-2.4h-1.4c-1,0-1.7,0.2-2.2,0.5
		s-0.7,0.8-0.7,1.5c0,1.2,0.6,1.8,1.8,1.8C86.3,132,86.8,131.9,87.2,131.6z"/>
	<path class="st1" d="M101,119.6v13.3h-1.3l-0.1-1.2c-0.3,0.5-0.8,0.8-1.2,1.1c-0.5,0.2-0.9,0.4-1.5,0.4c-1.2,0-2.1-0.4-2.7-1.3
		c-0.6-0.9-0.9-2.1-0.9-3.6c0-0.9,0.1-1.8,0.4-2.5s0.7-1.3,1.3-1.8s1.2-0.6,2-0.6c1,0,1.9,0.4,2.6,1.1v-4.9L101,119.6z M95.5,125.4
		c-0.4,0.6-0.6,1.6-0.6,2.8c0,1.2,0.2,2.2,0.6,2.8c0.4,0.6,1,0.9,1.7,0.9c0.9,0,1.7-0.5,2.3-1.5v-4.7c-0.3-0.4-0.6-0.7-1-0.9
		c-0.4-0.2-0.8-0.3-1.2-0.3C96.5,124.5,95.9,124.8,95.5,125.4z"/>
	<path class="st1" d="M106.6,131.1c0.5,0.5,1.2,0.8,1.9,0.8c0.5,0,0.9-0.1,1.3-0.2c0.4-0.1,0.8-0.4,1.3-0.6l0.7,1
		c-0.4,0.3-1,0.6-1.5,0.8c-0.6,0.2-1.1,0.3-1.7,0.3c-1.4,0-2.4-0.4-3.2-1.3c-0.8-0.9-1.1-2.1-1.1-3.6c0-0.9,0.2-1.8,0.5-2.5
		s0.8-1.3,1.4-1.8c0.6-0.4,1.3-0.6,2.2-0.6c1.2,0,2.1,0.4,2.8,1.3c0.7,0.8,1,2,1,3.4c0,0.3,0,0.5,0,0.8h-6.4
		C105.8,129.8,106.1,130.6,106.6,131.1z M106.6,125.3c-0.5,0.5-0.7,1.3-0.8,2.3h4.9c0-1-0.2-1.8-0.6-2.3c-0.4-0.5-1-0.8-1.7-0.8
		S107,124.8,106.6,125.3z"/>
	<path class="st1" d="M123.1,123.4l-0.2,3.2h-1.2v-2h-0.1c-1.5,0-2.5,1-3.1,3.1v4h1.9v1.2h-4.9v-1.2h1.5v-7.1h-1.5v-1.2h2.6l0.3,2.3
		c0.4-0.8,0.8-1.4,1.4-1.8c0.5-0.4,1.2-0.6,2-0.6C122.2,123.2,122.6,123.3,123.1,123.4z"/>
	<path class="st1" d="M66.4,153.1c0.4-0.3,0.6-0.6,0.6-1.1c0-0.3-0.1-0.6-0.2-0.8c-0.1-0.2-0.3-0.4-0.6-0.5
		c-0.3-0.2-0.8-0.3-1.5-0.5c-1.1-0.3-1.9-0.6-2.4-1c-0.5-0.4-0.8-1-0.8-1.7c0-0.8,0.3-1.4,1-1.9c0.7-0.5,1.5-0.7,2.6-0.7
		c1.3,0,2.5,0.3,3.5,1l-0.7,1c-0.4-0.3-0.8-0.5-1.2-0.6s-0.9-0.2-1.5-0.2c-1.4,0-2.1,0.4-2.1,1.2c0,0.3,0.1,0.5,0.2,0.7
		c0.1,0.2,0.4,0.3,0.7,0.5c0.3,0.1,0.9,0.3,1.5,0.5c1,0.3,1.8,0.6,2.3,1.1c0.5,0.4,0.8,1,0.8,1.9c0,0.9-0.4,1.7-1.2,2.1
		c-0.8,0.5-1.7,0.7-2.8,0.7c-1.5,0-2.7-0.4-3.7-1.3l0.8-1c0.4,0.3,0.8,0.6,1.3,0.7c0.5,0.2,1,0.3,1.5,0.3
		C65.4,153.5,65.9,153.4,66.4,153.1z"/>
	<path class="st1" d="M74.2,152.7c0.5,0.5,1.2,0.8,1.9,0.8c0.5,0,0.9-0.1,1.3-0.2c0.4-0.1,0.8-0.4,1.3-0.6l0.7,1
		c-0.4,0.3-1,0.6-1.5,0.8c-0.6,0.2-1.1,0.3-1.7,0.3c-1.4,0-2.4-0.4-3.2-1.3c-0.8-0.9-1.1-2.1-1.1-3.6c0-0.9,0.2-1.8,0.5-2.5
		s0.8-1.3,1.4-1.8c0.6-0.4,1.3-0.6,2.2-0.6c1.2,0,2.1,0.4,2.8,1.3c0.7,0.8,1,2,1,3.4c0,0.3,0,0.5,0,0.8h-6.4
		C73.4,151.4,73.7,152.2,74.2,152.7z M74.2,146.9c-0.5,0.5-0.7,1.3-0.8,2.3h4.9c0-1-0.2-1.8-0.6-2.3c-0.4-0.5-1-0.8-1.7-0.8
		S74.6,146.4,74.2,146.9z"/>
	<path class="st1" d="M89.8,152.6l0.7,1c-0.4,0.3-0.9,0.6-1.5,0.8c-0.6,0.2-1.2,0.3-1.7,0.3c-1.4,0-2.5-0.4-3.3-1.3
		s-1.2-2.1-1.2-3.6c0-0.9,0.2-1.8,0.5-2.6s0.9-1.4,1.5-1.8c0.7-0.4,1.5-0.6,2.4-0.6c1.2,0,2.3,0.4,3.2,1.1l-0.7,1
		c-0.8-0.6-1.6-0.8-2.4-0.8c-0.9,0-1.5,0.3-2,0.9c-0.5,0.6-0.8,1.6-0.8,2.8c0,1.2,0.3,2.1,0.8,2.7c0.5,0.6,1.2,0.9,2.1,0.9
		C88.1,153.4,89,153.2,89.8,152.6z"/>
	<path class="st1" d="M100.2,154.6c-0.5,0.1-0.9,0.2-1.4,0.2c-1,0-1.8-0.3-2.3-0.8s-0.8-1.2-0.8-2.1v-5.7h-2.2V145h2.2v-2.1l1.5-0.2
		v2.3h3.3l-0.2,1.2h-3.1v5.6c0,0.5,0.1,0.9,0.4,1.2c0.3,0.3,0.8,0.4,1.4,0.4c0.6,0,1.3-0.1,1.8-0.5l0.6,1
		C101,154.3,100.6,154.4,100.2,154.6z"/>
	<path class="st1" d="M109.4,153.3h2.7v1.2H105v-1.2h2.9v-7.1h-2.8V145h4.3V153.3z M109,140.9c0.2,0.2,0.3,0.5,0.3,0.8
		s-0.1,0.6-0.3,0.8c-0.2,0.2-0.5,0.3-0.8,0.3c-0.3,0-0.6-0.1-0.8-0.3c-0.2-0.2-0.3-0.5-0.3-0.8s0.1-0.6,0.3-0.8
		c0.2-0.2,0.5-0.3,0.8-0.3C108.5,140.6,108.8,140.7,109,140.9z"/>
	<path class="st1" d="M122,146.2c0.7,0.9,1.1,2.1,1.1,3.6c0,1.5-0.4,2.7-1.1,3.6c-0.7,0.9-1.7,1.4-3,1.4c-1.3,0-2.3-0.4-3-1.3
		s-1.1-2.1-1.1-3.6c0-1.5,0.4-2.7,1.1-3.6s1.7-1.4,3-1.4C120.3,144.8,121.3,145.3,122,146.2z M117.2,147c-0.4,0.6-0.6,1.5-0.6,2.8
		s0.2,2.2,0.6,2.8c0.4,0.6,1,0.9,1.8,0.9s1.4-0.3,1.8-0.9c0.4-0.6,0.6-1.5,0.6-2.8c0-1.2-0.2-2.2-0.6-2.8c-0.4-0.6-1-0.9-1.8-0.9
		C118.2,146.1,117.6,146.4,117.2,147z"/>
	<path class="st1" d="M126.2,145h1.3l0.1,1.3c0.4-0.5,0.8-0.9,1.4-1.1s1.1-0.4,1.7-0.4c1.8,0,2.7,0.9,2.7,2.8v6.9h-1.5v-5.8
		c0-0.7,0-1.2-0.1-1.6c-0.1-0.4-0.2-0.6-0.5-0.8c-0.2-0.2-0.6-0.3-1-0.3c-0.5,0-1,0.2-1.5,0.5c-0.5,0.3-0.8,0.7-1.1,1.1v6.9h-1.5
		V145z"/>
	<path class="st1" d="M90,174.9c0.1,0.2,0.3,0.3,0.6,0.4l-0.4,1.1c-0.9-0.1-1.5-0.6-1.7-1.3c-0.3,0.4-0.8,0.8-1.3,1
		c-0.5,0.2-1.1,0.3-1.7,0.3c-0.9,0-1.7-0.3-2.2-0.8c-0.5-0.5-0.8-1.2-0.8-2.1c0-1,0.4-1.7,1.1-2.3c0.8-0.5,1.9-0.8,3.3-0.8h1.4v-0.8
		c0-0.7-0.2-1.2-0.6-1.4c-0.4-0.3-0.9-0.4-1.7-0.4c-0.7,0-1.5,0.2-2.5,0.5l-0.4-1.2c1.1-0.4,2.2-0.6,3.1-0.6c1.2,0,2,0.3,2.6,0.8
		s0.9,1.3,0.9,2.3v4.6C89.8,174.4,89.9,174.7,90,174.9z M87.2,174.8c0.4-0.2,0.8-0.6,1.1-1v-2.4h-1.4c-1,0-1.7,0.2-2.2,0.5
		s-0.7,0.8-0.7,1.5c0,1.2,0.6,1.8,1.8,1.8C86.3,175.2,86.8,175.1,87.2,174.8z"/>
	<path class="st1" d="M101.5,166.6l-0.2,3.2h-1.2v-2H100c-1.5,0-2.5,1-3.1,3.1v4h1.9v1.2h-4.9V175h1.5v-7.1h-1.5v-1.2h2.6l0.3,2.3
		c0.4-0.8,0.8-1.4,1.4-1.8c0.5-0.4,1.2-0.6,2-0.6C100.6,166.4,101,166.5,101.5,166.6z"/>
	<path class="st1" d="M111,176.2c-0.5,0.1-0.9,0.2-1.4,0.2c-1,0-1.8-0.3-2.3-0.8s-0.8-1.2-0.8-2.1v-5.7h-2.2v-1.2h2.2v-2.1l1.5-0.2
		v2.3h3.3l-0.2,1.2h-3.1v5.6c0,0.5,0.1,0.9,0.4,1.2c0.3,0.3,0.8,0.4,1.4,0.4c0.6,0,1.3-0.1,1.8-0.5l0.6,1
		C111.8,175.9,111.4,176,111,176.2z"/>
	<path class="st1" d="M120.2,174.9h2.7v1.2h-7.1v-1.2h2.9v-7.1h-2.8v-1.2h4.3V174.9z M119.8,162.5c0.2,0.2,0.3,0.5,0.3,0.8
		s-0.1,0.6-0.3,0.8c-0.2,0.2-0.5,0.3-0.8,0.3c-0.3,0-0.6-0.1-0.8-0.3c-0.2-0.2-0.3-0.5-0.3-0.8s0.1-0.6,0.3-0.8
		c0.2-0.2,0.5-0.3,0.8-0.3C119.3,162.2,119.6,162.3,119.8,162.5z"/>
	<path class="st1" d="M133,174.2l0.7,1c-0.4,0.3-0.9,0.6-1.5,0.8c-0.6,0.2-1.2,0.3-1.7,0.3c-1.4,0-2.5-0.4-3.3-1.3s-1.2-2.1-1.2-3.6
		c0-0.9,0.2-1.8,0.5-2.6s0.9-1.4,1.5-1.8c0.7-0.4,1.5-0.6,2.4-0.6c1.2,0,2.3,0.4,3.2,1.1l-0.7,1c-0.8-0.6-1.6-0.8-2.4-0.8
		c-0.9,0-1.5,0.3-2,0.9c-0.5,0.6-0.8,1.6-0.8,2.8c0,1.2,0.3,2.1,0.8,2.7c0.5,0.6,1.2,0.9,2.1,0.9C131.3,175,132.2,174.8,133,174.2z"
		/>
	<path class="st1" d="M140.7,173.8c0,0.9,0.5,1.3,1.6,1.3c0.5,0,1-0.1,1.6-0.3l0.4,1.1c-0.6,0.3-1.4,0.5-2.3,0.5
		c-0.9,0-1.5-0.2-2-0.7c-0.5-0.5-0.8-1.1-0.8-1.9V164h-2.9v-1.2h4.4V173.8z"/>
	<path class="st1" d="M149.8,174.3c0.5,0.5,1.2,0.8,1.9,0.8c0.5,0,0.9-0.1,1.3-0.2c0.4-0.1,0.8-0.4,1.3-0.6l0.7,1
		c-0.4,0.3-1,0.6-1.5,0.8c-0.6,0.2-1.1,0.3-1.7,0.3c-1.4,0-2.4-0.4-3.2-1.3c-0.8-0.9-1.1-2.1-1.1-3.6c0-0.9,0.2-1.8,0.5-2.5
		s0.8-1.3,1.4-1.8c0.6-0.4,1.3-0.6,2.2-0.6c1.2,0,2.1,0.4,2.8,1.3c0.7,0.8,1,2,1,3.4c0,0.3,0,0.5,0,0.8H149
		C149,173,149.3,173.8,149.8,174.3z M149.8,168.5c-0.5,0.5-0.7,1.3-0.8,2.3h4.9c0-1-0.2-1.8-0.6-2.3c-0.4-0.5-1-0.8-1.7-0.8
		S150.2,168,149.8,168.5z"/>
	<path class="st1" d="M161.1,173.6c0.3-0.3,0.7-0.5,1.1-0.5c0.5,0,0.8,0.2,1.1,0.5c0.3,0.3,0.4,0.7,0.4,1.1c0,0.5-0.1,0.8-0.4,1.1
		c-0.3,0.3-0.7,0.5-1.1,0.5c-0.4,0-0.8-0.2-1.1-0.5c-0.3-0.3-0.5-0.7-0.5-1.1C160.6,174.3,160.8,173.9,161.1,173.6z"/>
	<path class="st1" d="M170.9,168c0.4-0.5,0.8-0.9,1.4-1.1c0.5-0.3,1.1-0.4,1.7-0.4c1.8,0,2.7,0.9,2.7,2.8v6.9h-1.5v-6.9
		c0-0.6-0.1-1-0.4-1.2c-0.3-0.3-0.7-0.4-1.3-0.4c-0.5,0-1,0.2-1.4,0.5c-0.5,0.3-0.8,0.7-1.1,1.1v6.9h-1.5v-13.3l1.5-0.2V168z"/>
	<path class="st1" d="M185,174.9h2.7v1.2h-7.1v-1.2h2.9v-7.1h-2.8v-1.2h4.3V174.9z M184.6,162.5c0.2,0.2,0.3,0.5,0.3,0.8
		s-0.1,0.6-0.3,0.8c-0.2,0.2-0.5,0.3-0.8,0.3c-0.3,0-0.6-0.1-0.8-0.3c-0.2-0.2-0.3-0.5-0.3-0.8s0.1-0.6,0.3-0.8
		c0.2-0.2,0.5-0.3,0.8-0.3C184.1,162.2,184.4,162.3,184.6,162.5z"/>
	<path class="st1" d="M198.2,162.8v13.3h-1.3l-0.1-1.2c-0.3,0.5-0.8,0.8-1.2,1.1c-0.5,0.2-0.9,0.4-1.5,0.4c-1.2,0-2.1-0.4-2.7-1.3
		c-0.6-0.9-0.9-2.1-0.9-3.6c0-0.9,0.1-1.8,0.4-2.5s0.7-1.3,1.3-1.8s1.2-0.6,2-0.6c1,0,1.9,0.4,2.6,1.1v-4.9L198.2,162.8z
		 M192.7,168.6c-0.4,0.6-0.6,1.6-0.6,2.8c0,1.2,0.2,2.2,0.6,2.8c0.4,0.6,1,0.9,1.7,0.9c0.9,0,1.7-0.5,2.3-1.5v-4.7
		c-0.3-0.4-0.6-0.7-1-0.9c-0.4-0.2-0.8-0.3-1.2-0.3C193.7,167.7,193.1,168,192.7,168.6z"/>
	<path class="st1" d="M209,162.8v13.3h-1.3l-0.1-1.2c-0.3,0.5-0.8,0.8-1.2,1.1c-0.5,0.2-0.9,0.4-1.5,0.4c-1.2,0-2.1-0.4-2.7-1.3
		c-0.6-0.9-0.9-2.1-0.9-3.6c0-0.9,0.1-1.8,0.4-2.5s0.7-1.3,1.3-1.8s1.2-0.6,2-0.6c1,0,1.9,0.4,2.6,1.1v-4.9L209,162.8z M203.5,168.6
		c-0.4,0.6-0.6,1.6-0.6,2.8c0,1.2,0.2,2.2,0.6,2.8c0.4,0.6,1,0.9,1.7,0.9c0.9,0,1.7-0.5,2.3-1.5v-4.7c-0.3-0.4-0.6-0.7-1-0.9
		c-0.4-0.2-0.8-0.3-1.2-0.3C204.5,167.7,203.9,168,203.5,168.6z"/>
	<path class="st1" d="M214.6,174.3c0.5,0.5,1.2,0.8,1.9,0.8c0.5,0,0.9-0.1,1.3-0.2c0.4-0.1,0.8-0.4,1.3-0.6l0.7,1
		c-0.4,0.3-1,0.6-1.5,0.8c-0.6,0.2-1.1,0.3-1.7,0.3c-1.4,0-2.4-0.4-3.2-1.3c-0.8-0.9-1.1-2.1-1.1-3.6c0-0.9,0.2-1.8,0.5-2.5
		s0.8-1.3,1.4-1.8c0.6-0.4,1.3-0.6,2.2-0.6c1.2,0,2.1,0.4,2.8,1.3c0.7,0.8,1,2,1,3.4c0,0.3,0,0.5,0,0.8h-6.4
		C213.8,173,214.1,173.8,214.6,174.3z M214.6,168.5c-0.5,0.5-0.7,1.3-0.8,2.3h4.9c0-1-0.2-1.8-0.6-2.3c-0.4-0.5-1-0.8-1.7-0.8
		S215,168,214.6,168.5z"/>
	<path class="st1" d="M223.4,166.6h1.3l0.1,1.3c0.4-0.5,0.8-0.9,1.4-1.1s1.1-0.4,1.7-0.4c1.8,0,2.7,0.9,2.7,2.8v6.9h-1.5v-5.8
		c0-0.7,0-1.2-0.1-1.6c-0.1-0.4-0.2-0.6-0.5-0.8c-0.2-0.2-0.6-0.3-1-0.3c-0.5,0-1,0.2-1.5,0.5c-0.5,0.3-0.8,0.7-1.1,1.1v6.9h-1.5
		V166.6z"/>
	<path class="st1" d="M90,196.5c0.1,0.2,0.3,0.3,0.6,0.4l-0.4,1.1c-0.9-0.1-1.5-0.6-1.7-1.3c-0.3,0.4-0.8,0.8-1.3,1
		c-0.5,0.2-1.1,0.3-1.7,0.3c-0.9,0-1.7-0.3-2.2-0.8c-0.5-0.5-0.8-1.2-0.8-2.1c0-1,0.4-1.7,1.1-2.3c0.8-0.5,1.9-0.8,3.3-0.8h1.4v-0.8
		c0-0.7-0.2-1.2-0.6-1.4c-0.4-0.3-0.9-0.4-1.7-0.4c-0.7,0-1.5,0.2-2.5,0.5l-0.4-1.2c1.1-0.4,2.2-0.6,3.1-0.6c1.2,0,2,0.3,2.6,0.8
		s0.9,1.3,0.9,2.3v4.6C89.8,196,89.9,196.3,90,196.5z M87.2,196.4c0.4-0.2,0.8-0.6,1.1-1V193h-1.4c-1,0-1.7,0.2-2.2,0.5
		s-0.7,0.8-0.7,1.5c0,1.2,0.6,1.8,1.8,1.8C86.3,196.8,86.8,196.7,87.2,196.4z"/>
	<path class="st1" d="M101.5,188.2l-0.2,3.2h-1.2v-2H100c-1.5,0-2.5,1-3.1,3.1v4h1.9v1.2h-4.9v-1.2h1.5v-7.1h-1.5v-1.2h2.6l0.3,2.3
		c0.4-0.8,0.8-1.4,1.4-1.8c0.5-0.4,1.2-0.6,2-0.6C100.6,188,101,188.1,101.5,188.2z"/>
	<path class="st1" d="M111,197.8c-0.5,0.1-0.9,0.2-1.4,0.2c-1,0-1.8-0.3-2.3-0.8s-0.8-1.2-0.8-2.1v-5.7h-2.2v-1.2h2.2v-2.1l1.5-0.2
		v2.3h3.3l-0.2,1.2h-3.1v5.6c0,0.5,0.1,0.9,0.4,1.2c0.3,0.3,0.8,0.4,1.4,0.4c0.6,0,1.3-0.1,1.8-0.5l0.6,1
		C111.8,197.5,111.4,197.6,111,197.8z"/>
	<path class="st1" d="M120.2,196.5h2.7v1.2h-7.1v-1.2h2.9v-7.1h-2.8v-1.2h4.3V196.5z M119.8,184.1c0.2,0.2,0.3,0.5,0.3,0.8
		s-0.1,0.6-0.3,0.8c-0.2,0.2-0.5,0.3-0.8,0.3c-0.3,0-0.6-0.1-0.8-0.3c-0.2-0.2-0.3-0.5-0.3-0.8s0.1-0.6,0.3-0.8
		c0.2-0.2,0.5-0.3,0.8-0.3C119.3,183.8,119.6,183.9,119.8,184.1z"/>
	<path class="st1" d="M133,195.8l0.7,1c-0.4,0.3-0.9,0.6-1.5,0.8c-0.6,0.2-1.2,0.3-1.7,0.3c-1.4,0-2.5-0.4-3.3-1.3s-1.2-2.1-1.2-3.6
		c0-0.9,0.2-1.8,0.5-2.6s0.9-1.4,1.5-1.8c0.7-0.4,1.5-0.6,2.4-0.6c1.2,0,2.3,0.4,3.2,1.1l-0.7,1c-0.8-0.6-1.6-0.8-2.4-0.8
		c-0.9,0-1.5,0.3-2,0.9c-0.5,0.6-0.8,1.6-0.8,2.8c0,1.2,0.3,2.1,0.8,2.7c0.5,0.6,1.2,0.9,2.1,0.9C131.3,196.6,132.2,196.4,133,195.8
		z"/>
	<path class="st1" d="M140.7,195.4c0,0.9,0.5,1.3,1.6,1.3c0.5,0,1-0.1,1.6-0.3l0.4,1.1c-0.6,0.3-1.4,0.5-2.3,0.5
		c-0.9,0-1.5-0.2-2-0.7c-0.5-0.5-0.8-1.1-0.8-1.9v-9.7h-2.9v-1.2h4.4V195.4z"/>
	<path class="st1" d="M149.8,195.9c0.5,0.5,1.2,0.8,1.9,0.8c0.5,0,0.9-0.1,1.3-0.2c0.4-0.1,0.8-0.4,1.3-0.6l0.7,1
		c-0.4,0.3-1,0.6-1.5,0.8c-0.6,0.2-1.1,0.3-1.7,0.3c-1.4,0-2.4-0.4-3.2-1.3c-0.8-0.9-1.1-2.1-1.1-3.6c0-0.9,0.2-1.8,0.5-2.5
		s0.8-1.3,1.4-1.8c0.6-0.4,1.3-0.6,2.2-0.6c1.2,0,2.1,0.4,2.8,1.3c0.7,0.8,1,2,1,3.4c0,0.3,0,0.5,0,0.8H149
		C149,194.6,149.3,195.4,149.8,195.9z M149.8,190.1c-0.5,0.5-0.7,1.3-0.8,2.3h4.9c0-1-0.2-1.8-0.6-2.3c-0.4-0.5-1-0.8-1.7-0.8
		S150.2,189.6,149.8,190.1z"/>
	<path class="st1" d="M104.5,206.9h3V217h5.4l-0.3,2.3h-8.1V206.9z"/>
	<path class="st1" d="M122.4,210.8c0.8,0.9,1.2,2.2,1.2,3.7c0,1.6-0.4,2.9-1.2,3.8s-2,1.4-3.4,1.4s-2.6-0.4-3.4-1.3
		c-0.8-0.9-1.2-2.1-1.2-3.8c0-1,0.2-1.9,0.5-2.7c0.4-0.8,0.9-1.4,1.6-1.8c0.7-0.4,1.5-0.6,2.5-0.6
		C120.5,209.5,121.6,209.9,122.4,210.8z M117.7,212.3c-0.3,0.5-0.4,1.2-0.4,2.3c0,1.1,0.1,1.8,0.4,2.3c0.3,0.5,0.7,0.7,1.3,0.7
		s1-0.2,1.3-0.7s0.4-1.2,0.4-2.3c0-1-0.1-1.8-0.4-2.3s-0.7-0.7-1.3-0.7S118,211.8,117.7,212.3z"/>
	<path class="st1" d="M134.5,209.8l-0.5,4h-1.8V212c-0.5,0.1-1,0.4-1.4,0.8c-0.4,0.5-0.7,1.1-1,1.8v2.7h1.9v1.9h-6v-1.9h1.3v-5.8
		h-1.3v-1.9h3.4l0.5,2.1c0.3-0.8,0.8-1.4,1.3-1.8c0.5-0.4,1.2-0.6,1.9-0.6C133.5,209.5,134.1,209.6,134.5,209.8z"/>
	<path class="st1" d="M141.2,217.6c0.8,0,1.6-0.3,2.4-0.8l1.1,1.5c-0.5,0.4-1,0.7-1.7,1s-1.4,0.4-2.1,0.4c-1.1,0-2-0.2-2.7-0.6
		c-0.7-0.4-1.3-1-1.7-1.8c-0.4-0.8-0.6-1.6-0.6-2.7c0-1,0.2-1.8,0.5-2.6c0.4-0.8,0.9-1.4,1.6-1.8s1.5-0.7,2.5-0.7
		c0.9,0,1.7,0.2,2.4,0.6c0.7,0.4,1.2,1,1.6,1.7s0.5,1.6,0.5,2.6c0,0.4,0,0.7-0.1,1h-6.2C139.1,216.8,139.9,217.6,141.2,217.6z
		 M139.4,211.9c-0.3,0.4-0.5,1-0.6,1.7h3.5c0-1.5-0.6-2.3-1.7-2.3C140.2,211.4,139.8,211.5,139.4,211.9z"/>
	<path class="st1" d="M155.8,210.1c0.3,0.5,0.5,1.2,0.5,2.1v7.1h-2.4v-6.8c0-0.3,0-0.6-0.1-0.7c-0.1-0.1-0.2-0.2-0.4-0.2
		c-0.3,0-0.7,0.2-1,0.6v7h-2v-6.8c0-0.3,0-0.6-0.1-0.7c-0.1-0.1-0.2-0.2-0.4-0.2c-0.3,0-0.7,0.2-1,0.6v7h-2.5v-9.6h2.1l0.2,0.9
		c0.3-0.4,0.6-0.7,0.9-0.9c0.3-0.2,0.7-0.3,1.1-0.3c0.4,0,0.7,0.1,0.9,0.3s0.4,0.5,0.5,0.9c0.6-0.8,1.4-1.1,2.1-1.1
		C155,209.5,155.5,209.7,155.8,210.1z"/>
	<path class="st1" d="M174.7,217.4h2.4v1.9h-8v-1.9h2.7v-5.7h-2.6v-1.9h5.5V217.4z M174.2,205.2c0.3,0.3,0.5,0.7,0.5,1.1
		c0,0.5-0.2,0.9-0.5,1.2c-0.3,0.3-0.7,0.5-1.2,0.5s-0.9-0.2-1.2-0.5c-0.3-0.3-0.5-0.7-0.5-1.1s0.2-0.8,0.5-1.1s0.7-0.5,1.2-0.5
		S173.9,204.9,174.2,205.2z"/>
	<path class="st1" d="M187.6,210.8c0.6,0.9,0.8,2.1,0.8,3.8c0,1-0.1,1.9-0.4,2.6c-0.3,0.8-0.7,1.4-1.3,1.8c-0.6,0.4-1.2,0.7-2,0.7
		c-0.9,0-1.7-0.3-2.3-1v4.4l-2.8,0.3v-13.6h2.5l0.1,1.1c0.4-0.5,0.8-0.8,1.3-1c0.5-0.2,0.9-0.3,1.4-0.3
		C186.2,209.5,187,209.9,187.6,210.8z M182.5,212.7v4c0.2,0.3,0.4,0.5,0.6,0.6c0.2,0.1,0.5,0.2,0.8,0.2c0.5,0,0.9-0.2,1.2-0.7
		c0.3-0.5,0.4-1.2,0.4-2.3c0-1.1-0.1-1.9-0.4-2.3c-0.2-0.4-0.6-0.7-1.1-0.7C183.5,211.6,182.9,211.9,182.5,212.7z"/>
	<path class="st1" d="M195.5,217.4c0.3-0.1,0.4-0.4,0.4-0.7c0-0.2-0.1-0.4-0.2-0.5c-0.1-0.1-0.3-0.3-0.6-0.4
		c-0.3-0.1-0.8-0.3-1.5-0.5c-1-0.3-1.7-0.6-2.2-1.1c-0.5-0.5-0.8-1.1-0.8-1.9c0-0.9,0.4-1.6,1.1-2.1c0.7-0.6,1.7-0.8,3.1-0.8
		c1.5,0,2.8,0.4,3.9,1.2l-1.1,1.7c-0.9-0.5-1.8-0.8-2.6-0.8c-0.5,0-0.8,0.1-1,0.2c-0.2,0.1-0.3,0.3-0.3,0.6c0,0.2,0.1,0.3,0.2,0.4
		c0.1,0.1,0.3,0.2,0.6,0.4c0.3,0.1,0.8,0.3,1.4,0.4c0.7,0.2,1.2,0.4,1.7,0.6s0.8,0.5,1,0.9c0.2,0.4,0.4,0.9,0.4,1.5
		c0,0.7-0.2,1.2-0.6,1.7c-0.4,0.5-1,0.8-1.6,1.1c-0.7,0.2-1.4,0.4-2.3,0.4c-0.9,0-1.7-0.1-2.4-0.4c-0.7-0.3-1.3-0.6-1.8-1.1l1.4-1.6
		c0.9,0.7,1.8,1,2.8,1C194.8,217.6,195.2,217.5,195.5,217.4z"/>
	<path class="st1" d="M204.1,216.3c0,0.4,0.1,0.8,0.2,0.9c0.2,0.2,0.4,0.3,0.7,0.3c0.3,0,0.6-0.1,0.9-0.3c0.3-0.2,0.5-0.4,0.7-0.8
		v-6.7h2.8v9.6h-2.5l-0.1-1.1c-0.3,0.5-0.7,0.8-1.3,1.1c-0.5,0.2-1.1,0.4-1.7,0.4c-0.9,0-1.6-0.3-2-0.8c-0.5-0.5-0.7-1.3-0.7-2.2
		v-6.9h2.8V216.3z"/>
	<path class="st1" d="M220.6,210.1c0.3,0.5,0.5,1.2,0.5,2.1v7.1h-2.4v-6.8c0-0.3,0-0.6-0.1-0.7c-0.1-0.1-0.2-0.2-0.4-0.2
		c-0.3,0-0.7,0.2-1,0.6v7h-2v-6.8c0-0.3,0-0.6-0.1-0.7c-0.1-0.1-0.2-0.2-0.4-0.2c-0.3,0-0.7,0.2-1,0.6v7h-2.5v-9.6h2.1l0.2,0.9
		c0.3-0.4,0.6-0.7,0.9-0.9c0.3-0.2,0.7-0.3,1.1-0.3c0.4,0,0.7,0.1,0.9,0.3s0.4,0.5,0.5,0.9c0.6-0.8,1.4-1.1,2.1-1.1
		C219.8,209.5,220.3,209.7,220.6,210.1z"/>
	<path class="st1" d="M228.2,216.9c0.3,0.3,0.5,0.7,0.5,1.1c0,0.5-0.2,0.8-0.5,1.2s-0.7,0.5-1.2,0.5c-0.4,0-0.8-0.2-1.1-0.5
		s-0.5-0.7-0.5-1.2c0-0.4,0.2-0.8,0.5-1.1c0.3-0.3,0.7-0.5,1.1-0.5C227.5,216.4,227.8,216.5,228.2,216.9z M228.2,214.7h-2.3
		l-0.4-7.9h3L228.2,214.7z"/>
	<path class="st1" d="M106.3,238.2l-0.6,2.7h-3.1l3.8-12.5h3.6l3.8,12.5h-3.2l-0.6-2.7H106.3z M109.5,236.1l-1.4-5.5l-1.3,5.5H109.5
		z"/>
	<path class="st1" d="M119.8,237.9c0,0.7,0.4,1.1,1.2,1.1c0.4,0,0.9-0.1,1.4-0.3l0.7,1.9c-0.8,0.4-1.7,0.6-2.8,0.6
		c-1.1,0-2-0.3-2.5-1c-0.6-0.6-0.8-1.5-0.8-2.7v-8h-2.8v-1.9h5.7V237.9z"/>
	<path class="st1" d="M130.6,237.9c0,0.7,0.4,1.1,1.2,1.1c0.4,0,0.9-0.1,1.4-0.3l0.7,1.9c-0.8,0.4-1.7,0.6-2.8,0.6
		c-1.1,0-2-0.3-2.5-1c-0.6-0.6-0.8-1.5-0.8-2.7v-8H125v-1.9h5.7V237.9z"/>
	<path class="st1" d="M150.1,232.3c0.8-0.9,1.7-1.3,2.8-1.3c0.8,0,1.5,0.2,1.9,0.7s0.7,1.2,0.7,2.1v7h-2.8v-6.2c0-0.6-0.1-1-0.2-1.2
		c-0.1-0.2-0.4-0.3-0.7-0.3c-0.3,0-0.6,0.1-0.8,0.3c-0.3,0.2-0.5,0.5-0.8,0.9v6.6h-2.8v-13.4l2.8-0.3V232.3z"/>
	<path class="st1" d="M166.3,239c0.1,0.2,0.3,0.3,0.5,0.4l-0.6,1.9c-0.6-0.1-1.1-0.2-1.4-0.4s-0.7-0.5-0.9-0.9
		c-0.4,0.4-0.8,0.7-1.4,1c-0.6,0.2-1.1,0.3-1.8,0.3c-1,0-1.8-0.3-2.4-0.8c-0.6-0.6-0.9-1.3-0.9-2.2c0-1,0.4-1.8,1.2-2.4
		c0.8-0.6,2-0.9,3.4-0.9h1.3v-0.3c0-1-0.6-1.5-1.9-1.5c-0.3,0-0.7,0-1.2,0.1c-0.5,0.1-1,0.2-1.4,0.4l-0.6-1.9
		c0.6-0.2,1.3-0.4,1.9-0.5s1.3-0.2,1.8-0.2c2.8,0,4.2,1.1,4.2,3.4v3.7C166.1,238.5,166.2,238.8,166.3,239z M162.6,238.9
		c0.3-0.2,0.6-0.4,0.7-0.8v-1.6h-0.7c-1.5,0-2.3,0.5-2.3,1.4c0,0.4,0.1,0.7,0.3,0.9s0.5,0.3,0.9,0.3
		C162,239.2,162.3,239.1,162.6,238.9z"/>
	<path class="st1" d="M174.7,239h2.4v1.9h-8V239h2.7v-5.7h-2.6v-1.9h5.5V239z M174.2,226.8c0.3,0.3,0.5,0.7,0.5,1.1
		c0,0.5-0.2,0.9-0.5,1.2c-0.3,0.3-0.7,0.5-1.2,0.5s-0.9-0.2-1.2-0.5c-0.3-0.3-0.5-0.7-0.5-1.1s0.2-0.8,0.5-1.1s0.7-0.5,1.2-0.5
		S173.9,226.5,174.2,226.8z"/>
	<path class="st1" d="M184.6,237.9c0,0.7,0.4,1.1,1.2,1.1c0.4,0,0.9-0.1,1.4-0.3l0.7,1.9c-0.8,0.4-1.7,0.6-2.8,0.6
		c-1.1,0-2-0.3-2.5-1c-0.6-0.6-0.8-1.5-0.8-2.7v-8H179v-1.9h5.7V237.9z"/>
	<path class="st1" d="M206.2,237.9c0,0.7,0.4,1.1,1.2,1.1c0.4,0,0.9-0.1,1.4-0.3l0.7,1.9c-0.8,0.4-1.7,0.6-2.8,0.6
		c-1.1,0-2-0.3-2.5-1c-0.6-0.6-0.8-1.5-0.8-2.7v-8h-2.8v-1.9h5.7V237.9z"/>
	<path class="st1" d="M219.6,232.4c0.8,0.9,1.2,2.2,1.2,3.7c0,1.6-0.4,2.9-1.2,3.8c-0.8,0.9-2,1.3-3.4,1.3s-2.6-0.4-3.4-1.3
		c-0.8-0.9-1.2-2.1-1.2-3.8c0-1,0.2-1.9,0.5-2.7c0.4-0.8,0.9-1.4,1.6-1.8c0.7-0.4,1.5-0.6,2.5-0.6
		C217.7,231.1,218.8,231.5,219.6,232.4z M214.9,233.9c-0.3,0.5-0.4,1.2-0.4,2.3c0,1.1,0.1,1.8,0.4,2.3c0.3,0.5,0.7,0.7,1.3,0.7
		s1-0.2,1.3-0.7c0.3-0.5,0.4-1.2,0.4-2.3c0-1-0.1-1.8-0.4-2.3c-0.3-0.5-0.7-0.7-1.3-0.7S215.2,233.4,214.9,233.9z"/>
	<path class="st1" d="M231.7,231.4l-0.5,4h-1.8v-1.7c-0.5,0.1-1,0.4-1.4,0.8c-0.4,0.5-0.7,1.1-1,1.8v2.7h1.9v1.9h-6V239h1.3v-5.8
		h-1.3v-1.9h3.4l0.5,2.1c0.3-0.8,0.8-1.4,1.3-1.8c0.5-0.4,1.2-0.6,1.9-0.6C230.7,231.1,231.3,231.2,231.7,231.4z"/>
	<path class="st1" d="M238.4,239.2c0.8,0,1.6-0.3,2.4-0.8l1.1,1.5c-0.5,0.4-1,0.7-1.7,1s-1.4,0.4-2.1,0.4c-1.1,0-2-0.2-2.7-0.6
		c-0.7-0.4-1.3-1-1.7-1.8c-0.4-0.8-0.6-1.6-0.6-2.7c0-1,0.2-1.8,0.5-2.6c0.4-0.8,0.9-1.4,1.6-1.8s1.5-0.7,2.5-0.7
		c0.9,0,1.7,0.2,2.4,0.6c0.7,0.4,1.2,1,1.6,1.7s0.5,1.6,0.5,2.6c0,0.4,0,0.7-0.1,1h-6.2C236.3,238.4,237.1,239.2,238.4,239.2z
		 M236.6,233.5c-0.3,0.4-0.5,1-0.6,1.7h3.5c0-1.5-0.6-2.3-1.7-2.3C237.4,233,237,233.1,236.6,233.5z"/>
	<path class="st1" d="M253,231.7c0.3,0.5,0.5,1.2,0.5,2.1v7.1h-2.4v-6.7c0-0.3,0-0.6-0.1-0.7c-0.1-0.1-0.2-0.2-0.4-0.2
		c-0.3,0-0.7,0.2-1,0.6v7h-2v-6.7c0-0.3,0-0.6-0.1-0.7c-0.1-0.1-0.2-0.2-0.4-0.2c-0.3,0-0.7,0.2-1,0.6v7h-2.5v-9.6h2.1l0.2,0.9
		c0.3-0.4,0.6-0.7,0.9-0.9c0.3-0.2,0.7-0.3,1.1-0.3c0.4,0,0.7,0.1,0.9,0.3s0.4,0.5,0.5,0.9c0.6-0.8,1.4-1.1,2.1-1.1
		C252.2,231.1,252.7,231.3,253,231.7z"/>
	<path class="st1" d="M271.9,239h2.4v1.9h-8V239h2.7v-5.7h-2.6v-1.9h5.5V239z M271.4,226.8c0.3,0.3,0.5,0.7,0.5,1.1
		c0,0.5-0.2,0.9-0.5,1.2c-0.3,0.3-0.7,0.5-1.2,0.5s-0.9-0.2-1.2-0.5c-0.3-0.3-0.5-0.7-0.5-1.1s0.2-0.8,0.5-1.1s0.7-0.5,1.2-0.5
		S271.1,226.5,271.4,226.8z"/>
	<path class="st1" d="M284.8,232.4c0.6,0.9,0.8,2.1,0.8,3.8c0,1-0.1,1.9-0.4,2.6c-0.3,0.8-0.7,1.4-1.3,1.8c-0.6,0.4-1.2,0.7-2,0.7
		c-0.9,0-1.7-0.3-2.3-1v4.4l-2.8,0.3v-13.6h2.5l0.1,1.1c0.4-0.5,0.8-0.8,1.3-1c0.5-0.2,0.9-0.3,1.4-0.3
		C283.4,231.1,284.2,231.5,284.8,232.4z M279.7,234.3v4c0.2,0.3,0.4,0.5,0.6,0.6c0.2,0.1,0.5,0.2,0.8,0.2c0.5,0,0.9-0.2,1.2-0.7
		c0.3-0.5,0.4-1.2,0.4-2.3c0-1.1-0.1-1.9-0.4-2.3c-0.2-0.4-0.6-0.7-1.1-0.7C280.7,233.2,280.1,233.5,279.7,234.3z"/>
	<path class="st1" d="M292.7,239c0.3-0.1,0.4-0.4,0.4-0.7c0-0.2-0.1-0.4-0.2-0.5c-0.1-0.1-0.3-0.3-0.6-0.4c-0.3-0.1-0.8-0.3-1.5-0.5
		c-1-0.3-1.7-0.6-2.2-1.1s-0.8-1.1-0.8-1.9c0-0.9,0.4-1.6,1.1-2.1c0.7-0.6,1.7-0.8,3.1-0.8c1.5,0,2.8,0.4,3.9,1.2l-1.1,1.7
		c-0.9-0.5-1.8-0.8-2.6-0.8c-0.5,0-0.8,0.1-1,0.2c-0.2,0.1-0.3,0.3-0.3,0.6c0,0.2,0.1,0.3,0.2,0.4c0.1,0.1,0.3,0.2,0.6,0.4
		c0.3,0.1,0.8,0.3,1.4,0.5c0.7,0.2,1.2,0.4,1.7,0.6s0.8,0.5,1,0.9c0.2,0.4,0.4,0.9,0.4,1.5c0,0.7-0.2,1.2-0.6,1.7
		c-0.4,0.5-1,0.8-1.6,1.1c-0.7,0.2-1.4,0.4-2.3,0.4c-0.9,0-1.7-0.1-2.4-0.4c-0.7-0.3-1.3-0.6-1.8-1.1l1.4-1.6c0.9,0.7,1.8,1,2.8,1
		C292,239.2,292.4,239.1,292.7,239z"/>
	<path class="st1" d="M301.3,237.9c0,0.4,0.1,0.8,0.2,0.9c0.2,0.2,0.4,0.3,0.7,0.3c0.3,0,0.6-0.1,0.9-0.3c0.3-0.2,0.5-0.4,0.7-0.8
		v-6.7h2.8v9.6h-2.5l-0.1-1.1c-0.3,0.5-0.7,0.8-1.3,1.1c-0.5,0.2-1.1,0.4-1.7,0.4c-0.9,0-1.6-0.3-2-0.8c-0.5-0.5-0.7-1.3-0.7-2.2
		v-6.9h2.8V237.9z"/>
	<path class="st1" d="M317.8,231.7c0.3,0.5,0.5,1.2,0.5,2.1v7.1h-2.4v-6.7c0-0.3,0-0.6-0.1-0.7c-0.1-0.1-0.2-0.2-0.4-0.2
		c-0.3,0-0.7,0.2-1,0.6v7h-2v-6.7c0-0.3,0-0.6-0.1-0.7c-0.1-0.1-0.2-0.2-0.4-0.2c-0.3,0-0.7,0.2-1,0.6v7h-2.5v-9.6h2.1l0.2,0.9
		c0.3-0.4,0.6-0.7,0.9-0.9c0.3-0.2,0.7-0.3,1.1-0.3c0.4,0,0.7,0.1,0.9,0.3s0.4,0.5,0.5,0.9c0.6-0.8,1.4-1.1,2.1-1.1
		C317,231.1,317.5,231.3,317.8,231.7z"/>
	<path class="st1" d="M325.4,238.5c0.3,0.3,0.5,0.7,0.5,1.1c0,0.5-0.2,0.8-0.5,1.2c-0.3,0.3-0.7,0.5-1.2,0.5c-0.4,0-0.8-0.2-1.1-0.5
		c-0.3-0.3-0.5-0.7-0.5-1.2c0-0.4,0.2-0.8,0.5-1.1c0.3-0.3,0.7-0.5,1.1-0.5C324.7,238,325,238.1,325.4,238.5z M325.4,236.3h-2.3
		l-0.4-7.9h3L325.4,236.3z"/>
	<path class="st1" d="M90,261.3c0.1,0.2,0.3,0.3,0.6,0.4l-0.4,1.1c-0.9-0.1-1.5-0.6-1.7-1.3c-0.3,0.4-0.8,0.8-1.3,1
		c-0.5,0.2-1.1,0.3-1.7,0.3c-0.9,0-1.7-0.3-2.2-0.8c-0.5-0.5-0.8-1.2-0.8-2.1c0-1,0.4-1.7,1.1-2.3c0.8-0.5,1.9-0.8,3.3-0.8h1.4V256
		c0-0.7-0.2-1.2-0.6-1.4c-0.4-0.3-0.9-0.4-1.7-0.4c-0.7,0-1.5,0.2-2.5,0.5l-0.4-1.2c1.1-0.4,2.2-0.6,3.1-0.6c1.2,0,2,0.3,2.6,0.8
		s0.9,1.3,0.9,2.3v4.6C89.8,260.8,89.9,261.1,90,261.3z M87.2,261.2c0.4-0.2,0.8-0.6,1.1-1v-2.4h-1.4c-1,0-1.7,0.2-2.2,0.5
		s-0.7,0.8-0.7,1.5c0,1.2,0.6,1.8,1.8,1.8C86.3,261.6,86.8,261.5,87.2,261.2z"/>
	<path class="st1" d="M101.5,253l-0.2,3.2h-1.2v-2H100c-1.5,0-2.5,1-3.1,3.1v4h1.9v1.2h-4.9v-1.2h1.5v-7.1h-1.5V253h2.6l0.3,2.3
		c0.4-0.8,0.8-1.4,1.4-1.8c0.5-0.4,1.2-0.6,2-0.6C100.6,252.8,101,252.9,101.5,253z"/>
	<path class="st1" d="M111,262.6c-0.5,0.1-0.9,0.2-1.4,0.2c-1,0-1.8-0.3-2.3-0.8c-0.6-0.5-0.8-1.2-0.8-2.1v-5.7h-2.2V253h2.2v-2.1
		l1.5-0.2v2.3h3.3l-0.2,1.2h-3.1v5.6c0,0.5,0.1,0.9,0.4,1.2s0.8,0.4,1.4,0.4c0.6,0,1.3-0.2,1.8-0.5l0.6,1
		C111.8,262.3,111.4,262.4,111,262.6z"/>
	<path class="st1" d="M120.2,261.3h2.7v1.2h-7.1v-1.2h2.9v-7.1h-2.8V253h4.3V261.3z M119.8,248.9c0.2,0.2,0.3,0.5,0.3,0.8
		c0,0.3-0.1,0.6-0.3,0.8s-0.5,0.3-0.8,0.3c-0.3,0-0.6-0.1-0.8-0.3c-0.2-0.2-0.3-0.5-0.3-0.8c0-0.3,0.1-0.6,0.3-0.8
		c0.2-0.2,0.5-0.3,0.8-0.3C119.3,248.6,119.6,248.7,119.8,248.9z"/>
	<path class="st1" d="M133,260.6l0.7,1c-0.4,0.3-0.9,0.6-1.5,0.8c-0.6,0.2-1.2,0.3-1.7,0.3c-1.4,0-2.5-0.4-3.3-1.3s-1.2-2.1-1.2-3.6
		c0-0.9,0.2-1.8,0.5-2.6s0.9-1.3,1.5-1.8c0.7-0.4,1.5-0.6,2.4-0.6c1.2,0,2.3,0.4,3.2,1.1l-0.7,1c-0.8-0.6-1.6-0.8-2.4-0.8
		c-0.9,0-1.5,0.3-2,0.9c-0.5,0.6-0.8,1.6-0.8,2.8c0,1.2,0.3,2.1,0.8,2.7c0.5,0.6,1.2,0.9,2.1,0.9C131.3,261.4,132.2,261.2,133,260.6
		z"/>
	<path class="st1" d="M140.7,260.2c0,0.9,0.5,1.3,1.6,1.3c0.5,0,1-0.1,1.6-0.3l0.4,1.1c-0.6,0.3-1.4,0.5-2.3,0.5
		c-0.9,0-1.5-0.2-2-0.7c-0.5-0.5-0.8-1.1-0.8-1.9v-9.7h-2.9v-1.2h4.4V260.2z"/>
	<path class="st1" d="M149.8,260.7c0.5,0.5,1.2,0.8,1.9,0.8c0.5,0,0.9-0.1,1.3-0.2c0.4-0.1,0.8-0.4,1.3-0.6l0.7,1
		c-0.4,0.3-1,0.6-1.5,0.8c-0.6,0.2-1.1,0.3-1.7,0.3c-1.4,0-2.4-0.4-3.2-1.3c-0.8-0.9-1.1-2.1-1.1-3.6c0-0.9,0.2-1.8,0.5-2.5
		s0.8-1.3,1.4-1.8c0.6-0.4,1.3-0.6,2.2-0.6c1.2,0,2.1,0.4,2.8,1.3s1,2,1,3.4c0,0.3,0,0.5,0,0.8H149
		C149,259.4,149.3,260.2,149.8,260.7z M149.8,254.9c-0.5,0.5-0.7,1.3-0.8,2.3h4.9c0-1-0.2-1.8-0.6-2.3c-0.4-0.5-1-0.8-1.7-0.8
		S150.2,254.4,149.8,254.9z"/>
	<path class="st1" d="M109.4,282.9h2.7v1.2H105v-1.2h2.9v-7.1h-2.8v-1.2h4.3V282.9z M109,270.5c0.2,0.2,0.3,0.5,0.3,0.8
		c0,0.3-0.1,0.6-0.3,0.8s-0.5,0.3-0.8,0.3c-0.3,0-0.6-0.1-0.8-0.3c-0.2-0.2-0.3-0.5-0.3-0.8c0-0.3,0.1-0.6,0.3-0.8
		c0.2-0.2,0.5-0.3,0.8-0.3C108.5,270.2,108.8,270.3,109,270.5z"/>
	<path class="st1" d="M123,275c0.3,0.4,0.5,1.1,0.5,2.1v7.1h-1.4v-6.8c0-0.7,0-1.1-0.1-1.3c-0.1-0.2-0.3-0.4-0.6-0.4
		c-0.6,0-1.2,0.4-1.7,1.1v7.4h-1.4v-6.8c0-0.7,0-1.1-0.1-1.3c-0.1-0.2-0.3-0.4-0.6-0.4c-0.6,0-1.2,0.4-1.7,1.1v7.4h-1.4v-9.5h1.2
		l0.1,1.1c0.3-0.4,0.6-0.7,0.9-1s0.7-0.3,1.1-0.3c0.9,0,1.5,0.4,1.7,1.3c0.3-0.4,0.6-0.7,0.9-0.9c0.3-0.2,0.7-0.3,1.2-0.3
		C122.2,274.4,122.6,274.6,123,275z"/>
	<path class="st1" d="M134.4,275.1c-0.4,0.1-0.8,0.2-1.2,0.2c-0.4,0-1,0-1.6,0c1.1,0.5,1.7,1.3,1.7,2.4c0,1-0.3,1.7-1,2.3
		c-0.6,0.6-1.5,0.9-2.6,0.9c-0.6,0-1-0.1-1.4-0.2c-0.1,0.1-0.3,0.2-0.4,0.4s-0.1,0.3-0.1,0.5c0,0.5,0.4,0.8,1.3,0.8h1.7
		c0.6,0,1.2,0.1,1.7,0.3c0.5,0.2,0.9,0.5,1.2,0.9c0.3,0.4,0.4,0.8,0.4,1.3c0,0.9-0.4,1.6-1.2,2.1c-0.8,0.5-1.9,0.7-3.3,0.7
		c-1.5,0-2.5-0.2-3.1-0.7s-0.9-1.2-0.9-2.2h1.4c0,0.4,0.1,0.7,0.2,0.9c0.1,0.2,0.4,0.4,0.8,0.5c0.4,0.1,0.9,0.2,1.6,0.2
		c1,0,1.8-0.1,2.3-0.4c0.5-0.3,0.7-0.7,0.7-1.2c0-0.4-0.2-0.8-0.6-1c-0.4-0.2-0.9-0.4-1.5-0.4h-1.7c-0.8,0-1.4-0.2-1.8-0.5
		c-0.4-0.3-0.6-0.8-0.6-1.3c0-0.3,0.1-0.6,0.3-0.9s0.4-0.5,0.8-0.8c-0.5-0.3-0.9-0.6-1.2-1.1c-0.3-0.4-0.4-0.9-0.4-1.6
		c0-0.6,0.2-1.2,0.5-1.7s0.8-0.9,1.3-1.2s1.2-0.4,2-0.4c1.1,0,1.9-0.1,2.5-0.2c0.6-0.1,1.2-0.3,1.9-0.6L134.4,275.1z M127.9,276.1
		c-0.4,0.4-0.6,0.9-0.6,1.6s0.2,1.2,0.6,1.6c0.4,0.4,0.9,0.6,1.7,0.6c0.7,0,1.2-0.2,1.5-0.6s0.5-0.9,0.5-1.6c0-1.4-0.7-2.2-2.1-2.2
		C128.9,275.6,128.3,275.8,127.9,276.1z"/>
	<path class="st1" d="M109.4,304.5h2.7v1.2H105v-1.2h2.9v-7.1h-2.8v-1.2h4.3V304.5z M109,292.1c0.2,0.2,0.3,0.5,0.3,0.8
		c0,0.3-0.1,0.6-0.3,0.8s-0.5,0.3-0.8,0.3c-0.3,0-0.6-0.1-0.8-0.3c-0.2-0.2-0.3-0.5-0.3-0.8c0-0.3,0.1-0.6,0.3-0.8
		c0.2-0.2,0.5-0.3,0.8-0.3C108.5,291.8,108.8,291.9,109,292.1z"/>
	<path class="st1" d="M123,296.6c0.3,0.4,0.5,1.1,0.5,2.1v7.1h-1.4v-6.8c0-0.7,0-1.1-0.1-1.3c-0.1-0.2-0.3-0.4-0.6-0.4
		c-0.6,0-1.2,0.4-1.7,1.1v7.4h-1.4v-6.8c0-0.7,0-1.1-0.1-1.3c-0.1-0.2-0.3-0.4-0.6-0.4c-0.6,0-1.2,0.4-1.7,1.1v7.4h-1.4v-9.5h1.2
		l0.1,1.1c0.3-0.4,0.6-0.7,0.9-1s0.7-0.3,1.1-0.3c0.9,0,1.5,0.4,1.7,1.3c0.3-0.4,0.6-0.7,0.9-0.9c0.3-0.2,0.7-0.3,1.2-0.3
		C122.2,296,122.6,296.2,123,296.6z"/>
	<path class="st1" d="M134.4,296.7c-0.4,0.1-0.8,0.2-1.2,0.2c-0.4,0-1,0-1.6,0c1.1,0.5,1.7,1.3,1.7,2.4c0,1-0.3,1.7-1,2.3
		c-0.6,0.6-1.5,0.9-2.6,0.9c-0.6,0-1-0.1-1.4-0.2c-0.1,0.1-0.3,0.2-0.4,0.4s-0.1,0.3-0.1,0.5c0,0.5,0.4,0.8,1.3,0.8h1.7
		c0.6,0,1.2,0.1,1.7,0.3c0.5,0.2,0.9,0.5,1.2,0.9c0.3,0.4,0.4,0.8,0.4,1.3c0,0.9-0.4,1.6-1.2,2.1c-0.8,0.5-1.9,0.7-3.3,0.7
		c-1.5,0-2.5-0.2-3.1-0.7s-0.9-1.2-0.9-2.2h1.4c0,0.4,0.1,0.7,0.2,0.9c0.1,0.2,0.4,0.4,0.8,0.5c0.4,0.1,0.9,0.2,1.6,0.2
		c1,0,1.8-0.1,2.3-0.4c0.5-0.3,0.7-0.7,0.7-1.2c0-0.4-0.2-0.8-0.6-1c-0.4-0.2-0.9-0.4-1.5-0.4h-1.7c-0.8,0-1.4-0.2-1.8-0.5
		c-0.4-0.3-0.6-0.8-0.6-1.3c0-0.3,0.1-0.6,0.3-0.9s0.4-0.5,0.8-0.8c-0.5-0.3-0.9-0.6-1.2-1.1c-0.3-0.4-0.4-0.9-0.4-1.6
		c0-0.6,0.2-1.2,0.5-1.7s0.8-0.9,1.3-1.2s1.2-0.4,2-0.4c1.1,0,1.9-0.1,2.5-0.2c0.6-0.1,1.2-0.3,1.9-0.6L134.4,296.7z M127.9,297.8
		c-0.4,0.4-0.6,0.9-0.6,1.6s0.2,1.2,0.6,1.6c0.4,0.4,0.9,0.6,1.7,0.6c0.7,0,1.2-0.2,1.5-0.6s0.5-0.9,0.5-1.6c0-1.4-0.7-2.2-2.1-2.2
		C128.9,297.2,128.3,297.4,127.9,297.8z"/>
	<path class="st1" d="M109.4,326.1h2.7v1.2H105v-1.2h2.9v-7.1h-2.8v-1.2h4.3V326.1z M109,313.7c0.2,0.2,0.3,0.5,0.3,0.8
		c0,0.3-0.1,0.6-0.3,0.8s-0.5,0.3-0.8,0.3c-0.3,0-0.6-0.1-0.8-0.3c-0.2-0.2-0.3-0.5-0.3-0.8c0-0.3,0.1-0.6,0.3-0.8
		c0.2-0.2,0.5-0.3,0.8-0.3C108.5,313.4,108.8,313.5,109,313.7z"/>
	<path class="st1" d="M123,318.2c0.3,0.4,0.5,1.1,0.5,2.1v7.1h-1.4v-6.8c0-0.7,0-1.1-0.1-1.3c-0.1-0.2-0.3-0.4-0.6-0.4
		c-0.6,0-1.2,0.4-1.7,1.1v7.4h-1.4v-6.8c0-0.7,0-1.1-0.1-1.3c-0.1-0.2-0.3-0.4-0.6-0.4c-0.6,0-1.2,0.4-1.7,1.1v7.4h-1.4v-9.5h1.2
		l0.1,1.1c0.3-0.4,0.6-0.7,0.9-1s0.7-0.3,1.1-0.3c0.9,0,1.5,0.4,1.7,1.3c0.3-0.4,0.6-0.7,0.9-0.9c0.3-0.2,0.7-0.3,1.2-0.3
		C122.2,317.6,122.6,317.8,123,318.2z"/>
	<path class="st1" d="M134.4,318.3c-0.4,0.1-0.8,0.2-1.2,0.2c-0.4,0-1,0-1.6,0c1.1,0.5,1.7,1.3,1.7,2.4c0,1-0.3,1.7-1,2.3
		c-0.6,0.6-1.5,0.9-2.6,0.9c-0.6,0-1-0.1-1.4-0.2c-0.1,0.1-0.3,0.2-0.4,0.4s-0.1,0.3-0.1,0.5c0,0.5,0.4,0.8,1.3,0.8h1.7
		c0.6,0,1.2,0.1,1.7,0.3c0.5,0.2,0.9,0.5,1.2,0.9c0.3,0.4,0.4,0.8,0.4,1.3c0,0.9-0.4,1.6-1.2,2.1c-0.8,0.5-1.9,0.7-3.3,0.7
		c-1.5,0-2.5-0.2-3.1-0.7s-0.9-1.2-0.9-2.2h1.4c0,0.4,0.1,0.7,0.2,0.9c0.1,0.2,0.4,0.4,0.8,0.5c0.4,0.1,0.9,0.2,1.6,0.2
		c1,0,1.8-0.1,2.3-0.4c0.5-0.3,0.7-0.7,0.7-1.2c0-0.4-0.2-0.8-0.6-1c-0.4-0.2-0.9-0.4-1.5-0.4h-1.7c-0.8,0-1.4-0.2-1.8-0.5
		c-0.4-0.3-0.6-0.8-0.6-1.3c0-0.3,0.1-0.6,0.3-0.9s0.4-0.5,0.8-0.8c-0.5-0.3-0.9-0.6-1.2-1.1c-0.3-0.4-0.4-0.9-0.4-1.6
		c0-0.6,0.2-1.2,0.5-1.7s0.8-0.9,1.3-1.2s1.2-0.4,2-0.4c1.1,0,1.9-0.1,2.5-0.2c0.6-0.1,1.2-0.3,1.9-0.6L134.4,318.3z M127.9,319.3
		c-0.4,0.4-0.6,0.9-0.6,1.6s0.2,1.2,0.6,1.6c0.4,0.4,0.9,0.6,1.7,0.6c0.7,0,1.2-0.2,1.5-0.6s0.5-0.9,0.5-1.6c0-1.4-0.7-2.2-2.1-2.2
		C128.9,318.8,128.3,319,127.9,319.3z"/>
	<path class="st1" d="M69.6,336l-0.5,1.1c-0.6-0.3-1.3-0.4-2-0.4c-1.3,0-2,0.5-2,1.6v1.9h3.2l-0.2,1.2h-3v7.5h-1.5v-7.5h-2.3v-1.2
		h2.3v-1.9c0-0.9,0.3-1.5,1-2.1c0.7-0.5,1.5-0.8,2.5-0.8C67.9,335.5,68.8,335.6,69.6,336z"/>
	<path class="st1" d="M78.8,340.6c0.7,0.9,1.1,2.1,1.1,3.6c0,1.5-0.4,2.7-1.1,3.6c-0.7,0.9-1.7,1.4-3,1.4c-1.3,0-2.3-0.4-3-1.3
		s-1.1-2.1-1.1-3.6c0-1.5,0.4-2.7,1.1-3.6s1.7-1.3,3-1.3C77.1,339.2,78.1,339.7,78.8,340.6z M74,341.4c-0.4,0.6-0.6,1.5-0.6,2.8
		c0,1.2,0.2,2.2,0.6,2.8c0.4,0.6,1,0.9,1.8,0.9s1.4-0.3,1.8-0.9c0.4-0.6,0.6-1.5,0.6-2.8c0-1.2-0.2-2.2-0.6-2.8
		c-0.4-0.6-1-0.9-1.8-0.9C75,340.5,74.4,340.8,74,341.4z"/>
	<path class="st1" d="M89.6,340.6c0.7,0.9,1.1,2.1,1.1,3.6c0,1.5-0.4,2.7-1.1,3.6c-0.7,0.9-1.7,1.4-3,1.4c-1.3,0-2.3-0.4-3-1.3
		s-1.1-2.1-1.1-3.6c0-1.5,0.4-2.7,1.1-3.6s1.7-1.3,3-1.3C87.9,339.2,88.9,339.7,89.6,340.6z M84.8,341.4c-0.4,0.6-0.6,1.5-0.6,2.8
		c0,1.2,0.2,2.2,0.6,2.8c0.4,0.6,1,0.9,1.8,0.9s1.4-0.3,1.8-0.9c0.4-0.6,0.6-1.5,0.6-2.8c0-1.2-0.2-2.2-0.6-2.8
		c-0.4-0.6-1-0.9-1.8-0.9C85.8,340.5,85.2,340.8,84.8,341.4z"/>
	<path class="st1" d="M100.2,349c-0.5,0.1-0.9,0.2-1.4,0.2c-1,0-1.8-0.3-2.3-0.8c-0.6-0.5-0.8-1.2-0.8-2.1v-5.7h-2.2v-1.2h2.2v-2.1
		l1.5-0.2v2.3h3.3l-0.2,1.2h-3.1v5.6c0,0.5,0.1,0.9,0.4,1.2s0.8,0.4,1.4,0.4c0.6,0,1.3-0.2,1.8-0.5l0.6,1
		C101,348.7,100.6,348.8,100.2,349z"/>
	<path class="st1" d="M106.6,347.1c0.5,0.5,1.2,0.8,1.9,0.8c0.5,0,0.9-0.1,1.3-0.2c0.4-0.1,0.8-0.4,1.3-0.6l0.7,1
		c-0.4,0.3-1,0.6-1.5,0.8c-0.6,0.2-1.1,0.3-1.7,0.3c-1.4,0-2.4-0.4-3.2-1.3c-0.8-0.9-1.1-2.1-1.1-3.6c0-0.9,0.2-1.8,0.5-2.5
		s0.8-1.3,1.4-1.8c0.6-0.4,1.3-0.6,2.2-0.6c1.2,0,2.1,0.4,2.8,1.3s1,2,1,3.4c0,0.3,0,0.5,0,0.8h-6.4
		C105.8,345.8,106.1,346.6,106.6,347.1z M106.6,341.3c-0.5,0.5-0.7,1.3-0.8,2.3h4.9c0-1-0.2-1.8-0.6-2.3c-0.4-0.5-1-0.8-1.7-0.8
		S107,340.8,106.6,341.3z"/>
	<path class="st1" d="M123.1,339.4l-0.2,3.2h-1.2v-2h-0.1c-1.5,0-2.5,1-3.1,3.1v4h1.9v1.2h-4.9v-1.2h1.5v-7.1h-1.5v-1.2h2.6l0.3,2.3
		c0.4-0.8,0.8-1.4,1.4-1.8c0.5-0.4,1.2-0.6,2-0.6C122.2,339.2,122.6,339.3,123.1,339.4z"/>
</g>
<rect x="420" y="20" class="st2" width="360" height="50"/>
<rect x="420" y="80" class="st2" width="360" height="210"/>
<rect x="420" y="300" class="st2" width="360" height="100"/>
<rect x="430" y="90" class="st3" width="340" height="40"/>
<rect x="430" y="140" class="st2" width="340" height="70"/>
<rect x="430" y="220" class="st2" width="340" height="60"/>
<rect x="440" y="230" class="st2" width="130" height="40"/>
<rect x="580" y="230" class="st2" width="130" height="40"/>
<rect x="719" y="230" class="st2" width="40" height="40"/>
<rect x="410" y="10" class="st2" width="380" height="400"/>
<rect x="440" y="150" class="st4" width="120" height="20"/>
<rect x="440" y="180" class="st4" width="190" height="20"/>
</svg>
