<?xml version="1.0" encoding="utf-8"?>
<!-- Generator: Adobe Illustrator 21.1.0, SVG Export Plug-In . SVG Version: 6.00 Build 0)  -->
<svg version="1.1" id="Слой_1" xmlns="http://www.w3.org/2000/svg" xmlns:xlink="http://www.w3.org/1999/xlink" x="0px" y="0px"
	 viewBox="0 0 800 480" style="enable-background:new 0 0 800 480;" xml:space="preserve">
<style type="text/css">
	.st0{fill:#F7931E;}
	.st1{opacity:0.45;}
	.st2{fill:none;stroke:#8C6239;stroke-width:2;stroke-miterlimit:10;}
	.st3{fill:none;stroke:#8C6239;stroke-width:2;stroke-miterlimit:10;stroke-dasharray:9.8246,9.8246;}
	.st4{fill:none;stroke:#8C6239;stroke-width:2;stroke-miterlimit:10;stroke-dasharray:9.5714,9.5714;}
	.st5{fill:#CCCCCC;}
	.st6{fill:#8CC63F;}
	.st7{fill:#006837;}
	.st8{fill:none;stroke:#0071BC;stroke-miterlimit:10;}
	.st9{fill:none;stroke:#0071BC;stroke-miterlimit:10;stroke-dasharray:5.0323,5.0323;}
	.st10{fill:none;stroke:#8C6239;stroke-miterlimit:10;}
	.st11{fill:none;stroke:#8C6239;stroke-miterlimit:10;stroke-dasharray:5,5;}
	.st12{fill:none;stroke:#8C6239;stroke-width:2;stroke-miterlimit:10;stroke-dasharray:10.0476,10.0476;}
	.st13{fill:#C7B299;}
	.st14{fill:#998675;}
</style>
<g>
	<rect x="50" y="120" class="st0" width="650" height="30"/>
</g>
<g class="st1">
	<g>
		<polyline class="st2" points="190,146 190,141 195,141 		"/>
		<line class="st3" x1="204.8" y1="141" x2="750.1" y2="141"/>
		<polyline class="st2" points="755,141 760,141 760,146 		"/>
		<line class="st4" x1="760" y1="155.6" x2="760" y2="208.2"/>
		<polyline class="st2" points="760,213 760,218 755,218 		"/>
		<line class="st3" x1="745.2" y1="218" x2="199.9" y2="218"/>
		<polyline class="st2" points="195,218 190,218 190,213 		"/>
		<line class="st4" x1="190" y1="203.4" x2="190" y2="150.8"/>
	</g>
</g>
<g>
	<rect x="50" y="40" class="st5" width="650" height="30"/>
</g>
<g>
	<rect x="200" y="150" class="st6" width="150" height="30"/>
</g>
<g>
	<rect x="50" y="358.2" class="st6" width="30" height="30"/>
</g>
<g>
	<rect x="700" y="175" class="st7" width="50" height="30"/>
</g>
<g>
	<g>
		<line class="st8" x1="200" y1="70" x2="200" y2="71.7"/>
		<line class="st9" x1="200" y1="75.1" x2="200" y2="176.6"/>
		<line class="st8" x1="200" y1="178.3" x2="200" y2="180"/>
	</g>
</g>
<g>
	<g>
		<line class="st8" x1="350.5" y1="69" x2="350.5" y2="70.7"/>
		<line class="st9" x1="350.5" y1="74.2" x2="350.5" y2="176.6"/>
		<line class="st8" x1="350.5" y1="178.3" x2="350.5" y2="180"/>
	</g>
</g>
<g>
	<g>
		<line class="st8" x1="340" y1="65.5" x2="340" y2="68.5"/>
		<line class="st9" x1="340" y1="74.5" x2="340" y2="253"/>
		<line class="st8" x1="340" y1="256" x2="340" y2="259"/>
	</g>
</g>
<g>
	<path d="M93.6,168.6v6.8h-2.4v-17.1h5.6c1.6,0,2.8,0.5,3.8,1.4c0.9,0.9,1.4,2.2,1.4,3.7c0,1.6-0.5,2.8-1.4,3.7s-2.2,1.4-3.8,1.4
		h-3.2V168.6z M93.6,166.8h3.2c0.9,0,1.6-0.3,2-0.9c0.5-0.6,0.7-1.4,0.7-2.4s-0.2-1.8-0.7-2.4s-1.1-1-2-1h-3.2V166.8z"/>
	<path d="M110.5,175.3c-0.1-0.3-0.2-0.6-0.2-0.8s-0.1-0.6-0.1-0.8c-0.4,0.6-0.8,1-1.3,1.4s-1.1,0.5-1.8,0.5c-1.1,0-1.9-0.3-2.5-1
		s-0.9-1.6-0.9-2.7c0-1.2,0.4-2.2,1.2-2.9s2-1,3.5-1h1.8v-1.3c0-0.8-0.2-1.4-0.5-1.8c-0.3-0.4-0.8-0.6-1.5-0.6c-0.6,0-1,0.2-1.4,0.6
		c-0.3,0.4-0.5,0.9-0.5,1.5H104v-0.1c0-1,0.4-1.9,1.2-2.6c0.8-0.8,1.9-1.1,3.2-1.1c1.3,0,2.3,0.4,3,1.1s1.2,1.8,1.2,3.2v5.9
		c0,0.5,0,1,0.1,1.4s0.2,0.9,0.3,1.3h-2.5V175.3z M107.6,173.8c0.6,0,1.1-0.2,1.5-0.5c0.5-0.3,0.8-0.7,1-1.2v-2.6h-1.8
		c-0.7,0-1.3,0.2-1.7,0.7s-0.6,1-0.6,1.7c0,0.6,0.1,1,0.4,1.4C106.7,173.6,107.1,173.8,107.6,173.8z"/>
	<path d="M120.7,164.7l-1.1-0.1c-0.5,0-0.9,0.1-1.2,0.4s-0.6,0.7-0.7,1.3v9h-2.4v-12.7h2.2l0.2,1.9c0.3-0.7,0.6-1.2,1-1.6
		s0.9-0.6,1.5-0.6c0.2,0,0.3,0,0.5,0s0.3,0.1,0.4,0.1L120.7,164.7z"/>
	<path d="M128.6,172.2c0-0.5-0.2-0.9-0.5-1.2s-0.9-0.7-1.8-1.1c-1.3-0.5-2.3-1-2.9-1.6s-0.9-1.3-0.9-2.2c0-1,0.4-1.8,1.2-2.5
		s1.8-1,3-1c1.3,0,2.3,0.4,3.1,1.1s1.1,1.7,1.1,2.8v0.1h-2.3c0-0.6-0.2-1.1-0.5-1.6s-0.8-0.7-1.4-0.7s-1.1,0.2-1.4,0.5
		s-0.5,0.7-0.5,1.2s0.1,0.9,0.4,1.1s0.9,0.6,1.8,1.1c1.3,0.5,2.3,1,3,1.6s1,1.4,1,2.3c0,1-0.4,1.9-1.2,2.6s-1.8,1-3.1,1
		c-1.4,0-2.5-0.4-3.3-1.2s-1.2-1.7-1.1-2.8v-0.1h2.2c0,0.8,0.3,1.4,0.7,1.8s0.9,0.5,1.6,0.5c0.6,0,1.1-0.2,1.4-0.5
		S128.6,172.7,128.6,172.2z"/>
	<path d="M135.6,159.3h-2.4V157h2.4V159.3z M135.6,175.3h-2.4v-12.7h2.4V175.3z"/>
	<path d="M140.7,162.7l0.1,1.9c0.4-0.7,0.8-1.2,1.3-1.6s1.1-0.6,1.8-0.6c1.1,0,2,0.4,2.6,1.2s0.9,2.1,0.9,3.8v7.9H145v-7.8
		c0-1.2-0.2-2-0.5-2.5s-0.8-0.7-1.5-0.7c-0.5,0-0.9,0.2-1.3,0.5s-0.7,0.7-0.9,1.2v9.4h-2.4v-12.7L140.7,162.7L140.7,162.7z"/>
	<path d="M149.7,168.5c0-1.8,0.4-3.3,1.1-4.4s1.8-1.7,3.1-1.7c0.6,0,1.2,0.2,1.7,0.5s0.9,0.7,1.2,1.3l0.2-1.5h2.1v12.6
		c0,1.6-0.4,2.9-1.3,3.8s-2.1,1.4-3.6,1.4c-0.5,0-1.1-0.1-1.7-0.2s-1.1-0.4-1.6-0.7l0.5-1.8c0.4,0.2,0.8,0.4,1.3,0.6s1,0.2,1.5,0.2
		c0.9,0,1.5-0.3,1.9-0.8s0.6-1.4,0.6-2.4v-1.1c-0.3,0.5-0.7,0.8-1.2,1.1s-1,0.4-1.6,0.4c-1.3,0-2.4-0.5-3.1-1.5s-1.1-2.3-1.1-4
		L149.7,168.5L149.7,168.5z M152.1,170c0,1.1,0.2,2,0.6,2.7s1,1,1.8,1c0.5,0,1-0.1,1.3-0.4s0.7-0.6,0.9-1.1v-6.3
		c-0.2-0.5-0.5-0.9-0.9-1.2s-0.8-0.4-1.3-0.4c-0.8,0-1.4,0.4-1.8,1.2s-0.6,1.8-0.6,3V170z"/>
</g>
<g>
	<path d="M59.4,336.7c0-0.8-0.2-1.5-0.7-2s-1.2-1-2.4-1.4c-1.6-0.5-2.9-1.1-3.7-1.9s-1.3-1.8-1.3-3.1c0-1.3,0.5-2.4,1.4-3.3
		s2.2-1.3,3.7-1.3c1.6,0,2.8,0.5,3.8,1.5s1.4,2.2,1.4,3.6v0.1h-2.3c0-1-0.3-1.8-0.8-2.4c-0.5-0.6-1.2-0.9-2.2-0.9
		c-0.9,0-1.6,0.3-2,0.8s-0.7,1.2-0.7,2c0,0.7,0.3,1.3,0.8,1.8s1.4,0.9,2.6,1.4c1.6,0.5,2.7,1.1,3.6,2c0.9,0.9,1.2,1.9,1.2,3.3
		c0,1.4-0.5,2.5-1.4,3.3c-0.9,0.8-2.2,1.2-3.8,1.2c-1.5,0-2.9-0.5-4-1.4s-1.7-2.2-1.6-3.8v-0.1h2.3c0,1.2,0.3,2,0.9,2.6
		c0.6,0.6,1.4,0.8,2.4,0.8c0.9,0,1.6-0.2,2.1-0.7S59.4,337.6,59.4,336.7z"/>
	<path d="M68.4,339.5c0.6,0,1.1-0.2,1.5-0.7s0.6-1.1,0.6-1.8h2.1v0.1c0,1.2-0.4,2.2-1.2,3s-1.9,1.2-3.1,1.2c-1.6,0-2.8-0.5-3.6-1.6
		c-0.8-1.1-1.3-2.4-1.3-4.1v-1.7c0-1.7,0.4-3,1.3-4.1s2-1.6,3.6-1.6c1.3,0,2.3,0.4,3.1,1.3c0.8,0.9,1.2,2,1.2,3.3v0.1h-2.1
		c0-0.9-0.2-1.5-0.6-2.1c-0.4-0.5-0.9-0.8-1.5-0.8c-0.9,0-1.5,0.4-1.9,1.1s-0.6,1.7-0.6,2.8v1.8c0,1.1,0.2,2.1,0.6,2.8
		C66.8,339.1,67.5,339.5,68.4,339.5z"/>
	<path d="M80.2,330.4l-1.1-0.1c-0.5,0-0.9,0.1-1.2,0.4s-0.6,0.7-0.7,1.3v9h-2.4v-12.7H77l0.2,1.9c0.3-0.7,0.6-1.2,1-1.6
		s0.9-0.6,1.5-0.6c0.2,0,0.3,0,0.5,0s0.3,0.1,0.4,0.1L80.2,330.4z"/>
	<path d="M84.7,325h-2.4v-2.3h2.4V325z M84.7,341h-2.4v-12.7h2.4V341z"/>
	<path d="M97,335.7c0,1.7-0.4,3-1.1,4s-1.8,1.5-3.1,1.5c-0.6,0-1.2-0.1-1.6-0.4s-0.9-0.6-1.2-1.1v6.1h-2.4v-17.6h2.1l0.2,1.5
		c0.3-0.5,0.7-1,1.2-1.2s1-0.4,1.7-0.4c1.3,0,2.3,0.6,3.1,1.7c0.8,1.1,1.1,2.6,1.1,4.4L97,335.7L97,335.7z M94.6,334.2
		c0-1.2-0.2-2.3-0.6-3c-0.4-0.7-1-1.2-1.8-1.2c-0.5,0-0.9,0.1-1.3,0.4s-0.6,0.7-0.9,1.2v6.4c0.2,0.5,0.5,0.8,0.9,1.1
		c0.4,0.3,0.8,0.4,1.3,0.4c0.8,0,1.4-0.3,1.8-1c0.4-0.7,0.6-1.6,0.6-2.7V334.2z"/>
	<path d="M102.3,325.2v3.2h2v1.7h-2v7.5c0,0.7,0.1,1.1,0.3,1.4s0.4,0.4,0.8,0.4c0.2,0,0.4,0,0.5,0s0.3-0.1,0.6-0.1l0.2,1.6
		c-0.3,0.1-0.6,0.2-0.9,0.3s-0.7,0.1-1,0.1c-0.9,0-1.6-0.3-2.1-0.9s-0.7-1.5-0.7-2.8v-7.5h-1.7v-1.7h1.7v-3.2H102.3z"/>
	<path d="M121.2,335.7c0,1.7-0.4,3-1.1,4s-1.8,1.5-3.1,1.5c-0.6,0-1.2-0.1-1.6-0.4s-0.9-0.6-1.2-1.1v6.1h-2.4v-17.6h2.1l0.2,1.5
		c0.3-0.5,0.7-1,1.2-1.2s1-0.4,1.7-0.4c1.3,0,2.3,0.6,3.1,1.7c0.8,1.1,1.1,2.6,1.1,4.4L121.2,335.7L121.2,335.7z M118.9,334.2
		c0-1.2-0.2-2.3-0.6-3c-0.4-0.7-1-1.2-1.8-1.2c-0.5,0-0.9,0.1-1.3,0.4s-0.6,0.7-0.9,1.2v6.4c0.2,0.5,0.5,0.8,0.9,1.1
		c0.4,0.3,0.8,0.4,1.3,0.4c0.8,0,1.4-0.3,1.8-1c0.4-0.7,0.6-1.6,0.6-2.7V334.2z"/>
	<path d="M129,330.4l-1.1-0.1c-0.5,0-0.9,0.1-1.2,0.4s-0.6,0.7-0.7,1.3v9h-2.4v-12.7h2.2l0.2,1.9c0.3-0.7,0.6-1.2,1-1.6
		s0.9-0.6,1.5-0.6c0.2,0,0.3,0,0.5,0s0.3,0.1,0.4,0.1L129,330.4z"/>
	<path d="M130.2,333.9c0-1.7,0.4-3.1,1.3-4.1s2.1-1.6,3.6-1.6s2.7,0.5,3.6,1.6s1.3,2.5,1.3,4.2v1.6c0,1.7-0.4,3.1-1.3,4.2
		s-2.1,1.6-3.6,1.6s-2.7-0.5-3.6-1.6s-1.3-2.5-1.3-4.2V333.9z M132.6,335.5c0,1.2,0.2,2.1,0.6,2.9c0.4,0.7,1.1,1.1,1.9,1.1
		s1.5-0.4,1.9-1.1c0.4-0.7,0.6-1.7,0.6-2.9v-1.6c0-1.1-0.2-2.1-0.6-2.8c-0.4-0.7-1.1-1.1-1.9-1.1c-0.9,0-1.5,0.4-1.9,1.1
		s-0.6,1.7-0.6,2.8V335.5z"/>
	<path d="M146.8,339.5c0.6,0,1.1-0.2,1.5-0.7s0.6-1.1,0.6-1.8h2.1v0.1c0,1.2-0.4,2.2-1.2,3s-1.9,1.2-3.1,1.2c-1.6,0-2.8-0.5-3.6-1.6
		c-0.8-1.1-1.3-2.4-1.3-4.1v-1.7c0-1.7,0.4-3,1.3-4.1s2-1.6,3.6-1.6c1.3,0,2.3,0.4,3.1,1.3c0.8,0.9,1.2,2,1.2,3.3v0.1h-2.1
		c0-0.9-0.2-1.5-0.6-2.1c-0.4-0.5-0.9-0.8-1.5-0.8c-0.9,0-1.5,0.4-1.9,1.1s-0.6,1.7-0.6,2.8v1.8c0,1.1,0.2,2.1,0.6,2.8
		C145.2,339.1,145.9,339.5,146.8,339.5z"/>
	<path d="M157.7,341.3c-1.5,0-2.7-0.5-3.6-1.6c-0.9-1.1-1.4-2.4-1.4-4v-1.9c0-1.7,0.4-3,1.3-4.1c0.9-1.1,2-1.6,3.4-1.6
		s2.5,0.5,3.3,1.5s1.2,2.3,1.2,4v1.6h-6.8v0.5c0,1.1,0.2,2,0.7,2.7s1.2,1.1,2,1.1c0.7,0,1.2-0.1,1.7-0.3c0.5-0.2,0.9-0.5,1.3-0.9
		l0.8,1.5c-0.4,0.5-0.9,0.8-1.6,1.1C159.3,341.2,158.6,341.3,157.7,341.3z M157.5,329.9c-0.7,0-1.2,0.3-1.7,1
		c-0.4,0.7-0.6,1.5-0.7,2.6h4.5V333c0-0.9-0.2-1.6-0.5-2.2C158.8,330.2,158.2,329.9,157.5,329.9z"/>
	<path d="M170,337.9c0-0.5-0.2-0.9-0.5-1.2c-0.3-0.3-0.9-0.7-1.8-1.1c-1.3-0.5-2.3-1-2.9-1.6c-0.6-0.6-0.9-1.3-0.9-2.2
		c0-1,0.4-1.8,1.2-2.5s1.8-1,3-1c1.3,0,2.3,0.4,3.1,1.1s1.1,1.7,1.1,2.8v0.1H170c0-0.6-0.2-1.1-0.5-1.6s-0.8-0.7-1.4-0.7
		s-1.1,0.2-1.4,0.5s-0.5,0.7-0.5,1.2s0.1,0.9,0.4,1.1c0.3,0.3,0.9,0.6,1.8,1.1c1.3,0.5,2.3,1,3,1.6c0.7,0.6,1,1.4,1,2.3
		c0,1-0.4,1.9-1.2,2.6s-1.8,1-3.1,1c-1.4,0-2.5-0.4-3.3-1.2c-0.8-0.8-1.2-1.7-1.1-2.8v-0.1h2.2c0,0.8,0.3,1.4,0.7,1.8
		c0.4,0.4,0.9,0.5,1.6,0.5c0.6,0,1.1-0.2,1.4-0.5C169.9,338.8,170,338.4,170,337.9z"/>
	<path d="M180.4,337.9c0-0.5-0.2-0.9-0.5-1.2c-0.3-0.3-0.9-0.7-1.8-1.1c-1.3-0.5-2.3-1-2.9-1.6c-0.6-0.6-0.9-1.3-0.9-2.2
		c0-1,0.4-1.8,1.2-2.5s1.8-1,3-1c1.3,0,2.3,0.4,3.1,1.1s1.1,1.7,1.1,2.8v0.1h-2.3c0-0.6-0.2-1.1-0.5-1.6s-0.8-0.7-1.4-0.7
		s-1.1,0.2-1.4,0.5s-0.5,0.7-0.5,1.2s0.1,0.9,0.4,1.1c0.3,0.3,0.9,0.6,1.8,1.1c1.3,0.5,2.3,1,3,1.6c0.7,0.6,1,1.4,1,2.3
		c0,1-0.4,1.9-1.2,2.6s-1.8,1-3.1,1c-1.4,0-2.5-0.4-3.3-1.2c-0.8-0.8-1.2-1.7-1.1-2.8v-0.1h2.2c0,0.8,0.3,1.4,0.7,1.8
		c0.4,0.4,0.9,0.5,1.6,0.5c0.6,0,1.1-0.2,1.4-0.5C180.3,338.8,180.4,338.4,180.4,337.9z"/>
	<path d="M187.5,325h-2.4v-2.3h2.4V325z M187.5,341h-2.4v-12.7h2.4V341z"/>
	<path d="M192.5,328.4l0.1,1.9c0.4-0.7,0.8-1.2,1.3-1.6s1.1-0.6,1.8-0.6c1.1,0,2,0.4,2.6,1.2c0.6,0.8,0.9,2.1,0.9,3.8v7.9h-2.4v-7.8
		c0-1.2-0.2-2-0.5-2.5s-0.8-0.7-1.5-0.7c-0.5,0-0.9,0.2-1.3,0.5s-0.7,0.7-0.9,1.2v9.4h-2.4v-12.7L192.5,328.4L192.5,328.4z"/>
	<path d="M201.6,334.2c0-1.8,0.4-3.3,1.1-4.4c0.7-1.1,1.8-1.7,3.1-1.7c0.6,0,1.2,0.2,1.7,0.5s0.9,0.7,1.2,1.3l0.2-1.5h2.1V341
		c0,1.6-0.4,2.9-1.3,3.8s-2.1,1.4-3.6,1.4c-0.5,0-1.1-0.1-1.7-0.2c-0.6-0.1-1.1-0.4-1.6-0.7l0.5-1.8c0.4,0.2,0.8,0.4,1.3,0.6
		s1,0.2,1.5,0.2c0.9,0,1.5-0.3,1.9-0.8s0.6-1.4,0.6-2.4V340c-0.3,0.5-0.7,0.8-1.2,1.1c-0.5,0.3-1,0.4-1.6,0.4
		c-1.3,0-2.4-0.5-3.1-1.5s-1.1-2.3-1.1-4V334.2z M203.9,335.7c0,1.1,0.2,2,0.6,2.7s1,1,1.8,1c0.5,0,1-0.1,1.3-0.4s0.7-0.6,0.9-1.1
		v-6.3c-0.2-0.5-0.5-0.9-0.9-1.2s-0.8-0.4-1.3-0.4c-0.8,0-1.4,0.4-1.8,1.2c-0.4,0.8-0.6,1.8-0.6,3V335.7z"/>
</g>
<g>
	<path d="M95.8,375.9c0-0.8-0.2-1.5-0.7-2s-1.2-1-2.4-1.4c-1.6-0.5-2.9-1.1-3.7-1.9s-1.3-1.8-1.3-3.1c0-1.3,0.5-2.4,1.4-3.3
		s2.2-1.3,3.7-1.3c1.6,0,2.8,0.5,3.8,1.5s1.4,2.2,1.4,3.6v0.1h-2.3c0-1-0.3-1.8-0.8-2.4s-1.2-0.9-2.2-0.9c-0.9,0-1.6,0.3-2,0.8
		s-0.7,1.2-0.7,2c0,0.7,0.3,1.3,0.8,1.8s1.4,0.9,2.6,1.4c1.6,0.5,2.7,1.1,3.6,2s1.2,1.9,1.2,3.3s-0.5,2.5-1.4,3.3s-2.2,1.2-3.8,1.2
		c-1.5,0-2.9-0.5-4-1.4s-1.7-2.2-1.6-3.8v-0.1h2.3c0,1.2,0.3,2,0.9,2.6s1.4,0.8,2.4,0.8c0.9,0,1.6-0.2,2.1-0.7
		S95.8,376.7,95.8,375.9z"/>
	<path d="M104.8,378.6c0.6,0,1.1-0.2,1.5-0.7s0.6-1.1,0.6-1.8h2.1v0.1c0,1.2-0.4,2.2-1.2,3s-1.9,1.2-3.1,1.2c-1.6,0-2.8-0.5-3.6-1.6
		s-1.3-2.4-1.3-4.1V373c0-1.7,0.4-3,1.3-4.1s2-1.6,3.6-1.6c1.3,0,2.3,0.4,3.1,1.3s1.2,2,1.2,3.3v0.1h-2.1c0-0.9-0.2-1.5-0.6-2.1
		s-0.9-0.8-1.5-0.8c-0.9,0-1.5,0.4-1.9,1.1s-0.6,1.7-0.6,2.8v1.8c0,1.1,0.2,2.1,0.6,2.8C103.3,378.3,103.9,378.6,104.8,378.6z"/>
	<path d="M116.7,369.5l-1.1-0.1c-0.5,0-0.9,0.1-1.2,0.4s-0.6,0.7-0.7,1.3v9h-2.4v-12.7h2.2l0.2,1.9c0.3-0.7,0.6-1.2,1-1.6
		s0.9-0.6,1.5-0.6c0.2,0,0.3,0,0.5,0s0.3,0.1,0.4,0.1L116.7,369.5z"/>
	<path d="M121.2,364.2h-2.4v-2.3h2.4V364.2z M121.2,380.2h-2.4v-12.7h2.4V380.2z"/>
	<path d="M133.4,374.9c0,1.7-0.4,3-1.1,4s-1.8,1.5-3.1,1.5c-0.6,0-1.2-0.1-1.6-0.4s-0.9-0.6-1.2-1.1v6.1H124v-17.6h2.1l0.2,1.5
		c0.3-0.5,0.7-1,1.2-1.2s1-0.4,1.7-0.4c1.3,0,2.3,0.6,3.1,1.7s1.1,2.6,1.1,4.4V374.9z M131.1,373.3c0-1.2-0.2-2.3-0.6-3
		s-1-1.2-1.8-1.2c-0.5,0-0.9,0.1-1.3,0.4s-0.6,0.7-0.9,1.2v6.4c0.2,0.5,0.5,0.8,0.9,1.1s0.8,0.4,1.3,0.4c0.8,0,1.4-0.3,1.8-1
		s0.6-1.6,0.6-2.7V373.3z"/>
	<path d="M138.8,364.3v3.2h2v1.7h-2v7.5c0,0.7,0.1,1.1,0.3,1.4s0.4,0.4,0.8,0.4c0.2,0,0.4,0,0.5,0s0.3-0.1,0.6-0.1l0.2,1.6
		c-0.3,0.1-0.6,0.2-0.9,0.3s-0.7,0.1-1,0.1c-0.9,0-1.6-0.3-2.1-0.9s-0.7-1.5-0.7-2.8v-7.5h-1.7v-1.7h1.7v-3.2H138.8z"/>
	<path d="M150.8,380.2h-2.4v-18.3h2.4V380.2z"/>
	<path d="M153.2,373c0-1.7,0.4-3.1,1.3-4.1s2.1-1.6,3.6-1.6s2.7,0.5,3.6,1.6s1.3,2.5,1.3,4.2v1.6c0,1.7-0.4,3.1-1.3,4.2
		s-2.1,1.6-3.6,1.6s-2.7-0.5-3.6-1.6s-1.3-2.5-1.3-4.2V373z M155.6,374.6c0,1.2,0.2,2.1,0.6,2.9c0.4,0.7,1.1,1.1,1.9,1.1
		c0.8,0,1.5-0.4,1.9-1.1s0.6-1.7,0.6-2.9V373c0-1.1-0.2-2.1-0.6-2.8s-1.1-1.1-1.9-1.1c-0.9,0-1.5,0.4-1.9,1.1s-0.6,1.7-0.6,2.8
		V374.6z"/>
	<path d="M171.8,380.2c-0.1-0.3-0.2-0.6-0.2-0.8s-0.1-0.6-0.1-0.8c-0.4,0.6-0.8,1-1.3,1.4s-1.1,0.5-1.8,0.5c-1.1,0-1.9-0.3-2.5-1
		s-0.9-1.6-0.9-2.7c0-1.2,0.4-2.2,1.2-2.9s2-1,3.5-1h1.8v-1.3c0-0.8-0.2-1.4-0.5-1.8s-0.8-0.6-1.5-0.6c-0.6,0-1,0.2-1.4,0.6
		s-0.5,0.9-0.5,1.5h-2.3v-0.1c0-1,0.4-1.9,1.2-2.6c0.8-0.8,1.9-1.1,3.2-1.1s2.3,0.4,3,1.1s1.2,1.8,1.2,3.2v5.9c0,0.5,0,1,0.1,1.4
		s0.2,0.9,0.3,1.3h-2.5V380.2z M169,378.6c0.6,0,1.1-0.2,1.5-0.5c0.5-0.3,0.8-0.7,1-1.2v-2.6h-1.8c-0.7,0-1.3,0.2-1.7,0.7
		s-0.6,1-0.6,1.7c0,0.6,0.1,1,0.4,1.4C168.1,378.4,168.5,378.6,169,378.6z"/>
	<path d="M176.1,374c0-2,0.4-3.7,1.1-4.9s1.8-1.8,3.1-1.8c0.6,0,1.1,0.1,1.6,0.4s0.9,0.6,1.2,1.1v-6.9h2.4v18.3h-2.1l-0.2-1.5
		c-0.3,0.6-0.7,1-1.2,1.3s-1,0.4-1.7,0.4c-1.3,0-2.3-0.6-3.1-1.7s-1.1-2.6-1.1-4.5V374z M178.5,374.2c0,1.3,0.2,2.4,0.6,3.2
		s1,1.2,1.8,1.2c0.5,0,1-0.1,1.3-0.4s0.7-0.7,0.9-1.2v-6.2c-0.2-0.5-0.5-0.9-0.9-1.2s-0.8-0.5-1.3-0.5c-0.8,0-1.4,0.4-1.8,1.3
		s-0.6,2.1-0.6,3.5V374.2z"/>
	<path d="M190.8,364.2h-2.4v-2.3h2.4V364.2z M190.8,380.2h-2.4v-12.7h2.4V380.2z"/>
	<path d="M195.8,367.5l0.1,1.9c0.4-0.7,0.8-1.2,1.3-1.6s1.1-0.6,1.8-0.6c1.1,0,2,0.4,2.6,1.2s0.9,2.1,0.9,3.8v7.9h-2.4v-7.8
		c0-1.2-0.2-2-0.5-2.5s-0.8-0.7-1.5-0.7c-0.5,0-0.9,0.2-1.3,0.5s-0.7,0.7-0.9,1.2v9.4h-2.4v-12.7L195.8,367.5L195.8,367.5z"/>
	<path d="M204.9,373.3c0-1.8,0.4-3.3,1.1-4.4s1.8-1.7,3.1-1.7c0.6,0,1.2,0.2,1.7,0.5s0.9,0.7,1.2,1.3l0.2-1.5h2.1v12.6
		c0,1.6-0.4,2.9-1.3,3.8s-2.1,1.4-3.6,1.4c-0.5,0-1.1-0.1-1.7-0.2s-1.1-0.4-1.6-0.7l0.5-1.8c0.4,0.2,0.8,0.4,1.3,0.6s1,0.2,1.5,0.2
		c0.9,0,1.5-0.3,1.9-0.8s0.6-1.4,0.6-2.4V379c-0.3,0.5-0.7,0.8-1.2,1.1s-1,0.4-1.6,0.4c-1.3,0-2.4-0.5-3.1-1.5s-1.1-2.3-1.1-4
		L204.9,373.3L204.9,373.3z M207.2,374.9c0,1.1,0.2,2,0.6,2.7s1,1,1.8,1c0.5,0,1-0.1,1.3-0.4s0.7-0.6,0.9-1.1v-6.3
		c-0.2-0.5-0.5-0.9-0.9-1.2s-0.8-0.4-1.3-0.4c-0.8,0-1.4,0.4-1.8,1.2s-0.6,1.8-0.6,3V374.9z"/>
</g>
<g>
	<rect x="50" y="400.2" class="st7" width="30" height="30"/>
</g>
<g>
	<path d="M95.8,417.9c0-0.8-0.2-1.5-0.7-2s-1.2-1-2.4-1.4c-1.6-0.5-2.9-1.1-3.7-1.9s-1.3-1.8-1.3-3.1c0-1.3,0.5-2.4,1.4-3.3
		s2.2-1.3,3.7-1.3c1.6,0,2.8,0.5,3.8,1.5s1.4,2.2,1.4,3.6v0.1h-2.3c0-1-0.3-1.8-0.8-2.4s-1.2-0.9-2.2-0.9c-0.9,0-1.6,0.3-2,0.8
		s-0.7,1.2-0.7,2c0,0.7,0.3,1.3,0.8,1.8s1.4,0.9,2.6,1.4c1.6,0.5,2.7,1.1,3.6,2s1.2,1.9,1.2,3.3s-0.5,2.5-1.4,3.3s-2.2,1.2-3.8,1.2
		c-1.5,0-2.9-0.5-4-1.4s-1.7-2.2-1.6-3.8v-0.1h2.3c0,1.2,0.3,2,0.9,2.6s1.4,0.8,2.4,0.8c0.9,0,1.6-0.2,2.1-0.7
		S95.8,418.7,95.8,417.9z"/>
	<path d="M104.8,420.6c0.6,0,1.1-0.2,1.5-0.7s0.6-1.1,0.6-1.8h2.1v0.1c0,1.2-0.4,2.2-1.2,3s-1.9,1.2-3.1,1.2c-1.6,0-2.8-0.5-3.6-1.6
		s-1.3-2.4-1.3-4.1V415c0-1.7,0.4-3,1.3-4.1s2-1.6,3.6-1.6c1.3,0,2.3,0.4,3.1,1.3s1.2,2,1.2,3.3v0.1h-2.1c0-0.9-0.2-1.5-0.6-2.1
		s-0.9-0.8-1.5-0.8c-0.9,0-1.5,0.4-1.9,1.1s-0.6,1.7-0.6,2.8v1.8c0,1.1,0.2,2.1,0.6,2.8C103.3,420.3,103.9,420.6,104.8,420.6z"/>
	<path d="M116.7,411.5l-1.1-0.1c-0.5,0-0.9,0.1-1.2,0.4s-0.6,0.7-0.7,1.3v9h-2.4v-12.7h2.2l0.2,1.9c0.3-0.7,0.6-1.2,1-1.6
		s0.9-0.6,1.5-0.6c0.2,0,0.3,0,0.5,0s0.3,0.1,0.4,0.1L116.7,411.5z"/>
	<path d="M121.2,406.2h-2.4v-2.3h2.4V406.2z M121.2,422.2h-2.4v-12.7h2.4V422.2z"/>
	<path d="M133.4,416.9c0,1.7-0.4,3-1.1,4s-1.8,1.5-3.1,1.5c-0.6,0-1.2-0.1-1.6-0.4s-0.9-0.6-1.2-1.1v6.1H124v-17.6h2.1l0.2,1.5
		c0.3-0.5,0.7-1,1.2-1.2s1-0.4,1.7-0.4c1.3,0,2.3,0.6,3.1,1.7s1.1,2.6,1.1,4.4V416.9z M131.1,415.3c0-1.2-0.2-2.3-0.6-3
		s-1-1.2-1.8-1.2c-0.5,0-0.9,0.1-1.3,0.4s-0.6,0.7-0.9,1.2v6.4c0.2,0.5,0.5,0.8,0.9,1.1s0.8,0.4,1.3,0.4c0.8,0,1.4-0.3,1.8-1
		s0.6-1.6,0.6-2.7V415.3z"/>
	<path d="M138.8,406.3v3.2h2v1.7h-2v7.5c0,0.7,0.1,1.1,0.3,1.4s0.4,0.4,0.8,0.4c0.2,0,0.4,0,0.5,0s0.3-0.1,0.6-0.1l0.2,1.6
		c-0.3,0.1-0.6,0.2-0.9,0.3s-0.7,0.1-1,0.1c-0.9,0-1.6-0.3-2.1-0.9s-0.7-1.5-0.7-2.8v-7.5h-1.7v-1.7h1.7v-3.2H138.8z"/>
	<path d="M152.9,422.4c-1.5,0-2.7-0.5-3.6-1.6s-1.4-2.4-1.4-4V415c0-1.7,0.4-3,1.3-4.1s2-1.6,3.4-1.6s2.5,0.5,3.3,1.5s1.2,2.3,1.2,4
		v1.6h-6.8v0.5c0,1.1,0.2,2,0.7,2.7s1.2,1.1,2,1.1c0.7,0,1.2-0.1,1.7-0.3s0.9-0.5,1.3-0.9l0.8,1.5c-0.4,0.5-0.9,0.8-1.6,1.1
		S153.8,422.4,152.9,422.4z M152.6,411.1c-0.7,0-1.2,0.3-1.7,1s-0.6,1.5-0.7,2.6h4.5v-0.5c0-0.9-0.2-1.6-0.5-2.2
		S153.3,411.1,152.6,411.1z"/>
	<path d="M163,414.1L163,414.1l2.1-4.6h2.7l-3.4,6.3l3.5,6.4h-2.7l-2.1-4.8H163l-2.1,4.8h-2.7l3.5-6.4l-3.4-6.3h2.7L163,414.1z"/>
	<path d="M174,422.4c-1.5,0-2.7-0.5-3.6-1.6s-1.4-2.4-1.4-4V415c0-1.7,0.4-3,1.3-4.1s2-1.6,3.4-1.6s2.5,0.5,3.3,1.5s1.2,2.3,1.2,4
		v1.6h-6.8v0.5c0,1.1,0.2,2,0.7,2.7s1.2,1.1,2,1.1c0.7,0,1.2-0.1,1.7-0.3s0.9-0.5,1.3-0.9l0.8,1.5c-0.4,0.5-0.9,0.8-1.6,1.1
		S174.9,422.4,174,422.4z M173.7,411.1c-0.7,0-1.2,0.3-1.7,1s-0.6,1.5-0.7,2.6h4.5v-0.5c0-0.9-0.2-1.6-0.5-2.2
		S174.4,411.1,173.7,411.1z"/>
	<path d="M184.7,420.6c0.6,0,1.1-0.2,1.5-0.7s0.6-1.1,0.6-1.8h2.1v0.1c0,1.2-0.4,2.2-1.2,3s-1.9,1.2-3.1,1.2c-1.6,0-2.8-0.5-3.6-1.6
		s-1.3-2.4-1.3-4.1V415c0-1.7,0.4-3,1.3-4.1s2-1.6,3.6-1.6c1.3,0,2.3,0.4,3.1,1.3s1.2,2,1.2,3.3v0.1h-2.1c0-0.9-0.2-1.5-0.6-2.1
		s-0.9-0.8-1.5-0.8c-0.9,0-1.5,0.4-1.9,1.1s-0.6,1.7-0.6,2.8v1.8c0,1.1,0.2,2.1,0.6,2.8C183.2,420.3,183.8,420.6,184.7,420.6z"/>
	<path d="M197.8,420.5c-0.3,0.6-0.8,1.1-1.3,1.4s-1.1,0.5-1.8,0.5c-1.1,0-2-0.4-2.7-1.3s-1-2.3-1-4.1v-7.5h2.4v7.5
		c0,1.3,0.2,2.2,0.5,2.8s0.8,0.8,1.4,0.8c0.6,0,1.1-0.1,1.5-0.4s0.7-0.7,0.9-1.2v-9.5h2.4v12.7H198L197.8,420.5z"/>
	<path d="M205.8,406.3v3.2h2v1.7h-2v7.5c0,0.7,0.1,1.1,0.3,1.4s0.4,0.4,0.8,0.4c0.2,0,0.4,0,0.5,0s0.3-0.1,0.6-0.1l0.2,1.6
		c-0.3,0.1-0.6,0.2-0.9,0.3s-0.7,0.1-1,0.1c-0.9,0-1.6-0.3-2.1-0.9s-0.7-1.5-0.7-2.8v-7.5h-1.7v-1.7h1.7v-3.2H205.8z"/>
	<path d="M212.7,406.2h-2.4v-2.3h2.4V406.2z M212.7,422.2h-2.4v-12.7h2.4V422.2z"/>
	<path d="M215.1,415c0-1.7,0.4-3.1,1.3-4.1s2.1-1.6,3.6-1.6s2.7,0.5,3.6,1.6s1.3,2.5,1.3,4.2v1.6c0,1.7-0.4,3.1-1.3,4.2
		s-2.1,1.6-3.6,1.6s-2.7-0.5-3.6-1.6s-1.3-2.5-1.3-4.2V415z M217.5,416.6c0,1.2,0.2,2.1,0.6,2.9c0.4,0.7,1.1,1.1,1.9,1.1
		c0.8,0,1.5-0.4,1.9-1.1s0.6-1.7,0.6-2.9V415c0-1.1-0.2-2.1-0.6-2.8s-1.1-1.1-1.9-1.1c-0.9,0-1.5,0.4-1.9,1.1s-0.6,1.7-0.6,2.8
		V416.6z"/>
	<path d="M229.4,409.5l0.1,1.9c0.4-0.7,0.8-1.2,1.3-1.6s1.1-0.6,1.8-0.6c1.1,0,2,0.4,2.6,1.2s0.9,2.1,0.9,3.8v7.9h-2.4v-7.8
		c0-1.2-0.2-2-0.5-2.5s-0.8-0.7-1.5-0.7c-0.5,0-0.9,0.2-1.3,0.5s-0.7,0.7-0.9,1.2v9.4h-2.4v-12.7L229.4,409.5L229.4,409.5z"/>
</g>
<g>
	<g>
		<line class="st10" x1="50" y1="40" x2="50" y2="42.5"/>
		<line class="st11" x1="50" y1="47.5" x2="50" y2="95"/>
		<line class="st10" x1="50" y1="97.5" x2="50" y2="100"/>
	</g>
</g>
<g>
	<g>
		<line class="st10" x1="699.5" y1="40" x2="699.5" y2="42.5"/>
		<line class="st11" x1="699.5" y1="47.5" x2="699.5" y2="95"/>
		<line class="st10" x1="699.5" y1="97.5" x2="699.5" y2="100"/>
	</g>
</g>
<g>
	<path d="M58.8,104c0-0.4-0.1-0.7-0.4-0.9s-0.7-0.5-1.4-0.8c-1-0.4-1.7-0.8-2.2-1.2s-0.7-1-0.7-1.7s0.3-1.4,0.9-1.9s1.3-0.8,2.3-0.8
		s1.8,0.3,2.3,0.8s0.9,1.2,0.8,2.1v0.1h-1.7c0-0.5-0.1-0.8-0.4-1.2S57.7,98,57.2,98c-0.4,0-0.8,0.1-1,0.4s-0.4,0.5-0.4,0.9
		s0.1,0.7,0.3,0.9s0.7,0.5,1.4,0.8c1,0.4,1.7,0.8,2.2,1.2s0.7,1,0.7,1.7c0,0.8-0.3,1.4-0.9,1.9s-1.4,0.7-2.4,0.7s-1.9-0.3-2.5-0.9
		s-0.9-1.3-0.9-2.1v-0.1h1.7c0,0.6,0.2,1.1,0.5,1.3s0.7,0.4,1.2,0.4s0.8-0.1,1.1-0.4S58.8,104.3,58.8,104z"/>
	<path d="M64.5,94.5v2.4H66v1.3h-1.5v5.7c0,0.5,0.1,0.8,0.2,1.1s0.3,0.3,0.6,0.3c0.1,0,0.3,0,0.4,0s0.3,0,0.4-0.1l0.2,1.2
		c-0.2,0.1-0.4,0.1-0.7,0.2s-0.5,0.1-0.8,0.1c-0.7,0-1.2-0.2-1.6-0.7s-0.6-1.1-0.6-2.1v-5.7h-1.2v-1.3h1.2v-2.4H64.5z"/>
	<path d="M72.5,106.3c-0.1-0.2-0.1-0.4-0.2-0.6s-0.1-0.4-0.1-0.6c-0.3,0.4-0.6,0.8-1,1s-0.8,0.4-1.3,0.4c-0.8,0-1.4-0.3-1.9-0.8
		s-0.7-1.2-0.7-2c0-0.9,0.3-1.6,0.9-2.1s1.5-0.8,2.6-0.8h1.3v-1c0-0.6-0.1-1-0.4-1.3S71.3,98,70.8,98c-0.4,0-0.8,0.1-1,0.4
		c-0.3,0.3-0.4,0.7-0.4,1.1h-1.7v-0.1c0-0.7,0.3-1.4,0.9-2s1.4-0.9,2.4-0.9c0.9,0,1.7,0.3,2.3,0.8s0.9,1.3,0.9,2.4v4.4
		c0,0.4,0,0.7,0.1,1.1s0.1,0.7,0.2,1L72.5,106.3L72.5,106.3z M70.4,105.2c0.4,0,0.8-0.1,1.1-0.4s0.6-0.6,0.8-0.9v-2h-1.4
		c-0.5,0-1,0.2-1.3,0.5s-0.5,0.8-0.5,1.3c0,0.4,0.1,0.8,0.3,1S70,105.2,70.4,105.2z"/>
	<path d="M80.2,98.3h-0.8c-0.4,0-0.7,0.1-0.9,0.3s-0.4,0.5-0.6,0.9v6.8h-1.8v-9.5h1.6l0.1,1.4c0.2-0.5,0.5-0.9,0.8-1.2
		s0.7-0.4,1.1-0.4c0.1,0,0.2,0,0.4,0s0.2,0,0.3,0.1L80.2,98.3z"/>
	<path d="M84.2,94.5v2.4h1.5v1.3h-1.5v5.7c0,0.5,0.1,0.8,0.2,1.1s0.3,0.3,0.6,0.3c0.1,0,0.3,0,0.4,0s0.3,0,0.4-0.1l0.2,1.2
		c-0.2,0.1-0.4,0.1-0.7,0.2s-0.5,0.1-0.8,0.1c-0.7,0-1.2-0.2-1.6-0.7s-0.6-1.1-0.6-2.1v-5.7h-1.2v-1.3h1.2v-2.4H84.2z"/>
</g>
<g>
	<path d="M656.8,107.3v-8.2h-1.2v-1.3h1.2v-1c0-1.1,0.3-1.9,0.9-2.5s1.4-0.9,2.4-0.9c0.4,0,0.7,0,1.1,0.1s0.8,0.2,1.2,0.4l-0.3,1.4
		c-0.3-0.1-0.6-0.2-0.9-0.3s-0.6-0.1-1-0.1c-0.5,0-0.9,0.2-1.2,0.5s-0.4,0.8-0.4,1.4v1h1.6v1.3h-1.6v8.2H656.8z M663.2,107.3h-1.8
		v-9.5h1.8V107.3z"/>
	<path d="M667,97.8l0.1,1.4c0.3-0.5,0.6-0.9,1-1.2s0.9-0.4,1.4-0.4c0.8,0,1.5,0.3,1.9,0.9s0.7,1.6,0.7,2.9v5.9h-1.8v-5.9
		c0-0.9-0.1-1.5-0.4-1.9s-0.6-0.5-1.1-0.5c-0.4,0-0.7,0.1-1,0.3s-0.5,0.5-0.7,0.9v7h-1.8v-9.5L667,97.8L667,97.8z"/>
	<path d="M676,95.3h-1.8v-1.7h1.8V95.3z M676,107.3h-1.8v-9.5h1.8V107.3z"/>
	<path d="M682.6,105c0-0.4-0.1-0.7-0.4-0.9s-0.7-0.5-1.4-0.8c-1-0.4-1.7-0.8-2.2-1.2s-0.7-1-0.7-1.7s0.3-1.4,0.9-1.9
		s1.3-0.8,2.3-0.8s1.8,0.3,2.3,0.8s0.9,1.2,0.8,2.1v0.1h-1.7c0-0.5-0.1-0.8-0.4-1.2S681.5,99,681,99c-0.4,0-0.8,0.1-1,0.4
		s-0.4,0.5-0.4,0.9s0.1,0.7,0.3,0.9s0.7,0.5,1.4,0.8c1,0.4,1.7,0.8,2.2,1.2s0.7,1,0.7,1.7c0,0.8-0.3,1.4-0.9,1.9s-1.4,0.7-2.4,0.7
		s-1.9-0.3-2.5-0.9s-0.9-1.3-0.9-2.1v-0.1h1.7c0,0.6,0.2,1.1,0.5,1.3s0.7,0.4,1.2,0.4s0.8-0.1,1.1-0.4S682.6,105.3,682.6,105z"/>
	<path d="M687.8,99.1c0.3-0.5,0.6-0.8,1-1.1s0.8-0.4,1.3-0.4c0.9,0,1.5,0.3,2,0.9s0.7,1.6,0.7,2.9v5.8H691v-5.8
		c0-0.9-0.1-1.5-0.4-1.9s-0.6-0.6-1.1-0.6c-0.4,0-0.7,0.1-1,0.3s-0.5,0.5-0.7,0.9v7.1H686V93.6h1.8V99.1z"/>
</g>
<g class="st1">
	<g>
		<polyline class="st2" points="180,225 180,220 185,220 		"/>
		<line class="st12" x1="195" y1="220" x2="391" y2="220"/>
		<polyline class="st2" points="396,220 401,220 401,225 		"/>
		<line class="st4" x1="401" y1="234.6" x2="401" y2="287.2"/>
		<polyline class="st2" points="401,292 401,297 396,297 		"/>
		<line class="st12" x1="386" y1="297" x2="190" y2="297"/>
		<polyline class="st2" points="185,297 180,297 180,292 		"/>
		<line class="st4" x1="180" y1="282.4" x2="180" y2="229.8"/>
	</g>
</g>
<g>
	<rect x="190" y="229" class="st13" width="150" height="30"/>
</g>
<g>
	<rect x="340" y="259" class="st14" width="50" height="30"/>
</g>
<g>
	<g>
		<line class="st8" x1="390" y1="71.3" x2="390" y2="74.6"/>
		<line class="st9" x1="390" y1="81.4" x2="390" y2="282.2"/>
		<line class="st8" x1="390" y1="285.6" x2="390" y2="289"/>
	</g>
</g>
<g>
	<g>
		<line class="st8" x1="190" y1="80.4" x2="190" y2="83.2"/>
		<line class="st9" x1="190" y1="88.8" x2="190" y2="253.5"/>
		<line class="st8" x1="190" y1="256.2" x2="190" y2="259"/>
	</g>
</g>
</svg>
