<?xml version="1.0" encoding="utf-8"?>
<!-- Generator: Adobe Illustrator 21.1.0, SVG Export Plug-In . SVG Version: 6.00 Build 0)  -->
<svg version="1.1" id="Слой_1" xmlns="http://www.w3.org/2000/svg" xmlns:xlink="http://www.w3.org/1999/xlink" x="0px" y="0px"
	 viewBox="0 0 533 225" style="enable-background:new 0 0 533 225;" xml:space="preserve">
<style type="text/css">
	.st0{fill:none;stroke:#E95A0C;stroke-width:3;stroke-miterlimit:10;}
	.st1{fill:#E95A0C;stroke:#925F36;stroke-miterlimit:10;}
	.st2{fill:#ECECEC;}
	.st3{fill:#808080;}
	.st4{fill:#666666;}
</style>
<line class="st0" x1="204.5" y1="24.5" x2="364.5" y2="114.5"/>
<line class="st0" x1="209.5" y1="20.5" x2="49.5" y2="110.5"/>
<g>
	<path class="st1" d="M249,40h-90c-2.8,0-5-2.2-5-5V5c0-2.8,2.2-5,5-5h90c2.8,0,5,2.2,5,5v30C254,37.8,251.8,40,249,40z"/>
	<g>
		<path class="st2" d="M178.4,9.6l-6.9,4.1l6.9,4.1l-1.1,1.6l-7.7-4.8v-1.9l7.7-4.8L178.4,9.6z"/>
		<path class="st2" d="M189.5,19.1c-1,0.6-2.3,0.9-3.9,0.9h-4V6.2h3.8c1.5,0,2.7,0.3,3.6,0.8c0.9,0.5,1.4,1.4,1.4,2.7
			c0,0.8-0.2,1.5-0.7,2c-0.5,0.5-1.1,0.9-1.8,1c0.9,0.2,1.7,0.5,2.3,1c0.6,0.5,0.9,1.3,0.9,2.3C191,17.4,190.5,18.5,189.5,19.1z
			 M187.5,8.4c-0.4-0.3-1-0.5-1.9-0.5h-1.7v4h1.8c0.8,0,1.4-0.2,1.8-0.5s0.6-0.8,0.6-1.6C188.1,9.2,187.9,8.7,187.5,8.4z
			 M187.9,14.2c-0.5-0.4-1.1-0.5-2-0.5h-2v4.5h1.9c1.9,0,2.8-0.7,2.8-2.2C188.6,15.2,188.4,14.5,187.9,14.2z"/>
		<path class="st2" d="M201.9,18.3c-0.9,1.3-2.2,1.9-3.9,1.9s-3-0.6-3.9-1.9s-1.4-3-1.4-5.2c0-2.2,0.5-3.9,1.4-5.2
			c0.9-1.3,2.2-2,3.9-2s3,0.6,3.9,1.9s1.4,3,1.4,5.3C203.2,15.3,202.8,17,201.9,18.3z M200.2,9.1c-0.5-0.9-1.2-1.3-2.2-1.3
			s-1.7,0.4-2.2,1.3s-0.7,2.2-0.7,4.1c0,1.8,0.2,3.1,0.7,4c0.5,0.9,1.2,1.3,2.2,1.3c1,0,1.7-0.4,2.2-1.3c0.5-0.9,0.7-2.2,0.7-4
			C200.9,11.3,200.6,9.9,200.2,9.1z"/>
		<path class="st2" d="M213.4,18.5c-1.2,1-2.7,1.5-4.6,1.5h-3.4V6.2h3.2c2,0,3.6,0.5,4.8,1.4c1.2,1,1.8,2.8,1.8,5.4
			S214.6,17.5,213.4,18.5z M211.8,9c-0.7-0.7-1.6-1-2.7-1h-1.3v10.3h1.3c2.5,0,3.7-1.7,3.7-5.2C212.8,11,212.4,9.7,211.8,9z"/>
		<path class="st2" d="M223.2,20h-2.3v-5.3l-4.6-8.5h2.6l3.3,6.5l3.3-6.5h2.4l-4.6,8.5V20z"/>
		<path class="st2" d="M238.4,12.8v1.9l-7.7,4.8l-1.1-1.6l6.8-4.1l-6.8-4.1l1-1.7L238.4,12.8z"/>
	</g>
</g>
<g>
	<path class="st1" d="M94.5,130.5h-90c-2.8,0-5-2.2-5-5v-30c0-2.8,2.2-5,5-5h90c2.8,0,5,2.2,5,5v30
		C99.5,128.3,97.3,130.5,94.5,130.5z"/>
	<g>
		<path class="st2" d="M43.4,102.2l-5.5,3.3l5.5,3.3l-0.9,1.3l-6.1-3.8v-1.6l6.2-3.8L43.4,102.2z"/>
		<path class="st2" d="M52.6,105.7c-0.8,0.6-1.8,0.9-3.2,0.9h-1.3v3.9h-1.8v-11h3.1c1.4,0,2.5,0.3,3.3,0.9c0.8,0.6,1.2,1.4,1.2,2.6
			C53.7,104.2,53.3,105.1,52.6,105.7z M49.4,100.9h-1.3v4.3h1.4c0.7,0,1.3-0.2,1.7-0.5c0.4-0.3,0.6-0.9,0.6-1.7
			C51.8,101.5,51,100.9,49.4,100.9z"/>
		<path class="st2" d="M62.6,104.7v1.6l-6.1,3.8l-0.9-1.3l5.5-3.3l-5.5-3.3l0.8-1.3L62.6,104.7z"/>
	</g>
</g>
<path class="st1" d="M409.5,134.5h-90c-2.8,0-5-2.2-5-5v-30c0-2.8,2.2-5,5-5h90c2.8,0,5,2.2,5,5v30
	C414.5,132.3,412.3,134.5,409.5,134.5z"/>
<g>
	<path class="st2" d="M348.8,106.2l-5.5,3.3l5.5,3.3l-0.9,1.3l-6.1-3.8v-1.6l6.2-3.8L348.8,106.2z"/>
	<path class="st2" d="M358.2,104.9h-2.4v8.2h2.4v1.4h-6.7v-1.4h2.4v-8.2h-2.4v-1.4h6.7V104.9z"/>
	<path class="st2" d="M368.9,114.5h-1.7l-0.3-5.4c0-0.7,0-1.4,0-2c0-0.8,0-1.5,0-2l-1.6,7.5h-1.6l-1.7-7.5c0,0.5,0.1,1.4,0.1,2.5
		c0,0.7,0,1.2,0,1.5l-0.2,5.4h-1.7l0.6-11h2.2l1.6,7.4l1.5-7.4h2.2L368.9,114.5z"/>
	<path class="st2" d="M371.1,113.2c-0.8-1-1.2-2.4-1.2-4.3c0-1.2,0.2-2.3,0.6-3.1c0.4-0.9,1-1.5,1.7-2s1.5-0.7,2.4-0.7
		c0.7,0,1.3,0.1,1.8,0.3c0.5,0.2,1,0.5,1.4,1l-1,1.1c-0.3-0.3-0.7-0.5-1-0.7c-0.3-0.1-0.7-0.2-1.2-0.2c-0.9,0-1.6,0.3-2.1,1
		s-0.8,1.8-0.8,3.2c0,1.5,0.2,2.6,0.6,3.3c0.4,0.7,1.1,1,2,1c0.7,0,1.3-0.2,1.8-0.5v-3h-1.9l-0.2-1.4h3.9v5.4
		c-0.6,0.3-1.1,0.6-1.7,0.7c-0.6,0.2-1.3,0.3-2,0.3C373,114.7,371.9,114.2,371.1,113.2z"/>
	<path class="st2" d="M387.2,108.7v1.6l-6.1,3.8l-0.9-1.3l5.5-3.3l-5.5-3.3l0.8-1.3L387.2,108.7z"/>
</g>
<line class="st0" x1="53.5" y1="114.5" x2="213.5" y2="204.5"/>
<path class="st1" d="M258.5,224.5h-90c-2.8,0-5-2.2-5-5v-30c0-2.8,2.2-5,5-5h90c2.8,0,5,2.2,5,5v30
	C263.5,222.3,261.3,224.5,258.5,224.5z"/>
<g>
	<path class="st2" d="M197.8,196.2l-5.5,3.3l5.5,3.3l-0.9,1.3l-6.1-3.8v-1.6l6.2-3.8L197.8,196.2z"/>
	<path class="st2" d="M207.2,194.9h-2.4v8.2h2.4v1.4h-6.7v-1.4h2.4v-8.2h-2.4v-1.4h6.7V194.9z"/>
	<path class="st2" d="M217.9,204.5h-1.7l-0.3-5.4c0-0.7,0-1.4,0-2c0-0.8,0-1.5,0-2l-1.6,7.5h-1.6l-1.7-7.5c0,0.5,0.1,1.4,0.1,2.5
		c0,0.7,0,1.2,0,1.5l-0.2,5.4h-1.7l0.6-11h2.2l1.6,7.4l1.5-7.4h2.2L217.9,204.5z"/>
	<path class="st2" d="M220.1,203.2c-0.8-1-1.2-2.4-1.2-4.3c0-1.2,0.2-2.3,0.6-3.1c0.4-0.9,1-1.5,1.7-2s1.5-0.7,2.4-0.7
		c0.7,0,1.3,0.1,1.8,0.3c0.5,0.2,1,0.5,1.4,1l-1,1.1c-0.3-0.3-0.7-0.5-1-0.7c-0.3-0.1-0.7-0.2-1.2-0.2c-0.9,0-1.6,0.3-2.1,1
		s-0.8,1.8-0.8,3.2c0,1.5,0.2,2.6,0.6,3.3c0.4,0.7,1.1,1,2,1c0.7,0,1.3-0.2,1.8-0.5v-3h-1.9l-0.2-1.4h3.9v5.4
		c-0.6,0.3-1.1,0.6-1.7,0.7c-0.6,0.2-1.3,0.3-2,0.3C222,204.7,220.9,204.2,220.1,203.2z"/>
	<path class="st2" d="M236.2,198.7v1.6l-6.1,3.8l-0.9-1.3l5.5-3.3l-5.5-3.3l0.8-1.3L236.2,198.7z"/>
</g>
<g>
	<path d="M266.3,3L266,3.8c-0.4-0.2-0.9-0.3-1.4-0.3c-0.9,0-1.3,0.3-1.3,1v1.3h2.1l-0.1,0.8h-2v5h-1v-5h-1.5V5.8h1.5V4.6
		c0-0.6,0.2-1,0.7-1.4c0.4-0.3,1-0.5,1.6-0.5C265.2,2.7,265.8,2.8,266.3,3z"/>
	<path d="M272.5,6.1c0.5,0.6,0.7,1.4,0.7,2.4c0,1-0.2,1.8-0.7,2.4s-1.1,0.9-2,0.9c-0.9,0-1.5-0.3-2-0.9s-0.7-1.4-0.7-2.4
		c0-1,0.2-1.8,0.7-2.4c0.5-0.6,1.1-0.9,2-0.9S272,5.5,272.5,6.1z M269.2,6.7c-0.3,0.4-0.4,1-0.4,1.9s0.1,1.4,0.4,1.9
		c0.3,0.4,0.7,0.6,1.2,0.6c0.6,0,1-0.2,1.2-0.6c0.3-0.4,0.4-1,0.4-1.9c0-0.8-0.1-1.5-0.4-1.9S271,6,270.5,6
		C269.9,6,269.5,6.2,269.2,6.7z"/>
	<path d="M275.3,5.3h0.9l0.1,0.9c0.2-0.3,0.6-0.6,0.9-0.8s0.8-0.3,1.1-0.3c1.2,0,1.8,0.6,1.8,1.9v4.6h-1V7.8c0-0.5,0-0.8-0.1-1.1
		c-0.1-0.2-0.2-0.4-0.3-0.6C278.5,6.1,278.3,6,278,6c-0.3,0-0.7,0.1-1,0.3c-0.3,0.2-0.6,0.5-0.7,0.7v4.6h-1V5.3z"/>
	<path d="M286.7,11.7c-0.3,0.1-0.6,0.1-0.9,0.1c-0.7,0-1.2-0.2-1.6-0.5c-0.4-0.3-0.6-0.8-0.6-1.4V6.1h-1.5V5.3h1.5V3.9l1-0.1v1.5
		h2.2l-0.1,0.8h-2.1v3.8c0,0.4,0.1,0.6,0.3,0.8c0.2,0.2,0.5,0.3,0.9,0.3c0.4,0,0.8-0.1,1.2-0.3l0.4,0.7
		C287.3,11.5,287,11.6,286.7,11.7z"/>
	<path d="M289.7,8h4.8v0.9h-4.8V8z"/>
	<path d="M300.2,10.7c0.3-0.2,0.4-0.4,0.4-0.7c0-0.2,0-0.4-0.1-0.5c-0.1-0.1-0.2-0.3-0.4-0.4c-0.2-0.1-0.5-0.2-1-0.3
		c-0.7-0.2-1.3-0.4-1.6-0.7c-0.4-0.3-0.5-0.6-0.5-1.2c0-0.5,0.2-0.9,0.7-1.3s1-0.5,1.7-0.5c0.9,0,1.6,0.2,2.3,0.7l-0.5,0.7
		c-0.3-0.2-0.5-0.3-0.8-0.4c-0.3-0.1-0.6-0.1-1-0.1c-0.9,0-1.4,0.3-1.4,0.8c0,0.2,0,0.3,0.1,0.5c0.1,0.1,0.3,0.2,0.5,0.3
		s0.6,0.2,1,0.3c0.7,0.2,1.2,0.4,1.5,0.7c0.3,0.3,0.5,0.7,0.5,1.2c0,0.6-0.3,1.1-0.8,1.4c-0.5,0.3-1.1,0.5-1.9,0.5
		c-1,0-1.8-0.3-2.5-0.9l0.6-0.7c0.3,0.2,0.5,0.4,0.9,0.5c0.3,0.1,0.7,0.2,1,0.2C299.5,11,299.9,10.9,300.2,10.7z"/>
	<path d="M307.3,10.9h1.8v0.8h-4.7v-0.8h1.9V6.1h-1.9V5.3h2.9V10.9z M307,2.6c0.1,0.1,0.2,0.3,0.2,0.5s-0.1,0.4-0.2,0.5
		c-0.1,0.1-0.3,0.2-0.5,0.2c-0.2,0-0.4-0.1-0.5-0.2c-0.1-0.1-0.2-0.3-0.2-0.5s0.1-0.4,0.2-0.5c0.1-0.1,0.3-0.2,0.5-0.2
		C306.7,2.4,306.9,2.5,307,2.6z"/>
	<path d="M316,10.8l-0.1,0.9h-4.6v-0.8l3.5-4.7h-3.2V5.3h4.4v0.8l-3.5,4.7H316z"/>
	<path d="M319.8,10.4c0.3,0.4,0.8,0.5,1.3,0.5c0.3,0,0.6,0,0.9-0.1c0.3-0.1,0.5-0.2,0.8-0.4l0.5,0.7c-0.3,0.2-0.6,0.4-1,0.5
		c-0.4,0.1-0.8,0.2-1.1,0.2c-0.9,0-1.6-0.3-2.1-0.9c-0.5-0.6-0.8-1.4-0.8-2.4c0-0.6,0.1-1.2,0.3-1.7c0.2-0.5,0.5-0.9,1-1.2
		c0.4-0.3,0.9-0.4,1.5-0.4c0.8,0,1.4,0.3,1.9,0.8c0.5,0.6,0.7,1.3,0.7,2.3c0,0.2,0,0.4,0,0.5h-4.2C319.3,9.6,319.5,10.1,319.8,10.4z
		 M319.8,6.6c-0.3,0.3-0.5,0.9-0.5,1.5h3.3c0-0.7-0.2-1.2-0.4-1.5C321.8,6.2,321.5,6,321,6S320.1,6.2,319.8,6.6z"/>
	<path d="M327.4,5.8c0.2-0.2,0.4-0.3,0.7-0.3c0.3,0,0.5,0.1,0.7,0.3c0.2,0.2,0.3,0.4,0.3,0.7c0,0.3-0.1,0.5-0.3,0.7
		c-0.2,0.2-0.4,0.3-0.7,0.3c-0.3,0-0.5-0.1-0.7-0.3c-0.2-0.2-0.3-0.4-0.3-0.7C327.1,6.2,327.2,6,327.4,5.8z M327.4,10.1
		c0.2-0.2,0.4-0.3,0.7-0.3c0.3,0,0.5,0.1,0.7,0.3c0.2,0.2,0.3,0.4,0.3,0.7c0,0.3-0.1,0.5-0.3,0.7c-0.2,0.2-0.4,0.3-0.7,0.3
		c-0.3,0-0.5-0.1-0.7-0.3c-0.2-0.2-0.3-0.4-0.3-0.7C327.1,10.6,327.2,10.3,327.4,10.1z"/>
	<path d="M345.1,10.9v0.8h-4.8v-0.8h2V4.5l-1.9,1.1L340,4.9l2.5-1.5h0.9v7.5H345.1z"/>
	<path d="M351.2,6.6c0.4,0.2,0.6,0.5,0.8,0.9c0.2,0.4,0.3,0.9,0.3,1.4c0,0.6-0.1,1.1-0.3,1.6c-0.2,0.4-0.5,0.8-0.9,1
		c-0.4,0.2-0.8,0.3-1.3,0.3c-1,0-1.7-0.3-2.1-1c-0.4-0.7-0.7-1.7-0.7-3c0-0.9,0.1-1.7,0.4-2.4c0.2-0.7,0.6-1.2,1.1-1.6
		c0.5-0.4,1-0.6,1.6-0.6c0.6,0,1.1,0.2,1.6,0.5l-0.4,0.7c-0.4-0.2-0.8-0.3-1.3-0.3c-0.6,0-1.1,0.3-1.5,0.9c-0.4,0.6-0.5,1.4-0.6,2.4
		c0.3-0.4,0.5-0.7,0.9-0.8c0.3-0.2,0.7-0.3,1.1-0.3C350.5,6.3,350.9,6.4,351.2,6.6z M350.9,10.4c0.3-0.4,0.4-0.9,0.4-1.5
		c0-1.2-0.5-1.8-1.5-1.8c-0.4,0-0.7,0.1-1,0.3c-0.3,0.2-0.6,0.5-0.8,0.9c0,0.9,0.2,1.6,0.4,2.1c0.3,0.4,0.7,0.6,1.3,0.6
		C350.3,11,350.7,10.8,350.9,10.4z"/>
	<path d="M359.6,8.5c0,1-0.2,1.8-0.6,2.4s-1,0.9-1.8,0.9c-0.7,0-1.2-0.2-1.7-0.7v3l-1,0.1V5.3h0.9l0.1,0.9c0.2-0.3,0.5-0.6,0.8-0.8
		c0.3-0.2,0.7-0.3,1-0.3C358.8,5.2,359.6,6.3,359.6,8.5z M356.2,6.3c-0.3,0.2-0.5,0.4-0.7,0.7v3.1c0.2,0.2,0.4,0.4,0.6,0.6
		s0.5,0.2,0.8,0.2c0.5,0,0.9-0.2,1.2-0.6s0.4-1,0.4-1.9s-0.1-1.5-0.3-1.9c-0.2-0.4-0.6-0.6-1.1-0.6C356.7,6,356.4,6.1,356.2,6.3z"/>
	<path d="M361.1,11.7l2.3-3.3l-2.1-3h1.2l1.5,2.4l1.5-2.4h1.2l-2.1,2.9l2.3,3.4h-1.2L364,9l-1.7,2.7H361.1z"/>
	<path d="M371.9,10c0.2,0.2,0.3,0.4,0.3,0.7c0,0.3-0.1,0.6-0.2,0.9l-1,2.2h-0.9l0.6-2.4c-0.1-0.1-0.2-0.2-0.3-0.3
		c-0.1-0.1-0.1-0.3-0.1-0.5c0-0.3,0.1-0.5,0.3-0.7c0.2-0.2,0.4-0.3,0.7-0.3C371.5,9.7,371.8,9.8,371.9,10z M371.9,5.8
		c0.2,0.2,0.3,0.4,0.3,0.7c0,0.3-0.1,0.5-0.3,0.7c-0.2,0.2-0.4,0.3-0.7,0.3c-0.3,0-0.5-0.1-0.7-0.3c-0.2-0.2-0.3-0.4-0.3-0.7
		c0-0.3,0.1-0.5,0.3-0.7c0.2-0.2,0.4-0.3,0.7-0.3C371.5,5.5,371.8,5.6,371.9,5.8z"/>
</g>
<g>
	<path class="st3" d="M427.3,96l-0.3,0.8c-0.4-0.2-0.9-0.3-1.4-0.3c-0.9,0-1.3,0.3-1.3,1v1.3h2.1l-0.1,0.8h-2v5h-1v-5h-1.5v-0.8h1.5
		v-1.3c0-0.6,0.2-1,0.7-1.4c0.4-0.3,1-0.5,1.6-0.5C426.2,95.7,426.8,95.8,427.3,96z"/>
	<path class="st3" d="M433.5,99.1c0.5,0.6,0.7,1.4,0.7,2.4c0,1-0.2,1.8-0.7,2.4c-0.5,0.6-1.1,0.9-2,0.9c-0.9,0-1.5-0.3-2-0.9
		s-0.7-1.4-0.7-2.4c0-1,0.2-1.8,0.7-2.4c0.5-0.6,1.1-0.9,2-0.9C432.3,98.2,433,98.5,433.5,99.1z M430.2,99.7c-0.3,0.4-0.4,1-0.4,1.9
		s0.1,1.4,0.4,1.9c0.3,0.4,0.7,0.6,1.2,0.6c0.6,0,1-0.2,1.2-0.6c0.3-0.4,0.4-1,0.4-1.9c0-0.8-0.1-1.5-0.4-1.9S432,99,431.5,99
		C430.9,99,430.5,99.2,430.2,99.7z"/>
	<path class="st3" d="M436.3,98.3h0.9l0.1,0.9c0.2-0.3,0.6-0.6,0.9-0.8s0.8-0.3,1.1-0.3c1.2,0,1.8,0.6,1.8,1.9v4.6h-1v-3.8
		c0-0.5,0-0.8-0.1-1.1c-0.1-0.2-0.2-0.4-0.3-0.6c-0.2-0.1-0.4-0.2-0.7-0.2c-0.3,0-0.7,0.1-1,0.3s-0.6,0.5-0.7,0.7v4.6h-1V98.3z"/>
	<path class="st3" d="M447.7,104.7c-0.3,0.1-0.6,0.1-0.9,0.1c-0.7,0-1.2-0.2-1.6-0.5c-0.4-0.3-0.6-0.8-0.6-1.4v-3.8h-1.5v-0.8h1.5
		v-1.4l1-0.1v1.5h2.2l-0.1,0.8h-2.1v3.8c0,0.4,0.1,0.6,0.3,0.8c0.2,0.2,0.5,0.3,0.9,0.3c0.4,0,0.8-0.1,1.2-0.3l0.4,0.7
		C448.3,104.5,448,104.6,447.7,104.7z"/>
	<path class="st3" d="M450.7,101h4.8v0.9h-4.8V101z"/>
	<path class="st3" d="M461.2,103.7c0.3-0.2,0.4-0.4,0.4-0.7c0-0.2,0-0.4-0.1-0.5c-0.1-0.1-0.2-0.3-0.4-0.4c-0.2-0.1-0.5-0.2-1-0.3
		c-0.7-0.2-1.3-0.4-1.6-0.7c-0.4-0.3-0.5-0.6-0.5-1.2c0-0.5,0.2-0.9,0.7-1.3c0.4-0.3,1-0.5,1.7-0.5c0.9,0,1.6,0.2,2.3,0.7l-0.5,0.7
		c-0.3-0.2-0.5-0.3-0.8-0.4c-0.3-0.1-0.6-0.1-1-0.1c-0.9,0-1.4,0.3-1.4,0.8c0,0.2,0,0.3,0.1,0.5c0.1,0.1,0.3,0.2,0.5,0.3
		c0.2,0.1,0.6,0.2,1,0.3c0.7,0.2,1.2,0.4,1.5,0.7c0.3,0.3,0.5,0.7,0.5,1.2c0,0.6-0.3,1.1-0.8,1.4s-1.1,0.5-1.9,0.5
		c-1,0-1.8-0.3-2.5-0.9l0.6-0.7c0.3,0.2,0.5,0.4,0.9,0.5s0.7,0.2,1,0.2C460.5,104,460.9,103.9,461.2,103.7z"/>
	<path class="st3" d="M468.3,103.9h1.8v0.8h-4.7v-0.8h1.9v-4.7h-1.9v-0.8h2.9V103.9z M468,95.6c0.1,0.1,0.2,0.3,0.2,0.5
		s-0.1,0.4-0.2,0.5c-0.1,0.1-0.3,0.2-0.5,0.2c-0.2,0-0.4-0.1-0.5-0.2c-0.1-0.1-0.2-0.3-0.2-0.5s0.1-0.4,0.2-0.5
		c0.1-0.1,0.3-0.2,0.5-0.2C467.7,95.4,467.9,95.5,468,95.6z"/>
	<path class="st3" d="M477,103.8l-0.1,0.9h-4.6v-0.8l3.5-4.7h-3.2v-0.9h4.4v0.8l-3.5,4.7H477z"/>
	<path class="st3" d="M480.8,103.4c0.3,0.4,0.8,0.5,1.3,0.5c0.3,0,0.6,0,0.9-0.1c0.3-0.1,0.5-0.2,0.8-0.4l0.5,0.7
		c-0.3,0.2-0.6,0.4-1,0.5c-0.4,0.1-0.8,0.2-1.1,0.2c-0.9,0-1.6-0.3-2.1-0.9c-0.5-0.6-0.8-1.4-0.8-2.4c0-0.6,0.1-1.2,0.3-1.7
		c0.2-0.5,0.5-0.9,1-1.2c0.4-0.3,0.9-0.4,1.5-0.4c0.8,0,1.4,0.3,1.9,0.8c0.5,0.6,0.7,1.3,0.7,2.3c0,0.2,0,0.4,0,0.5h-4.2
		C480.3,102.6,480.5,103.1,480.8,103.4z M480.8,99.6c-0.3,0.3-0.5,0.9-0.5,1.5h3.3c0-0.7-0.2-1.2-0.4-1.5c-0.3-0.4-0.7-0.5-1.2-0.5
		S481.1,99.2,480.8,99.6z"/>
	<path class="st3" d="M488.4,98.8c0.2-0.2,0.4-0.3,0.7-0.3c0.3,0,0.5,0.1,0.7,0.3c0.2,0.2,0.3,0.4,0.3,0.7c0,0.3-0.1,0.5-0.3,0.7
		c-0.2,0.2-0.4,0.3-0.7,0.3c-0.3,0-0.5-0.1-0.7-0.3c-0.2-0.2-0.3-0.4-0.3-0.7C488.1,99.2,488.2,99,488.4,98.8z M488.4,103.1
		c0.2-0.2,0.4-0.3,0.7-0.3c0.3,0,0.5,0.1,0.7,0.3c0.2,0.2,0.3,0.4,0.3,0.7c0,0.3-0.1,0.5-0.3,0.7c-0.2,0.2-0.4,0.3-0.7,0.3
		c-0.3,0-0.5-0.1-0.7-0.3c-0.2-0.2-0.3-0.4-0.3-0.7C488.1,103.6,488.2,103.3,488.4,103.1z"/>
	<path class="st3" d="M506.1,103.9v0.8h-4.8v-0.8h2v-6.3l-1.9,1.1l-0.4-0.7l2.5-1.5h0.9v7.5H506.1z"/>
	<path class="st3" d="M512.2,99.6c0.4,0.2,0.6,0.5,0.8,0.9c0.2,0.4,0.3,0.9,0.3,1.4c0,0.6-0.1,1.1-0.3,1.6c-0.2,0.4-0.5,0.8-0.9,1
		c-0.4,0.2-0.8,0.3-1.3,0.3c-1,0-1.7-0.3-2.1-1c-0.4-0.7-0.7-1.7-0.7-3c0-0.9,0.1-1.7,0.4-2.4c0.2-0.7,0.6-1.2,1.1-1.6
		c0.5-0.4,1-0.6,1.6-0.6c0.6,0,1.1,0.2,1.6,0.5l-0.4,0.7c-0.4-0.2-0.8-0.3-1.3-0.3c-0.6,0-1.1,0.3-1.5,0.9c-0.4,0.6-0.5,1.4-0.6,2.4
		c0.3-0.4,0.5-0.7,0.9-0.8c0.3-0.2,0.7-0.3,1.1-0.3C511.5,99.3,511.9,99.4,512.2,99.6z M511.9,103.4c0.3-0.4,0.4-0.9,0.4-1.5
		c0-1.2-0.5-1.8-1.5-1.8c-0.4,0-0.7,0.1-1,0.3c-0.3,0.2-0.6,0.5-0.8,0.9c0,0.9,0.2,1.6,0.4,2.1c0.3,0.4,0.7,0.6,1.3,0.6
		C511.3,104,511.7,103.8,511.9,103.4z"/>
	<path class="st3" d="M520.6,101.5c0,1-0.2,1.8-0.6,2.4s-1,0.9-1.8,0.9c-0.7,0-1.2-0.2-1.7-0.7v3l-1,0.1v-8.9h0.9l0.1,0.9
		c0.2-0.3,0.5-0.6,0.8-0.8c0.3-0.2,0.7-0.3,1-0.3C519.8,98.2,520.6,99.3,520.6,101.5z M517.2,99.3c-0.3,0.2-0.5,0.4-0.7,0.7v3.1
		c0.2,0.2,0.4,0.4,0.6,0.6s0.5,0.2,0.8,0.2c0.5,0,0.9-0.2,1.2-0.6s0.4-1,0.4-1.9s-0.1-1.5-0.3-1.9c-0.2-0.4-0.6-0.6-1.1-0.6
		C517.7,99,517.4,99.1,517.2,99.3z"/>
	<path class="st3" d="M522.1,104.7l2.3-3.3l-2.1-3h1.2l1.5,2.4l1.5-2.4h1.2l-2.1,2.9l2.3,3.4h-1.2L525,102l-1.7,2.7H522.1z"/>
	<path class="st3" d="M532.9,103c0.2,0.2,0.3,0.4,0.3,0.7c0,0.3-0.1,0.6-0.2,0.9l-1,2.2h-0.9l0.6-2.4c-0.1-0.1-0.2-0.2-0.3-0.3
		c-0.1-0.1-0.1-0.3-0.1-0.5c0-0.3,0.1-0.5,0.3-0.7c0.2-0.2,0.4-0.3,0.7-0.3C532.5,102.7,532.8,102.8,532.9,103z M532.9,98.8
		c0.2,0.2,0.3,0.4,0.3,0.7c0,0.3-0.1,0.5-0.3,0.7c-0.2,0.2-0.4,0.3-0.7,0.3c-0.3,0-0.5-0.1-0.7-0.3c-0.2-0.2-0.3-0.4-0.3-0.7
		c0-0.3,0.1-0.5,0.3-0.7c0.2-0.2,0.4-0.3,0.7-0.3C532.5,98.5,532.8,98.6,532.9,98.8z"/>
	<path d="M427.3,110.4l-0.3,0.8c-0.4-0.2-0.9-0.3-1.4-0.3c-0.9,0-1.3,0.3-1.3,1v1.3h2.1l-0.1,0.8h-2v5h-1v-5h-1.5v-0.8h1.5V112
		c0-0.6,0.2-1,0.7-1.4c0.4-0.3,1-0.5,1.6-0.5C426.2,110.1,426.8,110.2,427.3,110.4z"/>
	<path d="M431.5,117.5c0,0.6,0.3,0.9,1,0.9c0.3,0,0.7-0.1,1.1-0.2l0.3,0.7c-0.4,0.2-0.9,0.3-1.5,0.3c-0.6,0-1-0.2-1.4-0.5
		c-0.3-0.3-0.5-0.7-0.5-1.3V111h-1.9v-0.8h3V117.5z"/>
	<path d="M440.7,113.5c0.5,0.6,0.7,1.4,0.7,2.4c0,1-0.2,1.8-0.7,2.4c-0.5,0.6-1.1,0.9-2,0.9c-0.9,0-1.5-0.3-2-0.9s-0.7-1.4-0.7-2.4
		c0-1,0.2-1.8,0.7-2.4c0.5-0.6,1.2-0.9,2-0.9C439.6,112.6,440.2,112.9,440.7,113.5z M437.4,114.1c-0.3,0.4-0.4,1-0.4,1.9
		s0.1,1.4,0.4,1.9c0.3,0.4,0.7,0.6,1.2,0.6c0.6,0,1-0.2,1.2-0.6c0.3-0.4,0.4-1,0.4-1.9c0-0.8-0.1-1.5-0.4-1.9s-0.7-0.6-1.2-0.6
		C438.1,113.4,437.7,113.6,437.4,114.1z"/>
	<path d="M448.1,118.2c0.1,0.1,0.2,0.2,0.4,0.3l-0.3,0.7c-0.6-0.1-1-0.4-1.2-0.9c-0.2,0.3-0.5,0.5-0.8,0.7s-0.7,0.2-1.1,0.2
		c-0.6,0-1.1-0.2-1.5-0.5c-0.4-0.4-0.5-0.8-0.5-1.4c0-0.6,0.3-1.1,0.8-1.5c0.5-0.4,1.2-0.5,2.2-0.5h0.9v-0.5c0-0.4-0.1-0.8-0.4-1
		c-0.3-0.2-0.6-0.3-1.1-0.3c-0.5,0-1,0.1-1.6,0.3l-0.3-0.8c0.7-0.3,1.4-0.4,2.1-0.4c0.8,0,1.4,0.2,1.8,0.5c0.4,0.4,0.6,0.9,0.6,1.5
		v3C448,117.9,448,118.1,448.1,118.2z M446.3,118.2c0.3-0.2,0.5-0.4,0.7-0.7v-1.6h-0.9c-0.7,0-1.2,0.1-1.5,0.3
		c-0.3,0.2-0.4,0.6-0.4,1c0,0.8,0.4,1.2,1.2,1.2C445.7,118.4,446,118.4,446.3,118.2z"/>
	<path d="M454.9,119.1c-0.3,0.1-0.6,0.1-0.9,0.1c-0.7,0-1.2-0.2-1.6-0.5c-0.4-0.3-0.6-0.8-0.6-1.4v-3.8h-1.5v-0.8h1.5v-1.4l1-0.1
		v1.5h2.2l-0.1,0.8h-2.1v3.8c0,0.4,0.1,0.6,0.3,0.8c0.2,0.2,0.5,0.3,0.9,0.3c0.4,0,0.8-0.1,1.2-0.3l0.4,0.7
		C455.5,118.9,455.2,119,454.9,119.1z"/>
	<path d="M459.6,113.2c0.2-0.2,0.4-0.3,0.7-0.3c0.3,0,0.5,0.1,0.7,0.3c0.2,0.2,0.3,0.4,0.3,0.7c0,0.3-0.1,0.5-0.3,0.7
		c-0.2,0.2-0.4,0.3-0.7,0.3c-0.3,0-0.5-0.1-0.7-0.3c-0.2-0.2-0.3-0.4-0.3-0.7C459.3,113.6,459.4,113.4,459.6,113.2z M459.6,117.5
		c0.2-0.2,0.4-0.3,0.7-0.3c0.3,0,0.5,0.1,0.7,0.3c0.2,0.2,0.3,0.4,0.3,0.7c0,0.3-0.1,0.5-0.3,0.7c-0.2,0.2-0.4,0.3-0.7,0.3
		c-0.3,0-0.5-0.1-0.7-0.3c-0.2-0.2-0.3-0.4-0.3-0.7C459.3,118,459.4,117.7,459.6,117.5z"/>
	<path d="M474.7,117.5c0,0.6,0.3,0.9,1,0.9c0.3,0,0.7-0.1,1.1-0.2l0.3,0.7c-0.4,0.2-0.9,0.3-1.5,0.3c-0.6,0-1-0.2-1.4-0.5
		s-0.5-0.7-0.5-1.3V111h-1.9v-0.8h3V117.5z"/>
	<path d="M480.8,117.8c0.3,0.4,0.8,0.5,1.3,0.5c0.3,0,0.6,0,0.9-0.1c0.3-0.1,0.5-0.2,0.8-0.4l0.5,0.7c-0.3,0.2-0.6,0.4-1,0.5
		c-0.4,0.1-0.8,0.2-1.1,0.2c-0.9,0-1.6-0.3-2.1-0.9c-0.5-0.6-0.8-1.4-0.8-2.4c0-0.6,0.1-1.2,0.3-1.7c0.2-0.5,0.5-0.9,1-1.2
		c0.4-0.3,0.9-0.4,1.5-0.4c0.8,0,1.4,0.3,1.9,0.8c0.5,0.6,0.7,1.3,0.7,2.3c0,0.2,0,0.4,0,0.5h-4.2
		C480.3,117,480.5,117.5,480.8,117.8z M480.8,114c-0.3,0.3-0.5,0.9-0.5,1.5h3.3c0-0.7-0.2-1.2-0.4-1.5c-0.3-0.4-0.7-0.5-1.2-0.5
		S481.1,113.6,480.8,114z"/>
	<path d="M492.1,110.4l-0.3,0.8c-0.4-0.2-0.9-0.3-1.4-0.3c-0.9,0-1.3,0.3-1.3,1v1.3h2.1l-0.1,0.8h-2v5h-1v-5h-1.5v-0.8h1.5V112
		c0-0.6,0.2-1,0.7-1.4c0.4-0.3,1-0.5,1.6-0.5C491,110.1,491.6,110.2,492.1,110.4z"/>
	<path d="M498.1,119.1c-0.3,0.1-0.6,0.1-0.9,0.1c-0.7,0-1.2-0.2-1.6-0.5c-0.4-0.3-0.6-0.8-0.6-1.4v-3.8h-1.5v-0.8h1.5v-1.4l1-0.1
		v1.5h2.2l-0.1,0.8h-2.1v3.8c0,0.4,0.1,0.6,0.3,0.8c0.2,0.2,0.5,0.3,0.9,0.3c0.4,0,0.8-0.1,1.2-0.3l0.4,0.7
		C498.7,118.9,498.4,119,498.1,119.1z"/>
	<path d="M504.1,117.4c0.2,0.2,0.3,0.4,0.3,0.7c0,0.3-0.1,0.6-0.2,0.9l-1,2.2h-0.9l0.6-2.4c-0.1-0.1-0.2-0.2-0.3-0.3
		c-0.1-0.1-0.1-0.3-0.1-0.5c0-0.3,0.1-0.5,0.3-0.7c0.2-0.2,0.4-0.3,0.7-0.3C503.7,117.1,504,117.2,504.1,117.4z M504.1,113.2
		c0.2,0.2,0.3,0.4,0.3,0.7c0,0.3-0.1,0.5-0.3,0.7c-0.2,0.2-0.4,0.3-0.7,0.3c-0.3,0-0.5-0.1-0.7-0.3c-0.2-0.2-0.3-0.4-0.3-0.7
		c0-0.3,0.1-0.5,0.3-0.7c0.2-0.2,0.4-0.3,0.7-0.3C503.7,112.9,504,113,504.1,113.2z"/>
</g>
<g>
	<path class="st3" d="M117.3,92l-0.3,0.8c-0.4-0.2-0.9-0.3-1.4-0.3c-0.9,0-1.3,0.3-1.3,1v1.3h2.1l-0.1,0.8h-2v5h-1v-5h-1.5v-0.8h1.5
		v-1.3c0-0.6,0.2-1,0.7-1.4c0.4-0.3,1-0.5,1.6-0.5C116.2,91.7,116.8,91.8,117.3,92z"/>
	<path class="st3" d="M123.5,95.1c0.5,0.6,0.7,1.4,0.7,2.4c0,1-0.2,1.8-0.7,2.4s-1.1,0.9-2,0.9c-0.9,0-1.5-0.3-2-0.9
		s-0.7-1.4-0.7-2.4c0-1,0.2-1.8,0.7-2.4c0.5-0.6,1.1-0.9,2-0.9S123,94.5,123.5,95.1z M120.2,95.7c-0.3,0.4-0.4,1-0.4,1.9
		s0.1,1.4,0.4,1.9c0.3,0.4,0.7,0.6,1.2,0.6c0.6,0,1-0.2,1.2-0.6c0.3-0.4,0.4-1,0.4-1.9c0-0.8-0.1-1.5-0.4-1.9S122,95,121.5,95
		C120.9,95,120.5,95.2,120.2,95.7z"/>
	<path class="st3" d="M126.3,94.3h0.9l0.1,0.9c0.2-0.3,0.6-0.6,0.9-0.8s0.8-0.3,1.1-0.3c1.2,0,1.8,0.6,1.8,1.9v4.6h-1v-3.8
		c0-0.5,0-0.8-0.1-1.1c-0.1-0.2-0.2-0.4-0.3-0.6c-0.2-0.1-0.4-0.2-0.7-0.2c-0.3,0-0.7,0.1-1,0.3c-0.3,0.2-0.6,0.5-0.7,0.7v4.6h-1
		V94.3z"/>
	<path class="st3" d="M137.7,100.7c-0.3,0.1-0.6,0.1-0.9,0.1c-0.7,0-1.2-0.2-1.6-0.5c-0.4-0.3-0.6-0.8-0.6-1.4v-3.8h-1.5v-0.8h1.5
		v-1.4l1-0.1v1.5h2.2l-0.1,0.8h-2.1v3.8c0,0.4,0.1,0.6,0.3,0.8c0.2,0.2,0.5,0.3,0.9,0.3c0.4,0,0.8-0.1,1.2-0.3l0.4,0.7
		C138.3,100.5,138,100.6,137.7,100.7z"/>
	<path class="st3" d="M140.7,97h4.8v0.9h-4.8V97z"/>
	<path class="st3" d="M151.2,99.7c0.3-0.2,0.4-0.4,0.4-0.7c0-0.2,0-0.4-0.1-0.5c-0.1-0.1-0.2-0.3-0.4-0.4c-0.2-0.1-0.5-0.2-1-0.3
		c-0.7-0.2-1.3-0.4-1.6-0.7c-0.4-0.3-0.5-0.6-0.5-1.2c0-0.5,0.2-0.9,0.7-1.3s1-0.5,1.7-0.5c0.9,0,1.6,0.2,2.3,0.7l-0.5,0.7
		c-0.3-0.2-0.5-0.3-0.8-0.4c-0.3-0.1-0.6-0.1-1-0.1c-0.9,0-1.4,0.3-1.4,0.8c0,0.2,0,0.3,0.1,0.5c0.1,0.1,0.3,0.2,0.5,0.3
		s0.6,0.2,1,0.3c0.7,0.2,1.2,0.4,1.5,0.7c0.3,0.3,0.5,0.7,0.5,1.2c0,0.6-0.3,1.1-0.8,1.4c-0.5,0.3-1.1,0.5-1.9,0.5
		c-1,0-1.8-0.3-2.5-0.9l0.6-0.7c0.3,0.2,0.5,0.4,0.9,0.5c0.3,0.1,0.7,0.2,1,0.2C150.5,100,150.9,99.9,151.2,99.7z"/>
	<path class="st3" d="M158.3,99.9h1.8v0.8h-4.7v-0.8h1.9v-4.7h-1.9v-0.8h2.9V99.9z M158,91.6c0.1,0.1,0.2,0.3,0.2,0.5
		s-0.1,0.4-0.2,0.5c-0.1,0.1-0.3,0.2-0.5,0.2c-0.2,0-0.4-0.1-0.5-0.2c-0.1-0.1-0.2-0.3-0.2-0.5s0.1-0.4,0.2-0.5
		c0.1-0.1,0.3-0.2,0.5-0.2C157.7,91.4,157.9,91.5,158,91.6z"/>
	<path class="st3" d="M167,99.8l-0.1,0.9h-4.6v-0.8l3.5-4.7h-3.2v-0.9h4.4v0.8l-3.5,4.7H167z"/>
	<path class="st3" d="M170.8,99.4c0.3,0.4,0.8,0.5,1.3,0.5c0.3,0,0.6,0,0.9-0.1c0.3-0.1,0.5-0.2,0.8-0.4l0.5,0.7
		c-0.3,0.2-0.6,0.4-1,0.5c-0.4,0.1-0.8,0.2-1.1,0.2c-0.9,0-1.6-0.3-2.1-0.9c-0.5-0.6-0.8-1.4-0.8-2.4c0-0.6,0.1-1.2,0.3-1.7
		c0.2-0.5,0.5-0.9,1-1.2c0.4-0.3,0.9-0.4,1.5-0.4c0.8,0,1.4,0.3,1.9,0.8c0.5,0.6,0.7,1.3,0.7,2.3c0,0.2,0,0.4,0,0.5h-4.2
		C170.3,98.6,170.5,99.1,170.8,99.4z M170.8,95.6c-0.3,0.3-0.5,0.9-0.5,1.5h3.3c0-0.7-0.2-1.2-0.4-1.5c-0.3-0.4-0.7-0.5-1.2-0.5
		S171.1,95.2,170.8,95.6z"/>
	<path class="st3" d="M178.4,94.8c0.2-0.2,0.4-0.3,0.7-0.3c0.3,0,0.5,0.1,0.7,0.3c0.2,0.2,0.3,0.4,0.3,0.7c0,0.3-0.1,0.5-0.3,0.7
		c-0.2,0.2-0.4,0.3-0.7,0.3c-0.3,0-0.5-0.1-0.7-0.3c-0.2-0.2-0.3-0.4-0.3-0.7C178.1,95.2,178.2,95,178.4,94.8z M178.4,99.1
		c0.2-0.2,0.4-0.3,0.7-0.3c0.3,0,0.5,0.1,0.7,0.3c0.2,0.2,0.3,0.4,0.3,0.7c0,0.3-0.1,0.5-0.3,0.7c-0.2,0.2-0.4,0.3-0.7,0.3
		c-0.3,0-0.5-0.1-0.7-0.3c-0.2-0.2-0.3-0.4-0.3-0.7C178.1,99.6,178.2,99.3,178.4,99.1z"/>
	<path class="st3" d="M196.1,99.9v0.8h-4.8v-0.8h2v-6.3l-1.9,1.1l-0.4-0.7l2.5-1.5h0.9v7.5H196.1z"/>
	<path class="st3" d="M202.2,95.6c0.4,0.2,0.6,0.5,0.8,0.9c0.2,0.4,0.3,0.9,0.3,1.4c0,0.6-0.1,1.1-0.3,1.6c-0.2,0.4-0.5,0.8-0.9,1
		c-0.4,0.2-0.8,0.3-1.3,0.3c-1,0-1.7-0.3-2.1-1c-0.4-0.7-0.7-1.7-0.7-3c0-0.9,0.1-1.7,0.4-2.4c0.2-0.7,0.6-1.2,1.1-1.6
		c0.5-0.4,1-0.6,1.6-0.6c0.6,0,1.1,0.2,1.6,0.5l-0.4,0.7c-0.4-0.2-0.8-0.3-1.3-0.3c-0.6,0-1.1,0.3-1.5,0.9c-0.4,0.6-0.5,1.4-0.6,2.4
		c0.3-0.4,0.5-0.7,0.9-0.8c0.3-0.2,0.7-0.3,1.1-0.3C201.5,95.3,201.9,95.4,202.2,95.6z M201.9,99.4c0.3-0.4,0.4-0.9,0.4-1.5
		c0-1.2-0.5-1.8-1.5-1.8c-0.4,0-0.7,0.1-1,0.3c-0.3,0.2-0.6,0.5-0.8,0.9c0,0.9,0.2,1.6,0.4,2.1c0.3,0.4,0.7,0.6,1.3,0.6
		C201.3,100,201.7,99.8,201.9,99.4z"/>
	<path class="st3" d="M210.6,97.5c0,1-0.2,1.8-0.6,2.4s-1,0.9-1.8,0.9c-0.7,0-1.2-0.2-1.7-0.7v3l-1,0.1v-8.9h0.9l0.1,0.9
		c0.2-0.3,0.5-0.6,0.8-0.8c0.3-0.2,0.7-0.3,1-0.3C209.8,94.2,210.6,95.3,210.6,97.5z M207.2,95.3c-0.3,0.2-0.5,0.4-0.7,0.7v3.1
		c0.2,0.2,0.4,0.4,0.6,0.6s0.5,0.2,0.8,0.2c0.5,0,0.9-0.2,1.2-0.6s0.4-1,0.4-1.9s-0.1-1.5-0.3-1.9c-0.2-0.4-0.6-0.6-1.1-0.6
		C207.7,95,207.4,95.1,207.2,95.3z"/>
	<path class="st3" d="M212.1,100.7l2.3-3.3l-2.1-3h1.2l1.5,2.4l1.5-2.4h1.2l-2.1,2.9l2.3,3.4h-1.2L215,98l-1.7,2.7H212.1z"/>
	<path class="st3" d="M222.9,99c0.2,0.2,0.3,0.4,0.3,0.7c0,0.3-0.1,0.6-0.2,0.9l-1,2.2h-0.9l0.6-2.4c-0.1-0.1-0.2-0.2-0.3-0.3
		c-0.1-0.1-0.1-0.3-0.1-0.5c0-0.3,0.1-0.5,0.3-0.7c0.2-0.2,0.4-0.3,0.7-0.3C222.5,98.7,222.8,98.8,222.9,99z M222.9,94.8
		c0.2,0.2,0.3,0.4,0.3,0.7c0,0.3-0.1,0.5-0.3,0.7c-0.2,0.2-0.4,0.3-0.7,0.3c-0.3,0-0.5-0.1-0.7-0.3c-0.2-0.2-0.3-0.4-0.3-0.7
		c0-0.3,0.1-0.5,0.3-0.7c0.2-0.2,0.4-0.3,0.7-0.3C222.5,94.5,222.8,94.6,222.9,94.8z"/>
	<path d="M117.3,106.4l-0.3,0.8c-0.4-0.2-0.9-0.3-1.4-0.3c-0.9,0-1.3,0.3-1.3,1v1.3h2.1l-0.1,0.8h-2v5h-1v-5h-1.5v-0.8h1.5V108
		c0-0.6,0.2-1,0.7-1.4c0.4-0.3,1-0.5,1.6-0.5C116.2,106.1,116.8,106.2,117.3,106.4z"/>
	<path d="M123.5,109.5c0.5,0.6,0.7,1.4,0.7,2.4c0,1-0.2,1.8-0.7,2.4s-1.1,0.9-2,0.9c-0.9,0-1.5-0.3-2-0.9s-0.7-1.4-0.7-2.4
		c0-1,0.2-1.8,0.7-2.4c0.5-0.6,1.1-0.9,2-0.9S123,108.9,123.5,109.5z M120.2,110.1c-0.3,0.4-0.4,1-0.4,1.9s0.1,1.4,0.4,1.9
		c0.3,0.4,0.7,0.6,1.2,0.6c0.6,0,1-0.2,1.2-0.6c0.3-0.4,0.4-1,0.4-1.9c0-0.8-0.1-1.5-0.4-1.9s-0.7-0.6-1.2-0.6
		C120.9,109.4,120.5,109.6,120.2,110.1z"/>
	<path d="M126.3,108.7h0.9l0.1,0.9c0.2-0.3,0.6-0.6,0.9-0.8s0.8-0.3,1.1-0.3c1.2,0,1.8,0.6,1.8,1.9v4.6h-1v-3.8c0-0.5,0-0.8-0.1-1.1
		c-0.1-0.2-0.2-0.4-0.3-0.6c-0.2-0.1-0.4-0.2-0.7-0.2c-0.3,0-0.7,0.1-1,0.3c-0.3,0.2-0.6,0.5-0.7,0.7v4.6h-1V108.7z"/>
	<path d="M137.7,115.1c-0.3,0.1-0.6,0.1-0.9,0.1c-0.7,0-1.2-0.2-1.6-0.5c-0.4-0.3-0.6-0.8-0.6-1.4v-3.8h-1.5v-0.8h1.5v-1.4l1-0.1
		v1.5h2.2l-0.1,0.8h-2.1v3.8c0,0.4,0.1,0.6,0.3,0.8c0.2,0.2,0.5,0.3,0.9,0.3c0.4,0,0.8-0.1,1.2-0.3l0.4,0.7
		C138.3,114.9,138,115,137.7,115.1z"/>
	<path d="M140.7,111.4h4.8v0.9h-4.8V111.4z"/>
	<path d="M151.1,115.1l-0.8-4.6l-0.9,4.6H148l-1.1-6.3h1l0.8,5.7l1-4.9h1.2l0.9,4.9l0.8-5.7h1l-1.1,6.3H151.1z"/>
	<path d="M156.4,113.8c0.3,0.4,0.8,0.5,1.3,0.5c0.3,0,0.6,0,0.9-0.1c0.3-0.1,0.5-0.2,0.8-0.4l0.5,0.7c-0.3,0.2-0.6,0.4-1,0.5
		s-0.8,0.2-1.1,0.2c-0.9,0-1.6-0.3-2.1-0.9c-0.5-0.6-0.8-1.4-0.8-2.4c0-0.6,0.1-1.2,0.3-1.7c0.2-0.5,0.5-0.9,1-1.2
		c0.4-0.3,0.9-0.4,1.5-0.4c0.8,0,1.4,0.3,1.9,0.8c0.5,0.6,0.7,1.3,0.7,2.3c0,0.2,0,0.4,0,0.5h-4.2
		C155.9,113,156.1,113.5,156.4,113.8z M156.4,110c-0.3,0.3-0.5,0.9-0.5,1.5h3.3c0-0.7-0.2-1.2-0.4-1.5c-0.3-0.4-0.7-0.5-1.2-0.5
		S156.7,109.6,156.4,110z"/>
	<path d="M165.5,114.3h1.8v0.8h-4.7v-0.8h1.9v-4.7h-1.9v-0.8h2.9V114.3z M165.2,106c0.1,0.1,0.2,0.3,0.2,0.5s-0.1,0.4-0.2,0.5
		c-0.1,0.1-0.3,0.2-0.5,0.2c-0.2,0-0.4-0.1-0.5-0.2c-0.1-0.1-0.2-0.3-0.2-0.5s0.1-0.4,0.2-0.5c0.1-0.1,0.3-0.2,0.5-0.2
		C164.9,105.8,165.1,105.9,165.2,106z"/>
	<path d="M174.9,109c-0.2,0.1-0.5,0.1-0.8,0.1c-0.3,0-0.6,0-1.1,0c0.7,0.3,1.1,0.9,1.1,1.6c0,0.6-0.2,1.2-0.6,1.6
		c-0.4,0.4-1,0.6-1.7,0.6c-0.4,0-0.7,0-0.9-0.1c-0.1,0.1-0.2,0.2-0.2,0.3c-0.1,0.1-0.1,0.2-0.1,0.3c0,0.4,0.3,0.5,0.8,0.5h1.1
		c0.4,0,0.8,0.1,1.1,0.2c0.3,0.1,0.6,0.4,0.8,0.6s0.3,0.6,0.3,0.9c0,0.6-0.3,1.1-0.8,1.4c-0.5,0.3-1.3,0.5-2.2,0.5
		c-1,0-1.7-0.2-2.1-0.5c-0.4-0.3-0.6-0.8-0.6-1.5h0.9c0,0.3,0,0.5,0.1,0.6c0.1,0.2,0.3,0.3,0.5,0.3c0.3,0.1,0.6,0.1,1.1,0.1
		c0.7,0,1.2-0.1,1.5-0.3s0.5-0.4,0.5-0.8c0-0.3-0.1-0.5-0.4-0.7c-0.3-0.2-0.6-0.2-1-0.2h-1.1c-0.5,0-0.9-0.1-1.2-0.3
		c-0.3-0.2-0.4-0.5-0.4-0.9c0-0.2,0.1-0.4,0.2-0.6c0.1-0.2,0.3-0.4,0.5-0.5c-0.4-0.2-0.6-0.4-0.8-0.7c-0.2-0.3-0.3-0.6-0.3-1
		c0-0.4,0.1-0.8,0.3-1.1s0.5-0.6,0.9-0.8s0.8-0.3,1.3-0.3c0.7,0,1.3,0,1.6-0.1c0.4-0.1,0.8-0.2,1.2-0.4L174.9,109z M170.6,109.7
		c-0.2,0.3-0.4,0.6-0.4,1.1c0,0.4,0.1,0.8,0.4,1.1s0.6,0.4,1.1,0.4c0.4,0,0.8-0.1,1-0.4c0.2-0.3,0.4-0.6,0.4-1.1
		c0-1-0.5-1.4-1.4-1.4C171.2,109.4,170.9,109.5,170.6,109.7z"/>
	<path d="M177.7,109.6c0.2-0.3,0.6-0.6,0.9-0.7s0.7-0.3,1.1-0.3c1.2,0,1.8,0.6,1.8,1.9v4.6h-1v-4.6c0-0.4-0.1-0.6-0.3-0.8
		c-0.2-0.2-0.5-0.3-0.8-0.3c-0.3,0-0.6,0.1-0.9,0.3c-0.3,0.2-0.6,0.5-0.7,0.7v4.6h-1v-8.9l1-0.1V109.6z"/>
	<path d="M188.1,115.1c-0.3,0.1-0.6,0.1-0.9,0.1c-0.7,0-1.2-0.2-1.6-0.5c-0.4-0.3-0.6-0.8-0.6-1.4v-3.8h-1.5v-0.8h1.5v-1.4l1-0.1
		v1.5h2.2l-0.1,0.8h-2.1v3.8c0,0.4,0.1,0.6,0.3,0.8c0.2,0.2,0.5,0.3,0.9,0.3c0.4,0,0.8-0.1,1.2-0.3l0.4,0.7
		C188.7,114.9,188.4,115,188.1,115.1z"/>
	<path d="M192.8,109.2c0.2-0.2,0.4-0.3,0.7-0.3c0.3,0,0.5,0.1,0.7,0.3c0.2,0.2,0.3,0.4,0.3,0.7c0,0.3-0.1,0.5-0.3,0.7
		c-0.2,0.2-0.4,0.3-0.7,0.3c-0.3,0-0.5-0.1-0.7-0.3c-0.2-0.2-0.3-0.4-0.3-0.7C192.5,109.6,192.6,109.4,192.8,109.2z M192.8,113.5
		c0.2-0.2,0.4-0.3,0.7-0.3c0.3,0,0.5,0.1,0.7,0.3c0.2,0.2,0.3,0.4,0.3,0.7c0,0.3-0.1,0.5-0.3,0.7c-0.2,0.2-0.4,0.3-0.7,0.3
		c-0.3,0-0.5-0.1-0.7-0.3c-0.2-0.2-0.3-0.4-0.3-0.7C192.5,114,192.6,113.7,192.8,113.5z"/>
	<path d="M208.3,108.6c0.8,0,1.4,0.3,1.8,0.9c0.4,0.6,0.6,1.4,0.6,2.4c0,1-0.2,1.8-0.7,2.4c-0.4,0.6-1.1,0.9-1.8,0.9
		c-0.7,0-1.3-0.3-1.7-0.8l-0.1,0.7h-0.9v-8.9l1-0.1v3.5C207,108.9,207.6,108.6,208.3,108.6z M209.1,113.8c0.3-0.4,0.4-1,0.4-1.9
		c0-0.8-0.1-1.4-0.4-1.8c-0.3-0.4-0.6-0.6-1.1-0.6c-0.3,0-0.6,0.1-0.9,0.3c-0.3,0.2-0.5,0.4-0.7,0.7v3.1c0.2,0.3,0.4,0.5,0.6,0.6
		s0.5,0.2,0.8,0.2C208.4,114.4,208.8,114.2,209.1,113.8z"/>
	<path d="M217.1,109.5c0.5,0.6,0.7,1.4,0.7,2.4c0,1-0.2,1.8-0.7,2.4c-0.5,0.6-1.1,0.9-2,0.9c-0.9,0-1.5-0.3-2-0.9s-0.7-1.4-0.7-2.4
		c0-1,0.2-1.8,0.7-2.4c0.5-0.6,1.2-0.9,2-0.9C215.9,108.6,216.6,108.9,217.1,109.5z M213.8,110.1c-0.3,0.4-0.4,1-0.4,1.9
		s0.1,1.4,0.4,1.9c0.3,0.4,0.7,0.6,1.2,0.6c0.6,0,1-0.2,1.2-0.6c0.3-0.4,0.4-1,0.4-1.9c0-0.8-0.1-1.5-0.4-1.9
		c-0.3-0.4-0.7-0.6-1.2-0.6C214.5,109.4,214.1,109.6,213.8,110.1z"/>
	<path d="M222.3,113.5c0,0.6,0.3,0.9,1,0.9c0.3,0,0.7-0.1,1.1-0.2l0.3,0.7c-0.4,0.2-0.9,0.3-1.5,0.3c-0.6,0-1-0.2-1.4-0.5
		s-0.5-0.7-0.5-1.3V107h-1.9v-0.8h3V113.5z"/>
	<path d="M231.9,106.2v8.9H231l-0.1-0.8c-0.2,0.3-0.5,0.6-0.8,0.7c-0.3,0.2-0.6,0.2-1,0.2c-0.8,0-1.4-0.3-1.8-0.9
		c-0.4-0.6-0.6-1.4-0.6-2.4c0-0.6,0.1-1.2,0.3-1.7c0.2-0.5,0.5-0.9,0.9-1.2c0.4-0.3,0.8-0.4,1.3-0.4c0.7,0,1.3,0.3,1.7,0.8v-3.3
		L231.9,106.2z M228.2,110.1c-0.3,0.4-0.4,1-0.4,1.9c0,0.8,0.1,1.4,0.4,1.9c0.3,0.4,0.6,0.6,1.1,0.6c0.6,0,1.1-0.3,1.6-1v-3.1
		c-0.2-0.3-0.4-0.5-0.6-0.6c-0.2-0.1-0.5-0.2-0.8-0.2C228.9,109.4,228.5,109.6,228.2,110.1z"/>
	<path d="M237.3,113.4c0.2,0.2,0.3,0.4,0.3,0.7c0,0.3-0.1,0.6-0.2,0.9l-1,2.2h-0.9l0.6-2.4c-0.1-0.1-0.2-0.2-0.3-0.3
		c-0.1-0.1-0.1-0.3-0.1-0.5c0-0.3,0.1-0.5,0.3-0.7c0.2-0.2,0.4-0.3,0.7-0.3C236.9,113.1,237.2,113.2,237.3,113.4z M237.3,109.2
		c0.2,0.2,0.3,0.4,0.3,0.7c0,0.3-0.1,0.5-0.3,0.7c-0.2,0.2-0.4,0.3-0.7,0.3c-0.3,0-0.5-0.1-0.7-0.3c-0.2-0.2-0.3-0.4-0.3-0.7
		c0-0.3,0.1-0.5,0.3-0.7c0.2-0.2,0.4-0.3,0.7-0.3C236.9,108.9,237.2,109,237.3,109.2z"/>
</g>
<g>
	<path class="st4" d="M277.3,186l-0.3,0.8c-0.4-0.2-0.9-0.3-1.4-0.3c-0.9,0-1.3,0.3-1.3,1v1.3h2.1l-0.1,0.8h-2v5h-1v-5h-1.5v-0.8
		h1.5v-1.3c0-0.6,0.2-1,0.7-1.4c0.4-0.3,1-0.5,1.6-0.5C276.2,185.7,276.8,185.8,277.3,186z"/>
	<path class="st4" d="M283.5,189.1c0.5,0.6,0.7,1.4,0.7,2.4c0,1-0.2,1.8-0.7,2.4s-1.1,0.9-2,0.9c-0.9,0-1.5-0.3-2-0.9
		s-0.7-1.4-0.7-2.4c0-1,0.2-1.8,0.7-2.4c0.5-0.6,1.1-0.9,2-0.9S283,188.5,283.5,189.1z M280.2,189.7c-0.3,0.4-0.4,1-0.4,1.9
		s0.1,1.4,0.4,1.9c0.3,0.4,0.7,0.6,1.2,0.6c0.6,0,1-0.2,1.2-0.6c0.3-0.4,0.4-1,0.4-1.9c0-0.8-0.1-1.5-0.4-1.9s-0.7-0.6-1.2-0.6
		C280.9,189,280.5,189.2,280.2,189.7z"/>
	<path class="st4" d="M286.3,188.3h0.9l0.1,0.9c0.2-0.3,0.6-0.6,0.9-0.8s0.8-0.3,1.1-0.3c1.2,0,1.8,0.6,1.8,1.9v4.6h-1v-3.8
		c0-0.5,0-0.8-0.1-1.1c-0.1-0.2-0.2-0.4-0.3-0.6c-0.2-0.1-0.4-0.2-0.7-0.2c-0.3,0-0.7,0.1-1,0.3c-0.3,0.2-0.6,0.5-0.7,0.7v4.6h-1
		V188.3z"/>
	<path class="st4" d="M297.7,194.7c-0.3,0.1-0.6,0.1-0.9,0.1c-0.7,0-1.2-0.2-1.6-0.5c-0.4-0.3-0.6-0.8-0.6-1.4v-3.8h-1.5v-0.8h1.5
		v-1.4l1-0.1v1.5h2.2l-0.1,0.8h-2.1v3.8c0,0.4,0.1,0.6,0.3,0.8c0.2,0.2,0.5,0.3,0.9,0.3c0.4,0,0.8-0.1,1.2-0.3l0.4,0.7
		C298.3,194.5,298,194.6,297.7,194.7z"/>
	<path class="st4" d="M300.7,191h4.8v0.9h-4.8V191z"/>
	<path class="st4" d="M311.2,193.7c0.3-0.2,0.4-0.4,0.4-0.7c0-0.2,0-0.4-0.1-0.5c-0.1-0.1-0.2-0.3-0.4-0.4c-0.2-0.1-0.5-0.2-1-0.3
		c-0.7-0.2-1.3-0.4-1.6-0.7c-0.4-0.3-0.5-0.6-0.5-1.2c0-0.5,0.2-0.9,0.7-1.3s1-0.5,1.7-0.5c0.9,0,1.6,0.2,2.3,0.7l-0.5,0.7
		c-0.3-0.2-0.5-0.3-0.8-0.4c-0.3-0.1-0.6-0.1-1-0.1c-0.9,0-1.4,0.3-1.4,0.8c0,0.2,0,0.3,0.1,0.5c0.1,0.1,0.3,0.2,0.5,0.3
		s0.6,0.2,1,0.3c0.7,0.2,1.2,0.4,1.5,0.7c0.3,0.3,0.5,0.7,0.5,1.2c0,0.6-0.3,1.1-0.8,1.4c-0.5,0.3-1.1,0.5-1.9,0.5
		c-1,0-1.8-0.3-2.5-0.9l0.6-0.7c0.3,0.2,0.5,0.4,0.9,0.5c0.3,0.1,0.7,0.2,1,0.2C310.5,194,310.9,193.9,311.2,193.7z"/>
	<path class="st4" d="M318.3,193.9h1.8v0.8h-4.7v-0.8h1.9v-4.7h-1.9v-0.8h2.9V193.9z M318,185.6c0.1,0.1,0.2,0.3,0.2,0.5
		s-0.1,0.4-0.2,0.5c-0.1,0.1-0.3,0.2-0.5,0.2c-0.2,0-0.4-0.1-0.5-0.2c-0.1-0.1-0.2-0.3-0.2-0.5s0.1-0.4,0.2-0.5
		c0.1-0.1,0.3-0.2,0.5-0.2C317.7,185.4,317.9,185.5,318,185.6z"/>
	<path class="st4" d="M327,193.8l-0.1,0.9h-4.6v-0.8l3.5-4.7h-3.2v-0.9h4.4v0.8l-3.5,4.7H327z"/>
	<path class="st4" d="M330.8,193.4c0.3,0.4,0.8,0.5,1.3,0.5c0.3,0,0.6,0,0.9-0.1c0.3-0.1,0.5-0.2,0.8-0.4l0.5,0.7
		c-0.3,0.2-0.6,0.4-1,0.5c-0.4,0.1-0.8,0.2-1.1,0.2c-0.9,0-1.6-0.3-2.1-0.9c-0.5-0.6-0.8-1.4-0.8-2.4c0-0.6,0.1-1.2,0.3-1.7
		c0.2-0.5,0.5-0.9,1-1.2c0.4-0.3,0.9-0.4,1.5-0.4c0.8,0,1.4,0.3,1.9,0.8c0.5,0.6,0.7,1.3,0.7,2.3c0,0.2,0,0.4,0,0.5h-4.2
		C330.3,192.6,330.5,193.1,330.8,193.4z M330.8,189.6c-0.3,0.3-0.5,0.9-0.5,1.5h3.3c0-0.7-0.2-1.2-0.4-1.5c-0.3-0.4-0.7-0.5-1.2-0.5
		S331.1,189.2,330.8,189.6z"/>
	<path class="st4" d="M338.4,188.8c0.2-0.2,0.4-0.3,0.7-0.3c0.3,0,0.5,0.1,0.7,0.3c0.2,0.2,0.3,0.4,0.3,0.7c0,0.3-0.1,0.5-0.3,0.7
		c-0.2,0.2-0.4,0.3-0.7,0.3c-0.3,0-0.5-0.1-0.7-0.3c-0.2-0.2-0.3-0.4-0.3-0.7C338.1,189.2,338.2,189,338.4,188.8z M338.4,193.1
		c0.2-0.2,0.4-0.3,0.7-0.3c0.3,0,0.5,0.1,0.7,0.3c0.2,0.2,0.3,0.4,0.3,0.7c0,0.3-0.1,0.5-0.3,0.7c-0.2,0.2-0.4,0.3-0.7,0.3
		c-0.3,0-0.5-0.1-0.7-0.3c-0.2-0.2-0.3-0.4-0.3-0.7C338.1,193.6,338.2,193.3,338.4,193.1z"/>
	<path class="st4" d="M356.1,193.9v0.8h-4.8v-0.8h2v-6.3l-1.9,1.1l-0.4-0.7l2.5-1.5h0.9v7.5H356.1z"/>
	<path class="st4" d="M362.2,189.6c0.4,0.2,0.6,0.5,0.8,0.9c0.2,0.4,0.3,0.9,0.3,1.4c0,0.6-0.1,1.1-0.3,1.6c-0.2,0.4-0.5,0.8-0.9,1
		c-0.4,0.2-0.8,0.3-1.3,0.3c-1,0-1.7-0.3-2.1-1c-0.4-0.7-0.7-1.7-0.7-3c0-0.9,0.1-1.7,0.4-2.4c0.2-0.7,0.6-1.2,1.1-1.6
		c0.5-0.4,1-0.6,1.6-0.6c0.6,0,1.1,0.2,1.6,0.5l-0.4,0.7c-0.4-0.2-0.8-0.3-1.3-0.3c-0.6,0-1.1,0.3-1.5,0.9c-0.4,0.6-0.5,1.4-0.6,2.4
		c0.3-0.4,0.5-0.7,0.9-0.8c0.3-0.2,0.7-0.3,1.1-0.3C361.5,189.3,361.9,189.4,362.2,189.6z M361.9,193.4c0.3-0.4,0.4-0.9,0.4-1.5
		c0-1.2-0.5-1.8-1.5-1.8c-0.4,0-0.7,0.1-1,0.3c-0.3,0.2-0.6,0.5-0.8,0.9c0,0.9,0.2,1.6,0.4,2.1c0.3,0.4,0.7,0.6,1.3,0.6
		C361.3,194,361.7,193.8,361.9,193.4z"/>
	<path class="st4" d="M370.6,191.5c0,1-0.2,1.8-0.6,2.4s-1,0.9-1.8,0.9c-0.7,0-1.2-0.2-1.7-0.7v3l-1,0.1v-8.9h0.9l0.1,0.9
		c0.2-0.3,0.5-0.6,0.8-0.8c0.3-0.2,0.7-0.3,1-0.3C369.8,188.2,370.6,189.3,370.6,191.5z M367.2,189.3c-0.3,0.2-0.5,0.4-0.7,0.7v3.1
		c0.2,0.2,0.4,0.4,0.6,0.6s0.5,0.2,0.8,0.2c0.5,0,0.9-0.2,1.2-0.6s0.4-1,0.4-1.9s-0.1-1.5-0.3-1.9c-0.2-0.4-0.6-0.6-1.1-0.6
		C367.7,189,367.4,189.1,367.2,189.3z"/>
	<path class="st4" d="M372.1,194.7l2.3-3.3l-2.1-3h1.2l1.5,2.4l1.5-2.4h1.2l-2.1,2.9l2.3,3.4h-1.2L375,192l-1.7,2.7H372.1z"/>
	<path class="st4" d="M382.9,193c0.2,0.2,0.3,0.4,0.3,0.7c0,0.3-0.1,0.6-0.2,0.9l-1,2.2h-0.9l0.6-2.4c-0.1-0.1-0.2-0.2-0.3-0.3
		c-0.1-0.1-0.1-0.3-0.1-0.5c0-0.3,0.1-0.5,0.3-0.7c0.2-0.2,0.4-0.3,0.7-0.3C382.5,192.7,382.8,192.8,382.9,193z M382.9,188.8
		c0.2,0.2,0.3,0.4,0.3,0.7c0,0.3-0.1,0.5-0.3,0.7c-0.2,0.2-0.4,0.3-0.7,0.3c-0.3,0-0.5-0.1-0.7-0.3c-0.2-0.2-0.3-0.4-0.3-0.7
		c0-0.3,0.1-0.5,0.3-0.7c0.2-0.2,0.4-0.3,0.7-0.3C382.5,188.5,382.8,188.6,382.9,188.8z"/>
	<path class="st4" d="M277.3,200.4l-0.3,0.8c-0.4-0.2-0.9-0.3-1.4-0.3c-0.9,0-1.3,0.3-1.3,1v1.3h2.1l-0.1,0.8h-2v5h-1v-5h-1.5v-0.8
		h1.5V202c0-0.6,0.2-1,0.7-1.4c0.4-0.3,1-0.5,1.6-0.5C276.2,200.1,276.8,200.2,277.3,200.4z"/>
	<path class="st4" d="M283.5,203.5c0.5,0.6,0.7,1.4,0.7,2.4c0,1-0.2,1.8-0.7,2.4s-1.1,0.9-2,0.9c-0.9,0-1.5-0.3-2-0.9
		s-0.7-1.4-0.7-2.4c0-1,0.2-1.8,0.7-2.4c0.5-0.6,1.1-0.9,2-0.9S283,202.9,283.5,203.5z M280.2,204.1c-0.3,0.4-0.4,1-0.4,1.9
		s0.1,1.4,0.4,1.9c0.3,0.4,0.7,0.6,1.2,0.6c0.6,0,1-0.2,1.2-0.6c0.3-0.4,0.4-1,0.4-1.9c0-0.8-0.1-1.5-0.4-1.9s-0.7-0.6-1.2-0.6
		C280.9,203.4,280.5,203.6,280.2,204.1z"/>
	<path class="st4" d="M286.3,202.7h0.9l0.1,0.9c0.2-0.3,0.6-0.6,0.9-0.8s0.8-0.3,1.1-0.3c1.2,0,1.8,0.6,1.8,1.9v4.6h-1v-3.8
		c0-0.5,0-0.8-0.1-1.1c-0.1-0.2-0.2-0.4-0.3-0.6c-0.2-0.1-0.4-0.2-0.7-0.2c-0.3,0-0.7,0.1-1,0.3c-0.3,0.2-0.6,0.5-0.7,0.7v4.6h-1
		V202.7z"/>
	<path class="st4" d="M297.7,209.1c-0.3,0.1-0.6,0.1-0.9,0.1c-0.7,0-1.2-0.2-1.6-0.5c-0.4-0.3-0.6-0.8-0.6-1.4v-3.8h-1.5v-0.8h1.5
		v-1.4l1-0.1v1.5h2.2l-0.1,0.8h-2.1v3.8c0,0.4,0.1,0.6,0.3,0.8c0.2,0.2,0.5,0.3,0.9,0.3c0.4,0,0.8-0.1,1.2-0.3l0.4,0.7
		C298.3,208.9,298,209,297.7,209.1z"/>
	<path class="st4" d="M300.7,205.4h4.8v0.9h-4.8V205.4z"/>
	<path class="st4" d="M311.1,209.1l-0.8-4.6l-0.9,4.6H308l-1.1-6.3h1l0.8,5.7l1-4.9h1.2l0.9,4.9l0.8-5.7h1l-1.1,6.3H311.1z"/>
	<path class="st4" d="M316.4,207.8c0.3,0.4,0.8,0.5,1.3,0.5c0.3,0,0.6,0,0.9-0.1c0.3-0.1,0.5-0.2,0.8-0.4l0.5,0.7
		c-0.3,0.2-0.6,0.4-1,0.5s-0.8,0.2-1.1,0.2c-0.9,0-1.6-0.3-2.1-0.9c-0.5-0.6-0.8-1.4-0.8-2.4c0-0.6,0.1-1.2,0.3-1.7
		c0.2-0.5,0.5-0.9,1-1.2c0.4-0.3,0.9-0.4,1.5-0.4c0.8,0,1.4,0.3,1.9,0.8c0.5,0.6,0.7,1.3,0.7,2.3c0,0.2,0,0.4,0,0.5h-4.2
		C315.9,207,316.1,207.5,316.4,207.8z M316.4,204c-0.3,0.3-0.5,0.9-0.5,1.5h3.3c0-0.7-0.2-1.2-0.4-1.5c-0.3-0.4-0.7-0.5-1.2-0.5
		S316.7,203.6,316.4,204z"/>
	<path class="st4" d="M325.5,208.3h1.8v0.8h-4.7v-0.8h1.9v-4.7h-1.9v-0.8h2.9V208.3z M325.2,200c0.1,0.1,0.2,0.3,0.2,0.5
		s-0.1,0.4-0.2,0.5c-0.1,0.1-0.3,0.2-0.5,0.2c-0.2,0-0.4-0.1-0.5-0.2c-0.1-0.1-0.2-0.3-0.2-0.5s0.1-0.4,0.2-0.5
		c0.1-0.1,0.3-0.2,0.5-0.2C324.9,199.8,325.1,199.9,325.2,200z"/>
	<path class="st4" d="M334.9,203c-0.2,0.1-0.5,0.1-0.8,0.1c-0.3,0-0.6,0-1.1,0c0.7,0.3,1.1,0.9,1.1,1.6c0,0.6-0.2,1.2-0.6,1.6
		c-0.4,0.4-1,0.6-1.7,0.6c-0.4,0-0.7,0-0.9-0.1c-0.1,0.1-0.2,0.2-0.2,0.3c-0.1,0.1-0.1,0.2-0.1,0.3c0,0.4,0.3,0.5,0.8,0.5h1.1
		c0.4,0,0.8,0.1,1.1,0.2c0.3,0.1,0.6,0.4,0.8,0.6s0.3,0.6,0.3,0.9c0,0.6-0.3,1.1-0.8,1.4c-0.5,0.3-1.3,0.5-2.2,0.5
		c-1,0-1.7-0.2-2.1-0.5c-0.4-0.3-0.6-0.8-0.6-1.5h0.9c0,0.3,0,0.5,0.1,0.6c0.1,0.2,0.3,0.3,0.5,0.3c0.3,0.1,0.6,0.1,1.1,0.1
		c0.7,0,1.2-0.1,1.5-0.3s0.5-0.4,0.5-0.8c0-0.3-0.1-0.5-0.4-0.7c-0.3-0.2-0.6-0.2-1-0.2h-1.1c-0.5,0-0.9-0.1-1.2-0.3
		c-0.3-0.2-0.4-0.5-0.4-0.9c0-0.2,0.1-0.4,0.2-0.6c0.1-0.2,0.3-0.4,0.5-0.5c-0.4-0.2-0.6-0.4-0.8-0.7c-0.2-0.3-0.3-0.6-0.3-1
		c0-0.4,0.1-0.8,0.3-1.1s0.5-0.6,0.9-0.8s0.8-0.3,1.3-0.3c0.7,0,1.3,0,1.6-0.1c0.4-0.1,0.8-0.2,1.2-0.4L334.9,203z M330.6,203.7
		c-0.2,0.3-0.4,0.6-0.4,1.1c0,0.4,0.1,0.8,0.4,1.1s0.6,0.4,1.1,0.4c0.4,0,0.8-0.1,1-0.4c0.2-0.3,0.4-0.6,0.4-1.1
		c0-1-0.5-1.4-1.4-1.4C331.2,203.4,330.9,203.5,330.6,203.7z"/>
	<path class="st4" d="M337.7,203.6c0.2-0.3,0.6-0.6,0.9-0.7s0.7-0.3,1.1-0.3c1.2,0,1.8,0.6,1.8,1.9v4.6h-1v-4.6
		c0-0.4-0.1-0.6-0.3-0.8c-0.2-0.2-0.5-0.3-0.8-0.3c-0.3,0-0.6,0.1-0.9,0.3c-0.3,0.2-0.6,0.5-0.7,0.7v4.6h-1v-8.9l1-0.1V203.6z"/>
	<path class="st4" d="M348.1,209.1c-0.3,0.1-0.6,0.1-0.9,0.1c-0.7,0-1.2-0.2-1.6-0.5c-0.4-0.3-0.6-0.8-0.6-1.4v-3.8h-1.5v-0.8h1.5
		v-1.4l1-0.1v1.5h2.2l-0.1,0.8h-2.1v3.8c0,0.4,0.1,0.6,0.3,0.8c0.2,0.2,0.5,0.3,0.9,0.3c0.4,0,0.8-0.1,1.2-0.3l0.4,0.7
		C348.7,208.9,348.4,209,348.1,209.1z"/>
	<path class="st4" d="M352.8,203.2c0.2-0.2,0.4-0.3,0.7-0.3c0.3,0,0.5,0.1,0.7,0.3c0.2,0.2,0.3,0.4,0.3,0.7c0,0.3-0.1,0.5-0.3,0.7
		c-0.2,0.2-0.4,0.3-0.7,0.3c-0.3,0-0.5-0.1-0.7-0.3c-0.2-0.2-0.3-0.4-0.3-0.7C352.5,203.6,352.6,203.4,352.8,203.2z M352.8,207.5
		c0.2-0.2,0.4-0.3,0.7-0.3c0.3,0,0.5,0.1,0.7,0.3c0.2,0.2,0.3,0.4,0.3,0.7c0,0.3-0.1,0.5-0.3,0.7c-0.2,0.2-0.4,0.3-0.7,0.3
		c-0.3,0-0.5-0.1-0.7-0.3c-0.2-0.2-0.3-0.4-0.3-0.7C352.5,208,352.6,207.7,352.8,207.5z"/>
	<path class="st4" d="M368.3,202.6c0.8,0,1.4,0.3,1.8,0.9c0.4,0.6,0.6,1.4,0.6,2.4c0,1-0.2,1.8-0.7,2.4c-0.4,0.6-1.1,0.9-1.8,0.9
		c-0.7,0-1.3-0.3-1.7-0.8l-0.1,0.7h-0.9v-8.9l1-0.1v3.5C367,202.9,367.6,202.6,368.3,202.6z M369.1,207.8c0.3-0.4,0.4-1,0.4-1.9
		c0-0.8-0.1-1.4-0.4-1.8c-0.3-0.4-0.6-0.6-1.1-0.6c-0.3,0-0.6,0.1-0.9,0.3c-0.3,0.2-0.5,0.4-0.7,0.7v3.1c0.2,0.3,0.4,0.5,0.6,0.6
		s0.5,0.2,0.8,0.2C368.4,208.4,368.8,208.2,369.1,207.8z"/>
	<path class="st4" d="M377.1,203.5c0.5,0.6,0.7,1.4,0.7,2.4c0,1-0.2,1.8-0.7,2.4c-0.5,0.6-1.1,0.9-2,0.9c-0.9,0-1.5-0.3-2-0.9
		s-0.7-1.4-0.7-2.4c0-1,0.2-1.8,0.7-2.4c0.5-0.6,1.2-0.9,2-0.9C375.9,202.6,376.6,202.9,377.1,203.5z M373.8,204.1
		c-0.3,0.4-0.4,1-0.4,1.9s0.1,1.4,0.4,1.9c0.3,0.4,0.7,0.6,1.2,0.6c0.6,0,1-0.2,1.2-0.6c0.3-0.4,0.4-1,0.4-1.9
		c0-0.8-0.1-1.5-0.4-1.9c-0.3-0.4-0.7-0.6-1.2-0.6C374.5,203.4,374.1,203.6,373.8,204.1z"/>
	<path class="st4" d="M382.3,207.5c0,0.6,0.3,0.9,1,0.9c0.3,0,0.7-0.1,1.1-0.2l0.3,0.7c-0.4,0.2-0.9,0.3-1.5,0.3
		c-0.6,0-1-0.2-1.4-0.5s-0.5-0.7-0.5-1.3V201h-1.9v-0.8h3V207.5z"/>
	<path class="st4" d="M391.9,200.2v8.9H391l-0.1-0.8c-0.2,0.3-0.5,0.6-0.8,0.7c-0.3,0.2-0.6,0.2-1,0.2c-0.8,0-1.4-0.3-1.8-0.9
		c-0.4-0.6-0.6-1.4-0.6-2.4c0-0.6,0.1-1.2,0.3-1.7c0.2-0.5,0.5-0.9,0.9-1.2c0.4-0.3,0.8-0.4,1.3-0.4c0.7,0,1.3,0.3,1.7,0.8v-3.3
		L391.9,200.2z M388.2,204.1c-0.3,0.4-0.4,1-0.4,1.9c0,0.8,0.1,1.4,0.4,1.9c0.3,0.4,0.6,0.6,1.1,0.6c0.6,0,1.1-0.3,1.6-1v-3.1
		c-0.2-0.3-0.4-0.5-0.6-0.6c-0.2-0.1-0.5-0.2-0.8-0.2C388.9,203.4,388.5,203.6,388.2,204.1z"/>
	<path class="st4" d="M397.3,207.4c0.2,0.2,0.3,0.4,0.3,0.7c0,0.3-0.1,0.6-0.2,0.9l-1,2.2h-0.9l0.6-2.4c-0.1-0.1-0.2-0.2-0.3-0.3
		c-0.1-0.1-0.1-0.3-0.1-0.5c0-0.3,0.1-0.5,0.3-0.7c0.2-0.2,0.4-0.3,0.7-0.3C396.9,207.1,397.2,207.2,397.3,207.4z M397.3,203.2
		c0.2,0.2,0.3,0.4,0.3,0.7c0,0.3-0.1,0.5-0.3,0.7c-0.2,0.2-0.4,0.3-0.7,0.3c-0.3,0-0.5-0.1-0.7-0.3c-0.2-0.2-0.3-0.4-0.3-0.7
		c0-0.3,0.1-0.5,0.3-0.7c0.2-0.2,0.4-0.3,0.7-0.3C396.9,202.9,397.2,203,397.3,203.2z"/>
	<path d="M274.7,217c0.8,0,1.4,0.3,1.8,0.9c0.4,0.6,0.6,1.4,0.6,2.4c0,1-0.2,1.8-0.7,2.4s-1.1,0.9-1.8,0.9c-0.7,0-1.3-0.3-1.7-0.8
		l-0.1,0.7h-0.9v-8.9l1-0.1v3.5C273.4,217.3,274,217,274.7,217z M275.5,222.2c0.3-0.4,0.4-1,0.4-1.9c0-0.8-0.1-1.4-0.4-1.8
		c-0.3-0.4-0.6-0.6-1.1-0.6c-0.3,0-0.6,0.1-0.9,0.3c-0.3,0.2-0.5,0.4-0.7,0.7v3.1c0.2,0.3,0.4,0.5,0.6,0.6s0.5,0.2,0.8,0.2
		C274.8,222.8,275.2,222.6,275.5,222.2z"/>
	<path d="M283.5,217.9c0.5,0.6,0.7,1.4,0.7,2.4c0,1-0.2,1.8-0.7,2.4s-1.1,0.9-2,0.9c-0.9,0-1.5-0.3-2-0.9s-0.7-1.4-0.7-2.4
		c0-1,0.2-1.8,0.7-2.4c0.5-0.6,1.1-0.9,2-0.9S283,217.3,283.5,217.9z M280.2,218.5c-0.3,0.4-0.4,1-0.4,1.9s0.1,1.4,0.4,1.9
		c0.3,0.4,0.7,0.6,1.2,0.6c0.6,0,1-0.2,1.2-0.6c0.3-0.4,0.4-1,0.4-1.9c0-0.8-0.1-1.5-0.4-1.9s-0.7-0.6-1.2-0.6
		C280.9,217.8,280.5,218,280.2,218.5z"/>
	<path d="M291.4,217.1l-0.1,2.1h-0.8v-1.4h-0.1c-1,0-1.7,0.7-2.1,2.1v2.7h1.3v0.8h-3.3v-0.8h1v-4.8h-1v-0.8h1.8l0.2,1.5
		c0.3-0.5,0.6-1,0.9-1.2s0.8-0.4,1.4-0.4C290.8,217,291.1,217.1,291.4,217.1z"/>
	<path d="M298.3,214.6v8.9h-0.9l-0.1-0.8c-0.2,0.3-0.5,0.6-0.8,0.7c-0.3,0.2-0.6,0.2-1,0.2c-0.8,0-1.4-0.3-1.8-0.9
		c-0.4-0.6-0.6-1.4-0.6-2.4c0-0.6,0.1-1.2,0.3-1.7c0.2-0.5,0.5-0.9,0.9-1.2c0.4-0.3,0.8-0.4,1.3-0.4c0.7,0,1.3,0.3,1.7,0.8v-3.3
		L298.3,214.6z M294.6,218.5c-0.3,0.4-0.4,1-0.4,1.9c0,0.8,0.1,1.4,0.4,1.9c0.3,0.4,0.6,0.6,1.1,0.6c0.6,0,1.1-0.3,1.6-1v-3.1
		c-0.2-0.3-0.4-0.5-0.6-0.6c-0.2-0.1-0.5-0.2-0.8-0.2C295.3,217.8,294.9,218,294.6,218.5z"/>
	<path d="M302,222.2c0.3,0.4,0.8,0.5,1.3,0.5c0.3,0,0.6,0,0.9-0.1c0.3-0.1,0.5-0.2,0.8-0.4l0.5,0.7c-0.3,0.2-0.6,0.4-1,0.5
		s-0.8,0.2-1.1,0.2c-0.9,0-1.6-0.3-2.1-0.9c-0.5-0.6-0.8-1.4-0.8-2.4c0-0.6,0.1-1.2,0.3-1.7c0.2-0.5,0.5-0.9,1-1.2
		c0.4-0.3,0.9-0.4,1.5-0.4c0.8,0,1.4,0.3,1.9,0.8c0.5,0.6,0.7,1.3,0.7,2.3c0,0.2,0,0.4,0,0.5h-4.2
		C301.5,221.4,301.7,221.9,302,222.2z M302,218.4c-0.3,0.3-0.5,0.9-0.5,1.5h3.3c0-0.7-0.2-1.2-0.4-1.5c-0.3-0.4-0.7-0.5-1.2-0.5
		C302.7,217.8,302.3,218,302,218.4z"/>
	<path d="M313,217.1l-0.1,2.1h-0.8v-1.4H312c-1,0-1.7,0.7-2.1,2.1v2.7h1.3v0.8h-3.3v-0.8h1v-4.8h-1v-0.8h1.8l0.2,1.5
		c0.3-0.5,0.6-1,0.9-1.2s0.8-0.4,1.4-0.4C312.4,217,312.7,217.1,313,217.1z"/>
	<path d="M316.8,217.6c0.2-0.2,0.4-0.3,0.7-0.3c0.3,0,0.5,0.1,0.7,0.3c0.2,0.2,0.3,0.4,0.3,0.7c0,0.3-0.1,0.5-0.3,0.7
		c-0.2,0.2-0.4,0.3-0.7,0.3c-0.3,0-0.5-0.1-0.7-0.3s-0.3-0.4-0.3-0.7C316.5,218,316.6,217.8,316.8,217.6z M316.8,221.9
		c0.2-0.2,0.4-0.3,0.7-0.3c0.3,0,0.5,0.1,0.7,0.3c0.2,0.2,0.3,0.4,0.3,0.7c0,0.3-0.1,0.5-0.3,0.7c-0.2,0.2-0.4,0.3-0.7,0.3
		c-0.3,0-0.5-0.1-0.7-0.3s-0.3-0.4-0.3-0.7C316.5,222.4,316.6,222.1,316.8,221.9z"/>
	<path d="M331.9,221.9c0,0.6,0.3,0.9,1,0.9c0.3,0,0.7-0.1,1.1-0.2l0.3,0.7c-0.4,0.2-0.9,0.3-1.5,0.3c-0.6,0-1-0.2-1.4-0.5
		s-0.5-0.7-0.5-1.3v-6.5H329v-0.8h3V221.9z"/>
	<path d="M339.9,222.7h1.8v0.8h-4.7v-0.8h1.9v-4.7H337v-0.8h2.9V222.7z M339.6,214.4c0.1,0.1,0.2,0.3,0.2,0.5s-0.1,0.4-0.2,0.5
		c-0.1,0.1-0.3,0.2-0.5,0.2c-0.2,0-0.4-0.1-0.5-0.2c-0.1-0.1-0.2-0.3-0.2-0.5s0.1-0.4,0.2-0.5c0.1-0.1,0.3-0.2,0.5-0.2
		C339.3,214.2,339.5,214.3,339.6,214.4z"/>
	<path d="M348.9,217.4c0.2,0.3,0.3,0.7,0.3,1.4v4.7h-0.9v-4.5c0-0.4,0-0.7-0.1-0.9c-0.1-0.2-0.2-0.2-0.4-0.2c-0.4,0-0.8,0.3-1.1,0.8
		v4.9h-0.9v-4.5c0-0.4,0-0.7-0.1-0.9c-0.1-0.2-0.2-0.2-0.4-0.2c-0.4,0-0.8,0.3-1.1,0.8v4.9h-0.9v-6.3h0.8l0.1,0.7
		c0.2-0.3,0.4-0.5,0.6-0.6s0.5-0.2,0.8-0.2c0.6,0,1,0.3,1.1,0.8c0.2-0.3,0.4-0.5,0.6-0.6c0.2-0.1,0.5-0.2,0.8-0.2
		C348.4,217,348.7,217.1,348.9,217.4z"/>
	<path d="M352.4,222.2c0.3,0.4,0.8,0.5,1.3,0.5c0.3,0,0.6,0,0.9-0.1c0.3-0.1,0.5-0.2,0.8-0.4l0.5,0.7c-0.3,0.2-0.6,0.4-1,0.5
		c-0.4,0.1-0.8,0.2-1.1,0.2c-0.9,0-1.6-0.3-2.1-0.9c-0.5-0.6-0.8-1.4-0.8-2.4c0-0.6,0.1-1.2,0.3-1.7c0.2-0.5,0.5-0.9,1-1.2
		c0.4-0.3,0.9-0.4,1.5-0.4c0.8,0,1.4,0.3,1.9,0.8c0.5,0.6,0.7,1.3,0.7,2.3c0,0.2,0,0.4,0,0.5h-4.2
		C351.9,221.4,352.1,221.9,352.4,222.2z M352.4,218.4c-0.3,0.3-0.5,0.9-0.5,1.5h3.3c0-0.7-0.2-1.2-0.4-1.5c-0.3-0.4-0.7-0.5-1.2-0.5
		S352.7,218,352.4,218.4z"/>
	<path d="M370.6,221.5h-1.1v2h-1v-2h-3.4v-0.7l2.4-5.7l0.8,0.4l-2.2,5.2h2.4l0.1-2.3h0.9v2.3h1.1V221.5z"/>
	<path d="M377.8,220.3c0,1-0.2,1.8-0.6,2.4s-1,0.9-1.8,0.9c-0.7,0-1.2-0.2-1.7-0.7v3l-1,0.1v-8.9h0.9l0.1,0.9
		c0.2-0.3,0.5-0.6,0.8-0.8c0.3-0.2,0.7-0.3,1-0.3C377,217,377.8,218.1,377.8,220.3z M374.4,218.1c-0.3,0.2-0.5,0.4-0.7,0.7v3.1
		c0.2,0.2,0.4,0.4,0.6,0.6s0.5,0.2,0.8,0.2c0.5,0,0.9-0.2,1.2-0.6s0.4-1,0.4-1.9s-0.1-1.5-0.3-1.9c-0.2-0.4-0.6-0.6-1.1-0.6
		C374.9,217.8,374.6,217.9,374.4,218.1z"/>
	<path d="M379.3,223.5l2.3-3.3l-2.1-3h1.2l1.5,2.4l1.5-2.4h1.2l-2.1,2.9l2.3,3.4H384l-1.7-2.7l-1.7,2.7H379.3z"/>
	<path d="M397.6,222.5c0.3-0.2,0.4-0.4,0.4-0.7c0-0.2,0-0.4-0.1-0.5c-0.1-0.1-0.2-0.3-0.4-0.4c-0.2-0.1-0.5-0.2-1-0.3
		c-0.7-0.2-1.3-0.4-1.6-0.7c-0.4-0.3-0.5-0.6-0.5-1.2c0-0.5,0.2-0.9,0.7-1.3c0.4-0.3,1-0.5,1.7-0.5c0.9,0,1.6,0.2,2.3,0.7l-0.5,0.7
		c-0.3-0.2-0.5-0.3-0.8-0.4c-0.3-0.1-0.6-0.1-1-0.1c-0.9,0-1.4,0.3-1.4,0.8c0,0.2,0,0.3,0.2,0.5c0.1,0.1,0.3,0.2,0.5,0.3
		c0.2,0.1,0.6,0.2,1,0.3c0.7,0.2,1.2,0.4,1.5,0.7c0.3,0.3,0.5,0.7,0.5,1.2c0,0.6-0.3,1.1-0.8,1.4s-1.1,0.5-1.9,0.5
		c-1,0-1.8-0.3-2.5-0.9l0.6-0.7c0.3,0.2,0.5,0.4,0.9,0.5s0.7,0.2,1,0.2C396.9,222.8,397.3,222.7,397.6,222.5z"/>
	<path d="M405.9,217.9c0.5,0.6,0.7,1.4,0.7,2.4c0,1-0.2,1.8-0.7,2.4c-0.5,0.6-1.1,0.9-2,0.9c-0.9,0-1.5-0.3-2-0.9s-0.7-1.4-0.7-2.4
		c0-1,0.2-1.8,0.7-2.4c0.5-0.6,1.2-0.9,2-0.9C404.7,217,405.4,217.3,405.9,217.9z M402.6,218.5c-0.3,0.4-0.4,1-0.4,1.9
		s0.1,1.4,0.4,1.9c0.3,0.4,0.7,0.6,1.2,0.6c0.6,0,1-0.2,1.2-0.6c0.3-0.4,0.4-1,0.4-1.9c0-0.8-0.1-1.5-0.4-1.9
		c-0.3-0.4-0.7-0.6-1.2-0.6C403.3,217.8,402.9,218,402.6,218.5z"/>
	<path d="M411.1,221.9c0,0.6,0.3,0.9,1,0.9c0.3,0,0.7-0.1,1.1-0.2l0.3,0.7c-0.4,0.2-0.9,0.3-1.5,0.3c-0.6,0-1-0.2-1.4-0.5
		s-0.5-0.7-0.5-1.3v-6.5h-1.9v-0.8h3V221.9z"/>
	<path d="M419.1,222.7h1.8v0.8h-4.7v-0.8h1.9v-4.7h-1.9v-0.8h2.9V222.7z M418.8,214.4c0.1,0.1,0.2,0.3,0.2,0.5s-0.1,0.4-0.2,0.5
		c-0.1,0.1-0.3,0.2-0.5,0.2c-0.2,0-0.4-0.1-0.5-0.2c-0.1-0.1-0.2-0.3-0.2-0.5s0.1-0.4,0.2-0.5c0.1-0.1,0.3-0.2,0.5-0.2
		C418.5,214.2,418.7,214.3,418.8,214.4z"/>
	<path d="M427.9,214.6v8.9H427l-0.1-0.8c-0.2,0.3-0.5,0.6-0.8,0.7c-0.3,0.2-0.6,0.2-1,0.2c-0.8,0-1.4-0.3-1.8-0.9
		c-0.4-0.6-0.6-1.4-0.6-2.4c0-0.6,0.1-1.2,0.3-1.7c0.2-0.5,0.5-0.9,0.9-1.2c0.4-0.3,0.8-0.4,1.3-0.4c0.7,0,1.3,0.3,1.7,0.8v-3.3
		L427.9,214.6z M424.2,218.5c-0.3,0.4-0.4,1-0.4,1.9c0,0.8,0.1,1.4,0.4,1.9c0.3,0.4,0.6,0.6,1.1,0.6c0.6,0,1.1-0.3,1.6-1v-3.1
		c-0.2-0.3-0.4-0.5-0.6-0.6c-0.2-0.1-0.5-0.2-0.8-0.2C424.9,217.8,424.5,218,424.2,218.5z"/>
	<path d="M433.3,221.8c0.2,0.2,0.3,0.4,0.3,0.7c0,0.3-0.1,0.6-0.2,0.9l-1,2.2h-0.9l0.6-2.4c-0.1-0.1-0.2-0.2-0.3-0.3
		c-0.1-0.1-0.1-0.3-0.1-0.5c0-0.3,0.1-0.5,0.3-0.7c0.2-0.2,0.4-0.3,0.7-0.3C432.9,221.5,433.2,221.6,433.3,221.8z M433.3,217.6
		c0.2,0.2,0.3,0.4,0.3,0.7c0,0.3-0.1,0.5-0.3,0.7c-0.2,0.2-0.4,0.3-0.7,0.3c-0.3,0-0.5-0.1-0.7-0.3c-0.2-0.2-0.3-0.4-0.3-0.7
		c0-0.3,0.1-0.5,0.3-0.7c0.2-0.2,0.4-0.3,0.7-0.3C432.9,217.3,433.2,217.4,433.3,217.6z"/>
</g>
</svg>
